<svg width="1002" height="640" viewBox="0 0 1002 640" fill="none" xmlns="http://www.w3.org/2000/svg">
<g clip-path="url(#clip0_13154_13712)">
<path d="M490.388 154.013C508.9 158.164 517.394 173.624 535.503 189.901C579.629 229.564 614.344 213.965 633.608 238.387C663.301 276.029 640.351 388.547 556.123 424.511C488.073 453.569 402.05 423.25 368.657 353.747C331.025 275.423 380.349 189.205 430.477 163.285C437.655 159.573 471.876 149.862 490.388 154.013Z" fill="#ECF3FF"/>
<path d="M337.781 341.526C333.863 342.546 319.023 341.948 321.857 334.625C325.009 326.484 333.422 333.601 337.031 338.114C335.662 330.914 335.475 323.579 335.495 319.655C332.828 316.449 327.191 296.082 338.293 297.091C352.842 298.413 339.952 317.692 336.601 319.881C336.603 324.579 336.917 333.886 339.043 341.962C339.495 336.829 344.613 322.233 351.416 327.38C361.284 334.847 342.403 343.86 339.54 343.705C340.439 346.652 341.603 349.368 343.123 351.539C344.217 353.102 345.428 354.912 346.681 356.883C346.703 356.907 346.725 356.931 346.747 356.955C347.38 351.552 352.423 337.674 359.083 342.713C368.295 349.685 352.451 358.003 347.975 358.951C350.75 363.466 353.611 368.626 355.818 373.599C356.128 368.719 365.704 358.743 369.507 364.448C371.628 367.629 360.405 377.994 356.706 375.671C358.816 380.825 360.085 385.644 359.646 389.159C359.484 390.455 359.247 391.985 358.973 393.64C361.595 390.741 371.067 381.019 373.888 388.543C376.227 394.781 368.412 398.4 365.126 398.4C362.555 398.4 359.829 395.967 358.761 394.906C358.61 395.803 358.451 396.726 358.289 397.667C356.966 405.344 355.38 414.584 355.846 420.142C358.083 415.802 368.077 397.731 373.888 409.352C376.868 415.311 368.412 420.305 365.126 421.4C362.431 422.299 357.61 421.491 355.963 421.171C356.054 421.798 356.172 422.377 356.336 422.87C358.477 429.292 362.801 435.817 362.844 435.882C363.012 436.133 362.943 436.473 362.692 436.641C362.598 436.703 362.493 436.733 362.389 436.733C362.212 436.733 362.038 436.648 361.933 436.489C361.895 436.433 358.681 431.578 356.38 426.073C353.8 425.748 343.881 424.395 341.031 422.495C337.746 420.305 331.863 413.107 336.65 410.448C344.059 406.332 351.827 417.272 355.229 422.961C353.963 418.716 355.085 410.22 356.402 402.244C353.749 403.038 345.129 401.497 342.126 399.495C338.841 397.305 333.177 391.63 336.65 388.543C345.357 380.803 354.557 397.198 356.586 401.132C356.795 399.89 357.005 398.667 357.209 397.481C357.758 394.3 358.275 391.297 358.559 389.022C358.967 385.757 357.752 381.062 355.582 375.797C353.853 376.346 348.005 377.961 341.579 377.043C333.912 375.948 330.025 369.978 332.817 367.186C337.57 362.433 351.614 372.28 355.242 374.965C353.033 369.784 349.934 364.103 346.536 358.684C342.068 359.718 324.269 359.339 326.678 352.27C329.084 345.209 338.197 349.959 343.551 354.1C343.111 353.449 342.669 352.8 342.225 352.167C340.199 349.272 338.779 345.511 337.781 341.526Z" fill="#59BE9F"/>
<path d="M665.219 341.526C669.137 342.546 683.977 341.948 681.143 334.625C677.991 326.484 669.578 333.601 665.969 338.114C667.338 330.914 667.525 323.579 667.505 319.655C670.172 316.449 675.809 296.082 664.707 297.091C650.158 298.413 663.048 317.692 666.399 319.881C666.397 324.579 666.084 333.886 663.957 341.962C663.505 336.829 658.387 322.233 651.584 327.38C641.716 334.847 660.597 343.86 663.46 343.705C662.561 346.652 661.397 349.368 659.877 351.539C658.783 353.102 657.572 354.912 656.319 356.883C656.297 356.907 656.275 356.931 656.253 356.955C655.62 351.552 650.577 337.674 643.917 342.713C634.705 349.685 650.549 358.003 655.025 358.951C652.25 363.466 649.389 368.626 647.182 373.599C646.872 368.719 637.296 358.743 633.493 364.448C631.372 367.629 642.595 377.994 646.294 375.671C644.184 380.825 642.915 385.644 643.354 389.159C643.516 390.455 643.753 391.985 644.027 393.64C641.405 390.741 631.933 381.019 629.112 388.543C626.773 394.781 634.588 398.4 637.874 398.4C640.445 398.4 643.171 395.967 644.239 394.906C644.39 395.803 644.549 396.726 644.711 397.667C646.034 405.344 647.62 414.584 647.154 420.142C644.917 415.802 634.923 397.731 629.112 409.352C626.132 415.311 634.588 420.305 637.874 421.4C640.569 422.299 645.39 421.491 647.037 421.171C646.946 421.798 646.828 422.377 646.664 422.87C644.523 429.292 640.199 435.817 640.156 435.882C639.988 436.133 640.057 436.473 640.308 436.641C640.401 436.703 640.507 436.733 640.611 436.733C640.788 436.733 640.962 436.648 641.067 436.489C641.105 436.433 644.319 431.578 646.62 426.073C649.2 425.748 659.119 424.395 661.969 422.495C665.254 420.305 671.137 413.107 666.35 410.448C658.941 406.332 651.173 417.272 647.771 422.961C649.037 418.716 647.915 410.22 646.598 402.244C649.251 403.038 657.871 401.497 660.874 399.495C664.159 397.305 669.823 391.63 666.35 388.543C657.643 380.803 648.443 397.198 646.414 401.132C646.205 399.89 645.995 398.667 645.791 397.481C645.242 394.3 644.725 391.297 644.441 389.022C644.033 385.757 645.248 381.062 647.418 375.797C649.147 376.346 654.995 377.961 661.421 377.043C669.088 375.948 672.975 369.978 670.183 367.186C665.43 362.433 651.386 372.28 647.758 374.965C649.967 369.784 653.066 364.103 656.464 358.684C660.932 359.718 678.731 359.339 676.322 352.27C673.916 345.209 664.803 349.959 659.449 354.1C659.889 353.449 660.331 352.8 660.775 352.167C662.801 349.272 664.221 345.511 665.219 341.526Z" fill="#59BE9F"/>
<path d="M633.493 409.353C624.299 405.675 622.052 419.746 621.567 424.36C619.542 417.63 618.682 409.443 619.597 402.775C620.996 402.741 626.419 402.485 630.207 400.591C634.588 398.4 637.29 389.628 633.493 388.543C627.114 386.72 621.497 397.781 619.789 401.55C619.939 400.7 620.117 399.876 620.331 399.092C621.729 393.966 622.742 387.361 623.18 380.869C624.909 380.837 629.733 380.669 632.398 379.781C635.683 378.686 641.246 370.105 636.779 368.829C630.621 367.07 625.174 375.902 623.266 379.45C623.635 372.68 623.356 366.163 622.204 361.723C622.697 359.773 623.636 355.632 623.636 352.4C623.636 348.019 618.552 339.396 613.779 343.638C605.059 351.389 618.126 360.448 621.259 362.436C622.318 366.809 622.552 373.122 622.172 379.671C620.215 374.745 612.305 357.012 602.826 365.543C599.186 368.82 607.207 376.495 612.683 378.686C617.038 380.428 620.754 380.796 622.096 380.875C621.656 387.253 620.652 393.75 619.274 398.803C619.024 399.72 618.823 400.69 618.659 401.694C616.583 397.505 606.921 379.691 596.255 387.448C591.826 390.669 600.636 398.4 605.017 400.591C608.777 402.471 616.433 402.569 618.527 402.56C617.617 409.201 618.439 417.331 620.412 424.149C617.194 419.281 607.787 406.784 600.636 414.829C596.393 419.602 607.376 423.647 610.493 424.686C613.238 425.601 619.11 425.874 620.969 425.939C622.527 430.643 624.646 434.546 627.118 436.606C627.221 436.692 627.345 436.733 627.469 436.733C627.626 436.733 627.781 436.666 627.89 436.537C628.084 436.304 628.052 435.959 627.82 435.765C625.461 433.799 623.44 430.075 621.95 425.574C623.376 424.98 627.521 423.191 630.207 421.4C633.493 419.21 638.577 411.386 633.493 409.353Z" fill="#59BE9F"/>
<path d="M675.255 435.639H617.718H607.207H327.776C327.48 435.639 327.214 435.861 327.199 436.157C327.183 436.473 327.434 436.734 327.746 436.734H607.207H617.983H675.255C675.557 436.734 675.802 436.489 675.802 436.186C675.802 435.884 675.557 435.639 675.255 435.639ZM638.26 390.837L640.879 390.798C641.161 390.794 641.386 390.562 641.382 390.28C641.378 389.999 641.146 389.774 640.864 389.778L638.245 389.817C637.963 389.821 637.738 390.053 637.742 390.334C637.746 390.616 637.978 390.841 638.26 390.837ZM644.987 390.737L647.606 390.698C647.888 390.694 648.113 390.462 648.109 390.181C648.104 389.899 647.873 389.674 647.591 389.678L644.971 389.717C644.69 389.721 644.465 389.953 644.469 390.235C644.473 390.516 644.705 390.742 644.987 390.737ZM642.902 388.714C643.184 388.71 643.409 388.478 643.405 388.196L643.366 385.577C643.362 385.295 643.13 385.07 642.848 385.074C642.567 385.078 642.342 385.31 642.346 385.592L642.385 388.211C642.389 388.493 642.621 388.718 642.902 388.714ZM643.002 395.441C643.284 395.437 643.509 395.205 643.505 394.923L643.466 392.304C643.462 392.022 643.23 391.797 642.948 391.801C642.666 391.805 642.441 392.037 642.446 392.319L642.484 394.938C642.489 395.22 642.72 395.445 643.002 395.441Z" fill="#514593"/>
<path d="M406.088 327.805L407.327 327.286C407.9 327.046 408.17 326.386 407.93 325.813L406.294 321.91C406.054 321.337 405.394 321.067 404.821 321.307L403.548 321.84C403.102 322.027 402.589 321.904 402.266 321.543C401.907 321.142 401.525 320.767 401.121 320.42C400.756 320.105 400.639 319.588 400.822 319.141L401.346 317.861C401.581 317.285 401.306 316.628 400.73 316.392L396.814 314.789C396.239 314.554 395.581 314.829 395.346 315.405L394.808 316.719C394.626 317.162 394.185 317.447 393.708 317.42C393.182 317.389 392.653 317.392 392.122 317.429C391.643 317.463 391.193 317.195 391.007 316.752L390.451 315.425C390.211 314.852 389.551 314.582 388.978 314.822L385.075 316.458C384.502 316.698 384.232 317.358 384.472 317.931L385.033 319.27C385.218 319.712 385.096 320.219 384.737 320.538C384.342 320.889 383.971 321.264 383.627 321.659C383.313 322.019 382.802 322.133 382.36 321.952L381.026 321.406C380.45 321.171 379.793 321.446 379.557 322.022L377.954 325.938C377.719 326.513 377.994 327.171 378.57 327.406L379.888 327.946C380.331 328.127 380.616 328.57 380.586 329.048C380.552 329.573 380.552 330.103 380.586 330.634C380.617 331.115 380.347 331.564 379.902 331.75L378.59 332.3C378.017 332.541 377.747 333.2 377.987 333.774L379.623 337.676C379.863 338.25 380.523 338.52 381.096 338.28L382.373 337.744C382.822 337.556 383.336 337.682 383.657 338.047C384.19 338.654 384.776 339.201 385.406 339.685L384.571 341.726C384.336 342.301 384.611 342.959 385.187 343.194L389.103 344.798C389.678 345.033 390.336 344.758 390.571 344.182L391.396 342.167C392.195 342.272 393.009 342.299 393.825 342.245C394.309 342.212 394.762 342.484 394.95 342.932L395.465 344.162C395.706 344.735 396.365 345.005 396.939 344.765L400.841 343.129C401.415 342.889 401.685 342.229 401.445 341.656L400.934 340.438C400.746 339.989 400.871 339.474 401.236 339.152C401.851 338.608 402.406 338.008 402.895 337.364L404.891 338.181C405.466 338.416 406.124 338.141 406.36 337.565L407.963 333.649C408.198 333.073 407.923 332.416 407.347 332.18L405.339 331.358C405.438 330.561 405.46 329.751 405.401 328.937C405.366 328.451 405.638 327.994 406.088 327.805ZM398.524 327.519C398.689 327.913 398.808 328.313 398.885 328.716C399.02 329.42 399.024 330.129 398.91 330.814C398.764 331.688 398.426 332.522 397.922 333.251C397.53 333.816 397.038 334.319 396.458 334.729C396.108 334.976 395.725 335.189 395.313 335.362C394.891 335.539 394.46 335.664 394.027 335.74C393.323 335.863 392.615 335.857 391.933 335.733C391.076 335.578 390.262 335.237 389.549 334.737C388.972 334.332 388.463 333.823 388.052 333.222C387.827 332.892 387.631 332.534 387.471 332.151C387.298 331.74 387.175 331.32 387.099 330.897C386.967 330.169 386.974 329.436 387.107 328.731C387.26 327.918 387.58 327.143 388.046 326.459C388.452 325.862 388.97 325.334 389.584 324.909C389.921 324.676 390.287 324.474 390.681 324.309C391.064 324.149 391.454 324.031 391.846 323.954C392.574 323.81 393.308 323.807 394.016 323.93C394.847 324.074 395.64 324.392 396.34 324.861C396.926 325.255 397.448 325.755 397.872 326.348C398.127 326.705 398.347 327.097 398.524 327.519Z" fill="url(#paint0_linear_13154_13712)"/>
<path d="M643.033 284.738C642.565 286.256 640.903 287.517 639.883 288.266C638.715 289.123 637.732 290.181 637.732 290.181C637.732 290.181 636.613 289.024 635.601 288.266C634.588 287.507 632.92 286.256 632.451 284.738C631.983 283.221 632.566 281.209 634.551 280.666C636.535 280.121 637.743 282.42 637.743 282.42C637.743 282.42 638.948 280.121 640.933 280.666C642.92 281.209 643.5 283.221 643.033 284.738ZM458.736 159.972C458.269 161.49 456.607 162.751 455.586 163.5C454.419 164.357 453.436 165.415 453.436 165.415C453.436 165.415 452.317 164.258 451.304 163.5C450.292 162.741 448.624 161.49 448.154 159.972C447.687 158.455 448.27 156.443 450.254 155.9C452.239 155.355 453.446 157.654 453.446 157.654C453.446 157.654 454.652 155.355 456.636 155.9C458.623 156.443 459.204 158.455 458.736 159.972Z" fill="#FF6483"/>
<path d="M591.145 211.468V223.056C591.145 223.257 591.11 223.449 591.047 223.628C590.845 224.199 590.349 224.63 589.741 224.74C589.641 224.759 589.538 224.768 589.433 224.768H572.04C571.898 224.768 571.762 224.751 571.631 224.719C571.038 224.574 570.567 224.121 570.396 223.539C570.351 223.386 570.327 223.224 570.327 223.056V211.468C570.327 211.377 570.334 211.287 570.348 211.199C570.445 210.59 570.862 210.087 571.422 209.871C571.614 209.797 571.822 209.756 572.04 209.756H589.433C589.586 209.756 589.734 209.776 589.876 209.814C590.463 209.971 590.926 210.432 591.085 211.018C591.124 211.161 591.145 211.312 591.145 211.468Z" fill="#F6CC5A"/>
<path d="M591.085 211.018C590.926 210.432 590.463 209.971 589.876 209.814L582.719 216.501L582.719 216.501C582.636 216.544 582.558 216.601 582.49 216.673C582.446 216.718 582.409 216.768 582.378 216.82L580.719 218.37L578.828 216.641L571.423 209.871C570.862 210.088 570.445 210.59 570.349 211.2L576.991 217.272L570.397 223.54C570.568 224.122 571.039 224.575 571.631 224.72L578.253 218.425L580.151 220.16C580.313 220.309 580.52 220.383 580.726 220.383C580.935 220.383 581.144 220.307 581.308 220.154L583.127 218.454L589.742 224.741C590.349 224.63 590.845 224.199 591.047 223.629L584.375 217.288L591.085 211.018Z" fill="#E89D33"/>
<path d="M516.086 277.617C532.899 275.737 545.382 263.958 543.967 251.307C542.553 238.656 527.776 229.925 510.963 231.805C494.15 233.685 481.667 245.464 483.082 258.115C484.496 270.765 499.273 279.497 516.086 277.617Z" fill="#59BE9F"/>
<path d="M546.296 276.698L537.293 263.24L528.521 271.987L546.296 276.698Z" fill="#59BE9F"/>
<path d="M533.988 249.564C533.982 249.564 533.975 249.564 533.969 249.563L502.384 248.996C501.821 248.986 501.372 248.521 501.382 247.957C501.392 247.394 501.861 246.951 502.421 246.955L534.006 247.523C534.569 247.533 535.018 247.998 535.008 248.561C534.998 249.119 534.543 249.564 533.988 249.564ZM533.987 256.412C533.983 256.412 533.978 256.412 533.973 256.412L493.841 255.845C493.278 255.837 492.827 255.373 492.835 254.81C492.843 254.246 493.301 253.789 493.87 253.804L534.002 254.371C534.565 254.379 535.016 254.842 535.008 255.406C535 255.965 534.544 256.412 533.987 256.412ZM533.987 263.261C533.983 263.261 533.978 263.261 533.973 263.261L493.841 262.693C493.278 262.685 492.827 262.222 492.835 261.658C492.843 261.095 493.301 260.646 493.87 260.652L534.002 261.22C534.565 261.228 535.016 261.691 535.008 262.255C535 262.813 534.544 263.261 533.987 263.261Z" fill="white"/>
<path d="M589.747 311.621C589.558 311.621 589.365 311.59 589.177 311.524C588.272 311.209 587.793 310.22 588.109 309.315C589.852 304.308 589.37 299.526 586.677 295.1C584.609 291.702 581.948 289.78 581.921 289.761C581.143 289.205 580.959 288.122 581.513 287.343C582.067 286.563 583.146 286.377 583.927 286.929C584.056 287.02 587.118 289.209 589.565 293.172C591.852 296.875 594.024 302.88 591.386 310.456C591.136 311.172 590.465 311.621 589.747 311.621Z" fill="#2E234F"/>
<path d="M576.124 266.707C576.124 266.707 596.982 264.366 599.473 272.672C601.963 280.978 602.378 289.487 595.322 291.355C588.265 293.223 574.049 293.269 574.049 293.269L576.124 266.707Z" fill="#FF6483"/>
<path d="M569.276 266.707C569.276 266.707 590.134 264.366 592.624 272.672C595.115 280.978 595.53 289.487 588.473 291.355C581.417 293.223 567.2 293.269 567.2 293.269L569.276 266.707Z" fill="#E24B70"/>
<path d="M583.484 380.387C582.526 380.387 581.749 379.61 581.749 378.652C581.749 377.693 582.526 376.916 583.484 376.916C587.951 376.916 591.163 375.105 593.029 371.532C594.504 368.707 594.602 365.785 594.602 365.756C594.628 364.815 595.4 364.066 596.336 364.066C596.351 364.066 596.365 364.067 596.38 364.067C597.336 364.091 598.093 364.881 598.072 365.837C598.068 365.985 597.971 369.488 596.169 373.015C594.45 376.378 590.854 380.387 583.484 380.387Z" fill="#2E234F"/>
<path d="M613.358 298.615C613.358 298.615 593.124 299.282 582.286 302.401C571.447 305.52 555.925 367.069 555.925 367.069H593.321L609.726 343.876L613.358 298.615Z" fill="#E24B70"/>
<path d="M613.357 298.615C608.615 298.272 604.593 302.065 604.667 306.819C604.916 322.791 604.064 355.207 593.321 359.847C581.571 364.922 572.333 360.972 572.333 360.972V369.52C572.333 369.52 600.233 373.422 606.059 365.798C613.011 356.698 621.622 324.8 620.872 306.364C620.704 302.246 617.468 298.913 613.357 298.615Z" fill="#FF6483"/>
<path d="M500.789 424.332L494.904 427.331L498.397 432.115L508.732 428.888C508.732 428.888 507.709 426.798 507.761 426.045C507.813 425.293 500.789 424.332 500.789 424.332Z" fill="#FFC5CD"/>
<path d="M510.814 406.041L507.644 427.742L500.403 426.946L501.092 406.041H510.814Z" fill="#FFC5CD"/>
<path d="M510.309 433.142L483.165 433.157C484.491 430.874 488.343 430.099 490.279 429.632C492.792 429.025 496.489 424.865 496.489 424.865C498.307 425.472 498.597 428.506 498.597 428.506C498.597 428.506 499.088 429.111 502.843 429.169C506.597 429.227 507.116 427.274 508.388 427.235C509.204 427.208 510.309 433.142 510.309 433.142Z" fill="#5777FA"/>
<path d="M510.309 433.157V435.043C510.309 435.371 510.042 435.638 509.713 435.638H482.769C482.597 434.654 482.767 433.838 483.165 433.157H510.309ZM492.177 431.362C492.089 431.362 492.003 431.325 491.942 431.253L490.261 429.252C490.153 429.123 490.169 428.93 490.299 428.821C490.428 428.712 490.622 428.729 490.73 428.858L492.411 430.859C492.52 430.989 492.503 431.182 492.374 431.291C492.316 431.339 492.246 431.362 492.177 431.362ZM494.298 430.484C494.211 430.484 494.124 430.447 494.064 430.375L492.383 428.374C492.274 428.245 492.291 428.051 492.42 427.943C492.55 427.834 492.743 427.851 492.852 427.98L494.533 429.981C494.641 430.111 494.625 430.304 494.495 430.413C494.438 430.461 494.368 430.484 494.298 430.484Z" fill="#2E234F"/>
<path d="M564.41 347.316L508.732 357.892C503.704 358.667 500.403 360.635 498.989 371.71C498.989 371.71 494.141 414.781 494.604 417.084C495.067 419.386 512.921 421.714 514.609 420.55C516.298 419.386 519.746 378.505 519.746 378.505L584.16 370.807L564.41 347.316Z" fill="#1F1938"/>
<path d="M584.575 435.637H546.337C544.026 435.637 542.152 433.763 542.152 431.452C542.152 429.141 544.026 427.268 546.337 427.268H584.575C586.886 427.268 588.76 429.141 588.76 431.452C588.76 433.763 586.886 435.637 584.575 435.637Z" fill="#2E234F"/>
<path d="M565.455 434.668C563.144 434.668 561.271 432.795 561.271 430.484V383.741C561.271 381.43 563.144 379.557 565.455 379.557C567.766 379.557 569.64 381.43 569.64 383.741V430.484C569.64 432.795 567.766 434.668 565.455 434.668Z" fill="#2E234F"/>
<path d="M585.598 389.291H545.313C540.542 389.291 536.674 385.423 536.674 380.651C536.674 375.88 540.542 372.012 545.313 372.012H585.598C590.37 372.012 594.238 375.88 594.238 380.651C594.238 385.423 590.37 389.291 585.598 389.291Z" fill="#FF6483"/>
<path d="M532.015 415.93L525.613 420.089L520.802 402.209L530.068 401.09L532.015 415.93Z" fill="#FFC5CD"/>
<path d="M525.675 417.722L521.634 422.946L526.834 425.781L534.803 418.452C534.803 418.452 532.129 416.108 532.014 415.931C531.9 415.755 525.675 417.722 525.675 417.722Z" fill="#FFC5CD"/>
<path d="M538.045 421.627L513.504 433.225C513.728 430.594 516.881 428.25 518.433 427.001C520.446 425.38 522.014 420.04 522.014 420.04C523.918 419.813 525.475 422.433 525.475 422.433C525.475 422.433 526.177 422.77 529.597 421.22C533.017 419.67 532.653 417.682 533.786 417.104C534.513 416.732 538.045 421.627 538.045 421.627Z" fill="#5777FA"/>
<path d="M538.052 421.639L538.856 423.344C538.997 423.641 538.869 423.997 538.572 424.137L514.205 435.637C513.63 434.82 513.435 434.01 513.504 433.224L538.052 421.639ZM520.888 427.755C520.809 427.792 520.715 427.796 520.629 427.756L518.256 426.664C518.102 426.593 518.035 426.411 518.105 426.258C518.176 426.104 518.358 426.037 518.511 426.108L520.885 427.2C521.039 427.271 521.106 427.452 521.036 427.606C521.004 427.674 520.951 427.725 520.888 427.755ZM522.432 426.055C522.353 426.092 522.259 426.096 522.173 426.057L519.799 424.964C519.646 424.894 519.578 424.712 519.649 424.558C519.72 424.404 519.902 424.337 520.055 424.408L522.429 425.5C522.583 425.571 522.65 425.753 522.579 425.906C522.548 425.974 522.495 426.026 522.432 426.055ZM569.85 346.202L515.322 355.129C510.521 355.915 507.241 360.407 507.954 365.218C510.242 380.659 514.96 411.445 516.423 412.998C518.38 415.075 536.266 409.78 537.258 407.971C538.251 406.163 529.059 373.768 530.695 372.255C532.331 370.743 570.564 377.913 583.999 373.866C591.476 371.614 593.321 365.846 593.321 359.847C593.321 353.848 590.164 343.66 569.85 346.202Z" fill="#2E234F"/>
<path d="M518.689 328.856L518.419 334.233C518.419 334.233 517.476 334.178 516.31 334.143C514.816 334.096 512.955 334.082 512.244 334.253C512.063 334.298 511.826 334.37 511.55 334.462C509.903 335.007 506.869 336.25 505.951 336.376C504.879 336.523 503.289 336.729 503.289 336.729H503.275C502.499 336.729 502.311 335.637 503.052 335.384L503.407 335.264C503.407 335.264 507.243 333.949 506.716 332.779C506.188 331.608 501.793 331.43 500.946 331.765C500.098 332.098 496.865 334.184 496.865 334.184C496.732 334.29 496.591 334.335 496.455 334.335C495.957 334.335 495.546 333.718 495.948 333.239L495.955 333.231L499.178 330.479L495.748 330.904H495.716C494.813 330.904 494.65 329.591 495.548 329.385L496.044 329.27C496.044 329.27 502.291 327.507 505.534 328.052C505.912 328.115 506.288 328.18 506.661 328.248C509.484 328.75 512.116 329.285 513.865 329.154C515.078 329.062 516.617 328.972 517.625 328.915C518.262 328.879 518.689 328.856 518.689 328.856Z" fill="#F7B2BE"/>
<path d="M503.628 329.22C503.611 329.215 503.594 329.212 503.576 329.212C501.608 329.175 499.532 330.116 499.445 330.156C499.349 330.2 499.306 330.314 499.35 330.411C499.395 330.507 499.508 330.549 499.605 330.505C499.625 330.495 501.69 329.56 503.569 329.595C503.675 329.597 503.762 329.513 503.764 329.407C503.766 329.319 503.708 329.244 503.628 329.22Z" fill="#D6798E"/>
<path d="M552.275 311.191L542.193 326.841L538.002 333.349C536.681 335.399 534.35 336.568 531.917 336.405L516.311 334.143L515.621 334.043L517.626 328.915V328.913C517.626 328.913 526.707 327.215 529.38 327.295L529.635 326.841L541.168 306.369L552.275 311.191Z" fill="#FFC5CD"/>
<path d="M550.161 292.503C550.161 292.503 542.75 297.175 539.201 305.52C537.194 310.239 532.216 314.598 532.623 315.718C533.03 316.837 535.008 319.434 536.983 321.056C539.025 322.735 543.586 324.505 544.705 324.2C545.825 323.894 555.269 307.473 555.863 303.605C556.457 299.737 552.639 290.699 550.161 292.503Z" fill="#435BDB"/>
<path d="M594.185 362.119C592.522 364.103 583.299 363.999 573.241 362.915C560.238 361.516 545.021 352.884 544.854 350.296C544.641 347.003 552.761 342.461 550.879 333.05C550.499 331.15 549.928 328.727 549.289 326.022C546.77 315.342 543.212 300.291 546.317 295.837C548.137 293.224 555.441 288.409 565.248 287.19C570.267 286.566 574.387 287.454 577.677 288.985C578.361 289.301 579.008 289.646 579.621 290.011H579.623C580.909 290.779 582.04 291.632 583.023 292.504C584.307 293.641 585.338 294.804 586.13 295.837C586.341 296.111 586.559 296.439 586.786 296.823C587.557 298.121 588.419 300.026 589.29 302.341C589.454 302.772 589.617 303.217 589.778 303.676C592.273 310.716 594.72 320.839 595.206 329.562C595.682 338.107 597.996 357.566 594.185 362.119Z" fill="#5777FA"/>
<path d="M516.588 334.586L516.235 334.683C515.133 334.986 514.491 333.462 515.484 332.897C515.49 332.894 515.496 332.89 515.5 332.888C515.924 332.617 517.469 331.523 517.469 331.523L522.901 333.194C522.901 333.194 519.508 333.248 518.76 333.529C518.013 333.81 516.588 334.586 516.588 334.586ZM508.542 330.014L507.143 329.946C506.23 329.902 506.253 328.537 507.167 328.533C507.234 328.533 507.292 328.534 507.341 328.536C508.723 328.603 514.352 328.985 516.422 329.887L511.118 331.051L508.542 330.014Z" fill="#F9A2B5"/>
<path d="M537.714 334.724C537.714 334.724 526.19 334.163 524.699 334.121C523.208 334.08 518.939 332.297 517.398 332.43C515.857 332.563 511.731 333.333 511.731 333.333L511.209 333.432C510.259 333.611 509.881 332.254 510.786 331.916L511.834 331.705L508.482 331.542C507.491 331.478 507.549 330.001 508.542 330.015C508.587 330.016 508.629 330.017 508.667 330.019C510.239 330.095 516.358 329.924 518.249 329.397C520.141 328.871 523.706 328.391 526.01 328.534C528.608 328.697 537.129 328.26 537.129 328.26L537.714 334.724Z" fill="#FFC5CD"/>
<path d="M518.3 330.221C518.289 330.22 518.277 330.221 518.266 330.222C515.895 330.496 512.204 331.439 512.167 331.449C512.056 331.477 511.989 331.59 512.017 331.701C512.046 331.812 512.159 331.879 512.27 331.851C512.307 331.841 515.971 330.905 518.313 330.634C518.427 330.621 518.509 330.518 518.496 330.404C518.484 330.302 518.399 330.226 518.3 330.221Z" fill="#D6798E"/>
<path d="M594.185 362.119C592.521 364.103 583.299 363.999 573.241 362.915C560.238 361.517 544.532 352.87 544.853 350.296C545.415 345.805 552.761 342.461 550.879 333.05L565.842 331.492L583.023 292.504C584.307 293.641 585.338 294.804 586.13 295.837C586.34 296.111 586.559 296.44 586.785 296.823C587.7 298.362 588.743 300.755 589.778 303.676C592.272 310.716 594.72 320.839 595.206 329.562C595.681 338.107 597.996 357.567 594.185 362.119Z" fill="#435BDB"/>
<path d="M532.623 328.535C532.623 328.535 557.926 326.885 561.923 326.651C562.865 321.854 571.447 305.521 571.447 305.521L582.286 312.528L568.96 333.866C567.826 335.681 565.785 336.725 563.649 336.58L532.623 334.479V328.535Z" fill="#FFC5CD"/>
<path d="M589.29 302.341C586.869 309.546 580.415 322.801 578.575 323.715C576.942 324.528 572.633 324.207 569.375 323.023C566.113 321.839 563.066 320.157 563.063 318.489C563.057 315.015 572.984 295.415 577.677 288.984C578.361 289.301 579.008 289.646 579.621 290.011H579.623C580.909 290.779 582.04 291.632 583.023 292.504C584.307 293.641 585.338 294.804 586.13 295.837C586.341 296.111 586.559 296.439 586.786 296.823C587.557 298.121 588.419 300.026 589.29 302.341Z" fill="#5777FA"/>
<path d="M563.861 320.338C563.789 320.338 563.717 320.313 563.659 320.261C562.552 319.286 562.736 318.099 562.866 317.634C563.876 314.032 567.137 306.848 569.58 302.258C569.659 302.108 569.845 302.053 569.994 302.131C570.143 302.211 570.2 302.396 570.12 302.546C567.692 307.108 564.454 314.237 563.456 317.799C563.333 318.238 563.248 319.083 564.064 319.802C564.191 319.914 564.203 320.108 564.091 320.234C564.03 320.303 563.946 320.338 563.861 320.338Z" fill="#435BDB"/>
<path d="M538.662 336.775H484.712C484.145 336.775 483.686 336.316 483.686 335.749C483.686 335.182 484.145 334.723 484.712 334.723H538.662C539.229 334.723 539.688 335.182 539.688 335.749C539.688 336.316 539.229 336.775 538.662 336.775Z" fill="#1F1515"/>
<path d="M514.416 336.775H463.77C462.463 336.775 461.313 335.904 460.947 334.636L453.565 309.049C453.016 307.149 454.427 305.248 456.387 305.248H507.034C508.341 305.248 509.491 306.12 509.856 307.387L517.239 332.974C517.787 334.875 516.376 336.775 514.416 336.775Z" fill="#1F1515"/>
<path d="M486.18 322.576C486.13 323.88 485.052 324.959 483.748 325.008C482.542 325.054 481.515 324.256 481.209 323.158C481.114 322.815 481.382 322.477 481.738 322.477H483.276C483.482 322.477 483.649 322.31 483.649 322.104V320.566C483.649 320.21 483.987 319.942 484.33 320.037C485.428 320.343 486.226 321.37 486.18 322.576Z" fill="white"/>
<path d="M576.099 274.636C578.006 271.334 577.455 267.446 574.869 265.953C572.283 264.459 568.641 265.926 566.734 269.229C564.827 272.532 565.378 276.419 567.964 277.913C570.55 279.406 574.193 277.939 576.099 274.636Z" fill="#2E234F"/>
<path d="M557.374 265.701C559.827 264.242 560.634 261.071 559.175 258.618C557.716 256.165 554.545 255.359 552.092 256.818C549.639 258.276 548.833 261.448 550.292 263.901C551.75 266.354 554.921 267.16 557.374 265.701Z" fill="#2E234F"/>
<path d="M570.328 286.796C570.099 289.752 564.11 295.59 561.336 294.604C558.564 293.621 557.894 291.118 558.425 289.071C558.466 288.913 558.498 288.728 558.523 288.517C558.809 286.023 557.97 280.277 557.97 280.277C557.97 280.277 559.221 278.792 560.905 276.957C564.122 273.448 569.239 268.367 569.886 270.209C570.872 273.013 570.554 283.841 570.328 286.796Z" fill="#FFC5CD"/>
<path d="M567.6 279.839C567.6 279.839 565.209 286.974 558.523 288.517C558.809 286.022 557.97 280.276 557.97 280.276C557.97 280.276 559.221 278.792 560.905 276.957L567.6 279.839Z" fill="#D6798E"/>
<path d="M570.436 276.691C568.892 279.797 559.76 285.86 556.988 285.352C554.217 284.843 551.525 278.913 551.096 277.546C550.666 276.18 551.139 267.868 551.096 266.386C551.096 266.369 551.096 266.351 551.094 266.335C551.086 265.994 551.086 265.663 551.094 265.341C551.156 262.484 551.816 260.299 552.48 258.804C553.152 257.291 554.632 256.292 556.287 256.242C565.688 255.958 569.091 260.155 571.197 264.134C573.472 268.433 570.436 276.691 570.436 276.691Z" fill="#FFC5CD"/>
<path d="M559.901 272.354C560.36 272.354 560.732 271.555 560.732 270.57C560.732 269.586 560.36 268.787 559.901 268.787C559.442 268.787 559.07 269.586 559.07 270.57C559.07 271.555 559.442 272.354 559.901 272.354Z" fill="#2E234F"/>
<path d="M552.275 270.549C552.275 271.412 551.928 272.111 551.5 272.111C551.072 272.111 550.726 271.412 550.726 270.549C550.726 269.687 551.072 268.987 551.5 268.987C551.928 268.987 552.275 269.687 552.275 270.549ZM562.285 267.015C562.359 267.132 562.236 267.272 562.11 267.215C561.617 266.99 560.756 266.636 560.183 266.618C559.339 266.592 558.546 266.735 558.455 266.566C558.364 266.397 558.793 265.501 560.3 265.644C561.332 265.742 561.98 266.529 562.285 267.015ZM552.723 266.634C552.603 266.777 551.896 266.491 551.094 266.336C551.086 265.995 551.086 265.664 551.094 265.342C551.1 265.342 551.108 265.344 551.115 265.344C552.617 265.521 552.848 266.489 552.723 266.634Z" fill="#2E234F"/>
<path d="M553.181 276.774C552.856 276.774 552.571 276.69 552.387 276.468C551.901 275.881 552.622 273.412 553.614 270.245C553.865 269.444 554.082 268.752 554.167 268.386C554.192 268.276 554.302 268.208 554.412 268.234C554.522 268.259 554.59 268.369 554.565 268.479C554.476 268.86 554.257 269.558 554.004 270.367C553.457 272.112 552.319 275.745 552.701 276.208C553.086 276.674 554.645 276.026 555.34 275.639C555.438 275.584 555.563 275.619 555.617 275.718C555.672 275.816 555.637 275.941 555.539 275.996C555.355 276.098 554.105 276.774 553.181 276.774Z" fill="#D6798E"/>
<path d="M557.556 280.276C557.148 280.276 556.753 280.143 556.375 279.877C555.721 279.418 555.311 278.696 555.166 278.407C555.128 278.337 555.11 278.291 555.11 278.291C555.088 278.238 555.09 278.177 555.115 278.126C555.14 278.074 555.185 278.034 555.24 278.018L560.386 276.486C560.447 276.469 560.513 276.481 560.564 276.519C560.615 276.557 560.646 276.617 560.646 276.681C560.647 276.721 560.649 277.673 560.145 278.604C559.689 279.444 558.975 279.987 558.024 280.218C557.866 280.257 557.71 280.276 557.556 280.276ZM555.592 278.339C555.749 278.625 556.102 279.186 556.609 279.543C557.03 279.839 557.474 279.932 557.927 279.822C558.762 279.619 559.387 279.144 559.786 278.409C560.084 277.859 560.185 277.289 560.22 276.961L555.592 278.339Z" fill="#EA5F61"/>
<path d="M560.441 276.682C560.441 276.682 560.449 277.61 559.964 278.506C559.618 279.145 559.015 279.767 557.975 280.019C557.395 280.161 556.895 279.993 556.492 279.709C555.874 279.276 555.478 278.574 555.347 278.314C555.314 278.251 555.298 278.213 555.298 278.213L560.408 276.691L560.441 276.682Z" fill="#911E26"/>
<path d="M560.408 276.691C559.887 277.127 558.423 278.292 557.36 278.57C556.466 278.803 555.727 278.52 555.347 278.314C555.314 278.251 555.298 278.213 555.298 278.213L560.408 276.691Z" fill="white"/>
<path d="M559.965 278.506C559.618 279.145 559.015 279.767 557.976 280.02C557.395 280.162 556.895 279.993 556.492 279.709C556.882 279.375 557.546 278.876 558.23 278.699C558.82 278.547 559.488 278.509 559.965 278.506Z" fill="#CB4B51"/>
<path d="M556.848 263.983C561.131 263.205 563.971 259.102 563.193 254.82C562.415 250.538 558.312 247.697 554.03 248.476C549.748 249.254 546.907 253.356 547.686 257.638C548.464 261.921 552.566 264.761 556.848 263.983Z" fill="#2E234F"/>
<path d="M569.414 264.073C572.185 261.998 572.75 258.068 570.675 255.297C568.6 252.525 564.67 251.96 561.899 254.035C559.127 256.111 558.562 260.04 560.637 262.812C562.713 265.583 566.642 266.148 569.414 264.073Z" fill="#2E234F"/>
<path d="M564.415 260.323C567.793 260.241 570.465 257.437 570.383 254.059C570.301 250.681 567.496 248.008 564.118 248.09C560.74 248.172 558.068 250.977 558.15 254.355C558.232 257.733 561.037 260.405 564.415 260.323Z" fill="#2E234F"/>
<path d="M574.15 262.345C576.45 261.586 577.698 259.107 576.939 256.808C576.18 254.508 573.701 253.26 571.402 254.019C569.103 254.777 567.854 257.256 568.613 259.556C569.372 261.855 571.851 263.103 574.15 262.345Z" fill="#2E234F"/>
<path d="M572.564 255.303C571.958 256.507 570.491 256.991 569.288 256.385C568.085 255.779 567.601 254.312 568.207 253.108C568.813 251.905 570.28 251.421 571.483 252.027C572.686 252.633 573.171 254.1 572.564 255.303Z" fill="#2E234F"/>
<path d="M576.855 268.751C579.424 266.503 580.079 263.05 578.319 261.038C576.559 259.026 573.05 259.218 570.481 261.465C567.912 263.713 567.256 267.166 569.016 269.178C570.776 271.189 574.286 270.998 576.855 268.751Z" fill="#2E234F"/>
<path d="M572.771 267.849C574.486 268.879 573.675 272.893 571.331 274.084C570.655 274.428 568.893 271.743 569.275 270.196C569.658 268.649 570.744 266.63 572.771 267.849Z" fill="#FFC5CD"/>
<path d="M568.293 264.742C568.293 264.742 564.694 269.819 569.406 271.933C569.406 271.933 569.156 269.293 570.185 268.227L568.293 264.742Z" fill="#2E234F"/>
<path d="M570.185 271.03C570.176 271.03 570.168 271.03 570.159 271.029C570.047 271.014 569.968 270.912 569.982 270.8C570.143 269.539 570.504 268.71 571.055 268.336C571.457 268.062 571.806 268.141 571.845 268.151C571.954 268.179 572.02 268.29 571.992 268.399C571.964 268.507 571.855 268.573 571.746 268.547C571.733 268.544 571.524 268.504 571.271 268.683C570.967 268.898 570.566 269.448 570.387 270.852C570.374 270.955 570.286 271.03 570.185 271.03Z" fill="#D6798E"/>
<path d="M557.91 276.497C555.802 276.497 554.086 273.944 554.086 270.806C554.086 267.668 555.802 265.115 557.91 265.115C560.019 265.115 561.735 267.668 561.735 270.806C561.735 273.944 560.019 276.497 557.91 276.497ZM557.91 265.523C556.027 265.523 554.494 267.893 554.494 270.806C554.494 273.719 556.027 276.089 557.91 276.089C559.794 276.089 561.327 273.719 561.327 270.806C561.327 267.893 559.794 265.523 557.91 265.523ZM550.145 274.625C548.465 274.625 547.098 272.386 547.098 269.635C547.098 266.883 548.465 264.645 550.145 264.645C551.825 264.645 553.192 266.883 553.192 269.635C553.192 272.386 551.825 274.625 550.145 274.625ZM550.145 265.053C548.69 265.053 547.506 267.108 547.506 269.635C547.506 272.161 548.69 274.217 550.145 274.217C551.6 274.217 552.783 272.161 552.783 269.635C552.783 267.108 551.6 265.053 550.145 265.053Z" fill="#2E234F"/>
<path d="M554.289 270.623C554.258 270.623 554.226 270.615 554.196 270.6C554.183 270.594 553.57 270.292 553.037 270.523C552.934 270.568 552.814 270.521 552.769 270.417C552.724 270.314 552.771 270.193 552.875 270.149C553.589 269.838 554.35 270.22 554.382 270.237C554.483 270.288 554.522 270.411 554.471 270.512C554.434 270.582 554.363 270.623 554.289 270.623ZM569.222 271.01H561.53C561.417 271.01 561.326 270.918 561.326 270.806C561.326 270.693 561.417 270.601 561.53 270.601H569.222C569.335 270.601 569.426 270.693 569.426 270.806C569.426 270.918 569.335 271.01 569.222 271.01Z" fill="#2E234F"/>
<path d="M562.69 279.305C562.715 279.299 562.739 279.289 562.761 279.275C562.777 279.264 564.426 278.228 567.137 276.503C569.94 274.719 570.454 271.908 570.475 271.789C570.498 271.653 570.407 271.523 570.27 271.5C570.134 271.476 570.004 271.568 569.981 271.704C569.976 271.731 569.477 274.42 566.868 276.08C564.158 277.804 562.511 278.84 562.494 278.85C562.377 278.924 562.342 279.079 562.415 279.196C562.475 279.29 562.588 279.332 562.69 279.305Z" fill="#2E234F"/>
<path d="M563.003 279.881L560.081 281.199C559.578 281.426 558.987 281.203 558.76 280.7C558.533 280.197 558.756 279.605 559.259 279.378L562.181 278.059C562.684 277.832 563.276 278.056 563.503 278.559C563.73 279.062 563.506 279.654 563.003 279.881Z" fill="#5777FA"/>
<path d="M571.754 274.351C573.246 274.328 574.43 272.62 574.399 270.535C574.368 268.45 573.134 266.778 571.642 266.8C570.151 266.822 568.966 268.53 568.997 270.615C569.028 272.7 570.263 274.373 571.754 274.351Z" fill="#5777FA"/>
<path d="M426.23 435.637C426.168 435.637 426.106 435.632 426.043 435.621C425.431 435.519 425.019 434.94 425.121 434.328L440.948 339.92C441.051 339.308 441.63 338.897 442.241 338.998C442.853 339.101 443.265 339.679 443.163 340.291L427.336 434.7C427.244 435.248 426.768 435.637 426.23 435.637ZM623.331 435.637C622.793 435.637 622.317 435.248 622.225 434.7L606.398 340.291C606.295 339.679 606.708 339.101 607.32 338.998C607.931 338.896 608.51 339.308 608.612 339.92L624.44 434.328C624.542 434.94 624.13 435.519 623.518 435.621C623.455 435.632 623.393 435.637 623.331 435.637Z" fill="#2E234F"/>
<path d="M626.565 341.776H422.996C421.615 341.776 420.495 340.657 420.495 339.276C420.495 337.895 421.615 336.775 422.996 336.775H626.565C627.946 336.775 629.066 337.895 629.066 339.276C629.066 340.657 627.946 341.776 626.565 341.776Z" fill="#2E234F"/>
<path d="M474.169 191.699V277.705C474.169 280.484 471.916 282.738 469.136 282.738H358.133C355.354 282.738 353.101 280.484 353.101 277.705V191.699H474.169Z" fill="#514593"/>
<path d="M471.485 187.59H355.785C354.302 187.59 353.101 188.792 353.101 190.274V191.699H474.169V190.274C474.169 188.792 472.967 187.59 471.485 187.59ZM432.214 265.399C431.487 264.547 430.917 263.606 430.503 262.576C427.759 255.736 433.363 247.929 433.603 247.6C434.296 246.648 435.63 246.439 436.581 247.133C437.532 247.827 437.741 249.158 437.05 250.109C437.014 250.159 435.848 251.793 434.971 254.018C434.222 255.918 433.526 258.671 434.465 260.998C435.554 263.699 438.713 265.535 443.853 266.458C445.012 266.666 445.782 267.774 445.575 268.933C445.366 270.092 444.258 270.863 443.099 270.655C438.067 269.751 434.421 267.988 432.214 265.399Z" fill="#2E234F"/>
<path d="M441.022 273.117C440.566 272.582 440.384 271.833 440.604 271.111L442.38 265.288C442.546 264.743 442.924 264.287 443.429 264.022C443.933 263.757 444.523 263.705 445.066 263.878L452.516 266.25C453.638 266.608 454.257 267.807 453.9 268.929C453.543 270.051 452.344 270.671 451.222 270.313L445.829 268.596L445.298 270.339L451.202 272.214C452.324 272.571 452.945 273.77 452.588 274.892C452.232 276.014 451.033 276.635 449.911 276.278L441.998 273.765C441.604 273.64 441.272 273.41 441.022 273.117ZM415.193 199.159C415.506 199.159 415.788 198.941 415.856 198.623C416.697 194.699 415.158 189.566 415.092 189.35C414.984 188.991 414.604 188.79 414.247 188.898C413.889 189.007 413.686 189.386 413.795 189.744C413.81 189.794 415.296 194.761 414.53 198.339C414.451 198.705 414.684 199.065 415.051 199.144C415.099 199.154 415.146 199.159 415.193 199.159Z" fill="#2E234F"/>
<path d="M414.786 192.514C416.509 192.514 417.905 191.117 417.905 189.395C417.905 187.672 416.509 186.275 414.786 186.275C413.063 186.275 411.667 187.672 411.667 189.395C411.667 191.117 413.063 192.514 414.786 192.514Z" fill="url(#paint1_linear_13154_13712)"/>
<path d="M417.035 191.553C416.468 192.145 415.67 192.513 414.786 192.513C413.063 192.513 411.666 191.116 411.666 189.394C411.666 188.376 412.154 187.471 412.91 186.9C412.369 187.46 412.037 188.223 412.037 189.064C412.037 190.787 413.434 192.183 415.155 192.183C415.861 192.183 416.513 191.949 417.035 191.553Z" fill="url(#paint2_linear_13154_13712)"/>
<path d="M452.319 222.523C452.406 216.624 449.056 211.792 444.836 211.729C440.617 211.667 437.125 216.398 437.037 222.296C436.95 228.195 440.3 233.027 444.52 233.09C448.739 233.153 452.231 228.422 452.319 222.523Z" fill="url(#paint3_linear_13154_13712)"/>
<path d="M380.64 208.821V231.217C380.64 234.701 383.465 237.526 386.949 237.526H441.75C445.337 237.526 448.247 234.618 448.247 231.029V208.633C448.247 201.991 442.862 196.607 436.221 196.607H392.853C391.791 196.607 390.762 196.742 389.78 196.998C384.522 198.361 380.64 203.138 380.64 208.821Z" fill="white"/>
<path d="M380.64 208.821V231.217C380.64 234.702 383.465 237.527 386.949 237.527H394.143C396.679 236.641 398.498 234.228 398.498 231.39V208.562C398.498 203.068 394.814 198.434 389.78 196.998C384.522 198.361 380.64 203.138 380.64 208.821Z" fill="#E1E8FF"/>
<path d="M392.006 222.523C392.094 216.624 388.744 211.792 384.524 211.729C380.304 211.667 376.812 216.398 376.725 222.296C376.637 228.195 379.987 233.027 384.207 233.09C388.427 233.153 391.919 228.422 392.006 222.523Z" fill="url(#paint4_linear_13154_13712)"/>
<path d="M385.225 222.483C385.282 218.661 383.111 215.53 380.377 215.49C377.643 215.449 375.381 218.515 375.324 222.336C375.268 226.158 377.438 229.289 380.172 229.329C382.906 229.37 385.168 226.305 385.225 222.483Z" fill="#2E234F"/>
<path d="M436.897 227.851H409.614C406.004 227.851 403.077 224.924 403.077 221.314V216.323C403.077 212.799 405.993 209.974 409.515 210.085L437.074 210.955C440.237 211.051 442.751 213.643 442.751 216.807V221.997C442.751 225.23 440.13 227.851 436.897 227.851Z" fill="#2E234F"/>
<path d="M414.019 221.216C415.659 221.216 416.988 219.965 416.988 218.422C416.988 216.878 415.659 215.627 414.019 215.627C412.379 215.627 411.05 216.878 411.05 218.422C411.05 219.965 412.379 221.216 414.019 221.216Z" fill="url(#paint5_linear_13154_13712)"/>
<path d="M432.61 221.705C434.212 221.705 435.51 220.434 435.51 218.866C435.51 217.298 434.212 216.027 432.61 216.027C431.009 216.027 429.711 217.298 429.711 218.866C429.711 220.434 431.009 221.705 432.61 221.705Z" fill="url(#paint6_linear_13154_13712)"/>
<path d="M402.743 236.155C402.689 236.155 402.635 236.147 402.581 236.13C402.542 236.117 398.59 234.859 392.081 232.748C385.351 230.566 382.792 225.044 382.686 224.81C382.565 224.541 382.684 224.225 382.953 224.104C383.222 223.983 383.537 224.102 383.659 224.37C383.683 224.423 386.145 229.701 392.411 231.733C398.916 233.843 402.865 235.1 402.905 235.112C403.186 235.202 403.341 235.502 403.251 235.783C403.179 236.01 402.969 236.155 402.743 236.155Z" fill="#2E234F"/>
<path d="M401.843 237.412L409.693 238.766C410.541 238.913 411.347 238.344 411.493 237.496L411.687 236.373C411.834 235.525 411.265 234.719 410.417 234.572L402.567 233.218C401.719 233.072 400.913 233.641 400.767 234.489L400.573 235.612C400.426 236.46 400.995 237.266 401.843 237.412Z" fill="#2E234F"/>
<path d="M439.117 249.577C438.819 252.716 438.168 258.04 436.817 263.862C436.488 265.282 436.116 266.734 435.698 268.191C434.224 273.329 432.171 278.537 429.313 282.738H398.422C392.896 275.101 390.258 264.096 389.013 255.988C388.774 254.447 388.589 253.012 388.442 251.724C388.315 250.628 388.219 249.638 388.146 248.782C388.139 248.709 388.133 248.633 388.131 248.56C388.127 248.493 388.125 248.427 388.123 248.36V248.34C388.115 247.899 388.154 247.464 388.237 247.043C388.256 246.945 388.276 246.847 388.301 246.751C388.348 246.56 388.403 246.37 388.468 246.184C388.499 246.09 388.533 245.998 388.57 245.908C389.191 244.341 390.436 243.044 392.079 242.387C392.436 242.244 392.822 242.103 393.241 241.962C393.308 241.94 393.377 241.918 393.445 241.895C393.514 241.873 393.586 241.85 393.657 241.83C393.704 241.815 393.751 241.801 393.798 241.785C393.804 241.783 393.812 241.781 393.82 241.779C394.037 241.711 394.261 241.646 394.496 241.581C394.619 241.546 394.743 241.511 394.87 241.477C394.986 241.448 395.106 241.415 395.227 241.385C395.231 241.385 395.235 241.383 395.237 241.383C395.423 241.336 395.613 241.289 395.809 241.244C395.874 241.228 395.941 241.211 396.009 241.197C396.135 241.168 396.264 241.14 396.395 241.109C396.49 241.089 396.586 241.068 396.684 241.048C396.807 241.023 396.929 240.997 397.056 240.972C397.129 240.958 397.201 240.944 397.276 240.93C397.423 240.901 397.572 240.872 397.725 240.844C397.877 240.817 398.032 240.789 398.189 240.762C398.287 240.744 398.385 240.727 398.485 240.711C398.615 240.691 398.748 240.668 398.881 240.646C399.544 240.542 400.249 240.446 400.996 240.358C401.087 240.346 401.179 240.336 401.271 240.325C401.365 240.315 401.459 240.305 401.553 240.293C401.657 240.282 401.763 240.27 401.869 240.26C402.531 240.191 403.221 240.129 403.943 240.076C404.023 240.07 404.103 240.064 404.182 240.058C404.737 240.019 405.313 239.984 405.907 239.954C406.121 239.942 406.338 239.931 406.556 239.923C407.687 239.874 408.887 239.844 410.159 239.833C410.31 239.831 410.463 239.831 410.618 239.831C411.874 239.825 413.199 239.842 414.597 239.878C426.061 240.184 432.22 241.734 435.524 243.275C437.015 243.969 438.129 245.2 438.705 246.664C439.064 247.568 439.213 248.566 439.117 249.577Z" fill="white"/>
<path d="M393.188 254.425C394.625 263.34 397.727 275.375 404.364 282.736H398.422C392.896 275.1 390.258 264.095 389.013 255.987C388.774 254.446 388.589 253.011 388.442 251.723C388.315 250.626 388.219 249.636 388.146 248.781C388.133 248.632 388.125 248.485 388.123 248.338C388.116 247.897 388.155 247.463 388.237 247.042C388.256 246.944 388.276 246.846 388.301 246.75C388.348 246.558 388.403 246.368 388.468 246.182C388.499 246.088 388.533 245.997 388.57 245.907C389.191 244.339 390.436 243.043 392.079 242.386C392.151 242.357 392.224 242.328 392.3 242.298C392.383 242.267 392.469 242.234 392.555 242.202C392.675 242.159 392.8 242.114 392.926 242.069C393.026 242.034 393.128 242 393.233 241.963C393.237 241.963 393.239 241.963 393.241 241.961C393.377 241.914 393.516 241.869 393.659 241.824C393.657 241.826 393.657 241.826 393.657 241.828C393.218 242.345 392.871 242.931 392.62 243.561C392.265 244.453 392.11 245.433 392.198 246.438C392.212 246.607 392.228 246.783 392.245 246.964C392.343 248.038 392.473 249.293 392.649 250.683C392.796 251.845 392.973 253.1 393.188 254.425Z" fill="#E1E8FF"/>
<path d="M388.569 245.906C394.572 247.74 403.525 250.012 414.379 250.012C423.658 250.012 432.717 248.06 438.705 246.663C438.13 245.198 437.015 243.967 435.524 243.272C432.22 241.732 426.061 240.183 414.596 239.877C402.396 239.549 395.708 240.937 392.079 242.386C390.435 243.042 389.19 244.338 388.569 245.906Z" fill="#BECAEA"/>
<path d="M418.238 272.254C421.869 272.254 424.813 269.371 424.813 265.815C424.813 262.26 421.869 259.377 418.238 259.377C414.606 259.377 411.662 262.26 411.662 265.815C411.662 269.371 414.606 272.254 418.238 272.254Z" fill="url(#paint7_linear_13154_13712)"/>
<path d="M411.661 265.816C411.661 269.371 414.607 272.254 418.238 272.254C420.289 272.254 422.122 271.335 423.329 269.892C422.179 270.858 420.685 271.441 419.052 271.441C415.42 271.441 412.475 268.558 412.475 265.002C412.475 263.45 413.036 262.029 413.967 260.92C412.556 262.1 411.661 263.855 411.661 265.816Z" fill="url(#paint8_linear_13154_13712)"/>
<path d="M372.188 240.056C371.984 240.383 371.865 240.769 371.865 241.184C371.862 247.979 373.786 252.632 377.585 255.012C383.831 258.924 392.507 254.792 392.873 254.614C393.932 254.1 394.374 252.825 393.86 251.766C393.346 250.707 392.073 250.265 391.014 250.777C390.969 250.799 389.151 251.66 386.798 252.131C384.796 252.532 381.963 252.729 379.839 251.392C377.375 249.842 376.127 246.408 376.129 241.186C376.13 240.008 375.176 239.053 373.998 239.053C373.235 239.052 372.565 239.453 372.188 240.056Z" fill="#2E234F"/>
<path d="M367.842 232.077C367.589 232.482 367.469 232.973 367.536 233.482L368.608 241.715C368.759 242.873 369.813 243.694 370.973 243.557L377.018 242.841C377.584 242.774 378.099 242.483 378.45 242.033C378.799 241.584 378.955 241.013 378.881 240.447L377.866 232.695C377.713 231.528 376.643 230.705 375.475 230.858C374.308 231.011 373.485 232.081 373.638 233.249L374.373 238.861L372.564 239.075L371.764 232.932C371.612 231.764 370.542 230.941 369.374 231.093C368.717 231.178 368.168 231.556 367.842 232.077Z" fill="#2E234F"/>
<path d="M504.915 216.385C505.955 207.088 495.898 198.332 482.452 196.829C469.007 195.325 457.265 201.643 456.225 210.941C455.186 220.238 465.242 228.994 478.688 230.498C492.133 232.001 503.876 225.683 504.915 216.385Z" fill="#FF6483"/>
<path d="M454.514 229.603L461.13 219.713L467.577 226.142L454.514 229.603Z" fill="#FF6483"/>
<path d="M466.466 209.931C465.91 209.931 465.455 209.486 465.446 208.929C465.435 208.365 465.884 207.9 466.448 207.89L489.66 207.473C490.225 207.468 490.689 207.911 490.699 208.475C490.709 209.038 490.261 209.504 489.697 209.514L466.484 209.931C466.478 209.931 466.472 209.931 466.466 209.931ZM466.466 214.964C465.909 214.964 465.453 214.517 465.445 213.958C465.437 213.394 465.888 212.931 466.452 212.923L495.946 212.506C496.508 212.495 496.973 212.948 496.981 213.512C496.989 214.076 496.538 214.539 495.975 214.547L466.48 214.964C466.476 214.964 466.471 214.964 466.466 214.964ZM466.466 219.997C465.909 219.997 465.453 219.55 465.445 218.991C465.437 218.427 465.888 217.964 466.452 217.956L495.946 217.539C496.508 217.529 496.973 217.981 496.981 218.545C496.989 219.109 496.538 219.572 495.975 219.58L466.48 219.997C466.476 219.997 466.471 219.997 466.466 219.997Z" fill="white"/>
</g>
<path d="M141.64 488.834L133.621 504.344V512H127.978V504.344L119.959 488.834H126.361L130.849 498.536L135.304 488.834H141.64ZM152.296 512.264C150.492 512.264 148.864 511.879 147.412 511.109C145.982 510.339 144.849 509.239 144.013 507.809C143.199 506.379 142.792 504.707 142.792 502.793C142.792 500.901 143.21 499.24 144.046 497.81C144.882 496.358 146.026 495.247 147.478 494.477C148.93 493.707 150.558 493.322 152.362 493.322C154.166 493.322 155.794 493.707 157.246 494.477C158.698 495.247 159.842 496.358 160.678 497.81C161.514 499.24 161.932 500.901 161.932 502.793C161.932 504.685 161.503 506.357 160.645 507.809C159.809 509.239 158.654 510.339 157.18 511.109C155.728 511.879 154.1 512.264 152.296 512.264ZM152.296 507.38C153.374 507.38 154.287 506.984 155.035 506.192C155.805 505.4 156.19 504.267 156.19 502.793C156.19 501.319 155.816 500.186 155.068 499.394C154.342 498.602 153.44 498.206 152.362 498.206C151.262 498.206 150.349 498.602 149.623 499.394C148.897 500.164 148.534 501.297 148.534 502.793C148.534 504.267 148.886 505.4 149.59 506.192C150.316 506.984 151.218 507.38 152.296 507.38ZM183.108 493.586V512H177.465V509.492C176.893 510.306 176.112 510.966 175.122 511.472C174.154 511.956 173.076 512.198 171.888 512.198C170.48 512.198 169.237 511.89 168.159 511.274C167.081 510.636 166.245 509.723 165.651 508.535C165.057 507.347 164.76 505.95 164.76 504.344V493.586H170.37V503.585C170.37 504.817 170.689 505.774 171.327 506.456C171.965 507.138 172.823 507.479 173.901 507.479C175.001 507.479 175.87 507.138 176.508 506.456C177.146 505.774 177.465 504.817 177.465 503.585V493.586H183.108ZM192.805 496.655C193.465 495.643 194.29 494.851 195.28 494.279C196.27 493.685 197.37 493.388 198.58 493.388V499.361H197.029C195.621 499.361 194.565 499.669 193.861 500.285C193.157 500.879 192.805 501.935 192.805 503.453V512H187.162V493.586H192.805V496.655ZM207.148 502.793C207.148 500.879 207.533 499.207 208.303 497.777C209.095 496.347 210.184 495.247 211.57 494.477C212.978 493.707 214.584 493.322 216.388 493.322C218.698 493.322 220.623 493.927 222.163 495.137C223.725 496.347 224.748 498.052 225.232 500.252H219.226C218.72 498.844 217.741 498.14 216.289 498.14C215.255 498.14 214.43 498.547 213.814 499.361C213.198 500.153 212.89 501.297 212.89 502.793C212.89 504.289 213.198 505.444 213.814 506.258C214.43 507.05 215.255 507.446 216.289 507.446C217.741 507.446 218.72 506.742 219.226 505.334H225.232C224.748 507.49 223.725 509.184 222.163 510.416C220.601 511.648 218.676 512.264 216.388 512.264C214.584 512.264 212.978 511.879 211.57 511.109C210.184 510.339 209.095 509.239 208.303 507.809C207.533 506.379 207.148 504.707 207.148 502.793ZM239.57 493.388C241.682 493.388 243.376 494.092 244.652 495.5C245.928 496.886 246.566 498.8 246.566 501.242V512H240.956V502.001C240.956 500.769 240.637 499.812 239.999 499.13C239.361 498.448 238.503 498.107 237.425 498.107C236.347 498.107 235.489 498.448 234.851 499.13C234.213 499.812 233.894 500.769 233.894 502.001V512H228.251V487.58H233.894V496.061C234.466 495.247 235.247 494.598 236.237 494.114C237.227 493.63 238.338 493.388 239.57 493.388ZM249.365 502.76C249.365 500.868 249.717 499.207 250.421 497.777C251.147 496.347 252.126 495.247 253.358 494.477C254.59 493.707 255.965 493.322 257.483 493.322C258.781 493.322 259.914 493.586 260.882 494.114C261.872 494.642 262.631 495.335 263.159 496.193V493.586H268.802V512H263.159V509.393C262.609 510.251 261.839 510.944 260.849 511.472C259.881 512 258.748 512.264 257.45 512.264C255.954 512.264 254.59 511.879 253.358 511.109C252.126 510.317 251.147 509.206 250.421 507.776C249.717 506.324 249.365 504.652 249.365 502.76ZM263.159 502.793C263.159 501.385 262.763 500.274 261.971 499.46C261.201 498.646 260.255 498.239 259.133 498.239C258.011 498.239 257.054 498.646 256.262 499.46C255.492 500.252 255.107 501.352 255.107 502.76C255.107 504.168 255.492 505.29 256.262 506.126C257.054 506.94 258.011 507.347 259.133 507.347C260.255 507.347 261.201 506.94 261.971 506.126C262.763 505.312 263.159 504.201 263.159 502.793ZM283.147 507.215V512H280.276C278.23 512 276.635 511.505 275.491 510.515C274.347 509.503 273.775 507.864 273.775 505.598V498.272H271.531V493.586H273.775V489.098H279.418V493.586H283.114V498.272H279.418V505.664C279.418 506.214 279.55 506.61 279.814 506.852C280.078 507.094 280.518 507.215 281.134 507.215H283.147ZM293.782 512.264C292.176 512.264 290.746 511.989 289.492 511.439C288.238 510.889 287.248 510.141 286.522 509.195C285.796 508.227 285.389 507.149 285.301 505.961H290.878C290.944 506.599 291.241 507.116 291.769 507.512C292.297 507.908 292.946 508.106 293.716 508.106C294.42 508.106 294.959 507.974 295.333 507.71C295.729 507.424 295.927 507.061 295.927 506.621C295.927 506.093 295.652 505.708 295.102 505.466C294.552 505.202 293.661 504.916 292.429 504.608C291.109 504.3 290.009 503.981 289.129 503.651C288.249 503.299 287.49 502.76 286.852 502.034C286.214 501.286 285.895 500.285 285.895 499.031C285.895 497.975 286.181 497.018 286.753 496.16C287.347 495.28 288.205 494.587 289.327 494.081C290.471 493.575 291.824 493.322 293.386 493.322C295.696 493.322 297.511 493.894 298.831 495.038C300.173 496.182 300.943 497.7 301.141 499.592H295.927C295.839 498.954 295.553 498.448 295.069 498.074C294.607 497.7 293.991 497.513 293.221 497.513C292.561 497.513 292.055 497.645 291.703 497.909C291.351 498.151 291.175 498.492 291.175 498.932C291.175 499.46 291.45 499.856 292 500.12C292.572 500.384 293.452 500.648 294.64 500.912C296.004 501.264 297.115 501.616 297.973 501.968C298.831 502.298 299.579 502.848 300.217 503.618C300.877 504.366 301.218 505.378 301.24 506.654C301.24 507.732 300.932 508.7 300.316 509.558C299.722 510.394 298.853 511.054 297.709 511.538C296.587 512.022 295.278 512.264 293.782 512.264ZM338.118 493.586L333.135 512H326.898L323.994 500.054L320.991 512H314.787L309.771 493.586H315.414L318.021 506.753L321.123 493.586H327.096L330.231 506.687L332.805 493.586H338.118ZM343.108 491.672C342.118 491.672 341.304 491.386 340.666 490.814C340.05 490.22 339.742 489.494 339.742 488.636C339.742 487.756 340.05 487.03 340.666 486.458C341.304 485.864 342.118 485.567 343.108 485.567C344.076 485.567 344.868 485.864 345.484 486.458C346.122 487.03 346.441 487.756 346.441 488.636C346.441 489.494 346.122 490.22 345.484 490.814C344.868 491.386 344.076 491.672 343.108 491.672ZM345.913 493.586V512H340.27V493.586H345.913ZM360.266 507.215V512H357.395C355.349 512 353.754 511.505 352.61 510.515C351.466 509.503 350.894 507.864 350.894 505.598V498.272H348.65V493.586H350.894V489.098H356.537V493.586H360.233V498.272H356.537V505.664C356.537 506.214 356.669 506.61 356.933 506.852C357.197 507.094 357.637 507.215 358.253 507.215H360.266ZM374.728 493.388C376.84 493.388 378.534 494.092 379.81 495.5C381.086 496.886 381.724 498.8 381.724 501.242V512H376.114V502.001C376.114 500.769 375.795 499.812 375.157 499.13C374.519 498.448 373.661 498.107 372.583 498.107C371.505 498.107 370.647 498.448 370.009 499.13C369.371 499.812 369.052 500.769 369.052 502.001V512H363.409V487.58H369.052V496.061C369.624 495.247 370.405 494.598 371.395 494.114C372.385 493.63 373.496 493.388 374.728 493.388ZM402.901 507.215V512H400.03C397.984 512 396.389 511.505 395.245 510.515C394.101 509.503 393.529 507.864 393.529 505.598V498.272H391.285V493.586H393.529V489.098H399.172V493.586H402.868V498.272H399.172V505.664C399.172 506.214 399.304 506.61 399.568 506.852C399.832 507.094 400.272 507.215 400.888 507.215H402.901ZM417.364 493.388C419.476 493.388 421.17 494.092 422.446 495.5C423.722 496.886 424.36 498.8 424.36 501.242V512H418.75V502.001C418.75 500.769 418.431 499.812 417.793 499.13C417.155 498.448 416.297 498.107 415.219 498.107C414.141 498.107 413.283 498.448 412.645 499.13C412.007 499.812 411.688 500.769 411.688 502.001V512H406.045V487.58H411.688V496.061C412.26 495.247 413.041 494.598 414.031 494.114C415.021 493.63 416.132 493.388 417.364 493.388ZM445.639 502.496C445.639 503.024 445.606 503.574 445.54 504.146H432.769C432.857 505.29 433.22 506.17 433.858 506.786C434.518 507.38 435.321 507.677 436.267 507.677C437.675 507.677 438.654 507.083 439.204 505.895H445.21C444.902 507.105 444.341 508.194 443.527 509.162C442.735 510.13 441.734 510.889 440.524 511.439C439.314 511.989 437.961 512.264 436.465 512.264C434.661 512.264 433.055 511.879 431.647 511.109C430.239 510.339 429.139 509.239 428.347 507.809C427.555 506.379 427.159 504.707 427.159 502.793C427.159 500.879 427.544 499.207 428.314 497.777C429.106 496.347 430.206 495.247 431.614 494.477C433.022 493.707 434.639 493.322 436.465 493.322C438.247 493.322 439.831 493.696 441.217 494.444C442.603 495.192 443.681 496.259 444.451 497.645C445.243 499.031 445.639 500.648 445.639 502.496ZM439.864 501.011C439.864 500.043 439.534 499.273 438.874 498.701C438.214 498.129 437.389 497.843 436.399 497.843C435.453 497.843 434.65 498.118 433.99 498.668C433.352 499.218 432.956 499.999 432.802 501.011H439.864ZM461.252 496.193C461.802 495.335 462.561 494.642 463.529 494.114C464.497 493.586 465.63 493.322 466.928 493.322C468.446 493.322 469.821 493.707 471.053 494.477C472.285 495.247 473.253 496.347 473.957 497.777C474.683 499.207 475.046 500.868 475.046 502.76C475.046 504.652 474.683 506.324 473.957 507.776C473.253 509.206 472.285 510.317 471.053 511.109C469.821 511.879 468.446 512.264 466.928 512.264C465.652 512.264 464.519 512 463.529 511.472C462.561 510.944 461.802 510.262 461.252 509.426V520.778H455.609V493.586H461.252V496.193ZM469.304 502.76C469.304 501.352 468.908 500.252 468.116 499.46C467.346 498.646 466.389 498.239 465.245 498.239C464.123 498.239 463.166 498.646 462.374 499.46C461.604 500.274 461.219 501.385 461.219 502.793C461.219 504.201 461.604 505.312 462.374 506.126C463.166 506.94 464.123 507.347 465.245 507.347C466.367 507.347 467.324 506.94 468.116 506.126C468.908 505.29 469.304 504.168 469.304 502.76ZM483.649 487.58V512H478.006V487.58H483.649ZM486.617 502.76C486.617 500.868 486.969 499.207 487.673 497.777C488.399 496.347 489.378 495.247 490.61 494.477C491.842 493.707 493.217 493.322 494.735 493.322C496.033 493.322 497.166 493.586 498.134 494.114C499.124 494.642 499.883 495.335 500.411 496.193V493.586H506.054V512H500.411V509.393C499.861 510.251 499.091 510.944 498.101 511.472C497.133 512 496 512.264 494.702 512.264C493.206 512.264 491.842 511.879 490.61 511.109C489.378 510.317 488.399 509.206 487.673 507.776C486.969 506.324 486.617 504.652 486.617 502.76ZM500.411 502.793C500.411 501.385 500.015 500.274 499.223 499.46C498.453 498.646 497.507 498.239 496.385 498.239C495.263 498.239 494.306 498.646 493.514 499.46C492.744 500.252 492.359 501.352 492.359 502.76C492.359 504.168 492.744 505.29 493.514 506.126C494.306 506.94 495.263 507.347 496.385 507.347C497.507 507.347 498.453 506.94 499.223 506.126C500.015 505.312 500.411 504.201 500.411 502.793ZM520.399 507.215V512H517.528C515.482 512 513.887 511.505 512.743 510.515C511.599 509.503 511.027 507.864 511.027 505.598V498.272H508.783V493.586H511.027V489.098H516.67V493.586H520.366V498.272H516.67V505.664C516.67 506.214 516.802 506.61 517.066 506.852C517.33 507.094 517.77 507.215 518.386 507.215H520.399ZM532.783 498.272H529.747V512H524.104V498.272H522.058V493.586H524.104V493.058C524.104 490.792 524.753 489.076 526.051 487.91C527.349 486.722 529.252 486.128 531.76 486.128C532.178 486.128 532.486 486.139 532.684 486.161V490.946C531.606 490.88 530.847 491.034 530.407 491.408C529.967 491.782 529.747 492.453 529.747 493.421V493.586H532.783V498.272ZM543.816 512.264C542.012 512.264 540.384 511.879 538.932 511.109C537.502 510.339 536.369 509.239 535.533 507.809C534.719 506.379 534.312 504.707 534.312 502.793C534.312 500.901 534.73 499.24 535.566 497.81C536.402 496.358 537.546 495.247 538.998 494.477C540.45 493.707 542.078 493.322 543.882 493.322C545.686 493.322 547.314 493.707 548.766 494.477C550.218 495.247 551.362 496.358 552.198 497.81C553.034 499.24 553.452 500.901 553.452 502.793C553.452 504.685 553.023 506.357 552.165 507.809C551.329 509.239 550.174 510.339 548.7 511.109C547.248 511.879 545.62 512.264 543.816 512.264ZM543.816 507.38C544.894 507.38 545.807 506.984 546.555 506.192C547.325 505.4 547.71 504.267 547.71 502.793C547.71 501.319 547.336 500.186 546.588 499.394C545.862 498.602 544.96 498.206 543.882 498.206C542.782 498.206 541.869 498.602 541.143 499.394C540.417 500.164 540.054 501.297 540.054 502.793C540.054 504.267 540.406 505.4 541.11 506.192C541.836 506.984 542.738 507.38 543.816 507.38ZM562.089 496.655C562.749 495.643 563.574 494.851 564.564 494.279C565.554 493.685 566.654 493.388 567.864 493.388V499.361H566.313C564.905 499.361 563.849 499.669 563.145 500.285C562.441 500.879 562.089 501.935 562.089 503.453V512H556.446V493.586H562.089V496.655ZM594.057 493.388C596.345 493.388 598.16 494.081 599.502 495.467C600.866 496.853 601.548 498.778 601.548 501.242V512H595.938V502.001C595.938 500.813 595.619 499.9 594.981 499.262C594.365 498.602 593.507 498.272 592.407 498.272C591.307 498.272 590.438 498.602 589.8 499.262C589.184 499.9 588.876 500.813 588.876 502.001V512H583.266V502.001C583.266 500.813 582.947 499.9 582.309 499.262C581.693 498.602 580.835 498.272 579.735 498.272C578.635 498.272 577.766 498.602 577.128 499.262C576.512 499.9 576.204 500.813 576.204 502.001V512H570.561V493.586H576.204V495.896C576.776 495.126 577.524 494.521 578.448 494.081C579.372 493.619 580.417 493.388 581.583 493.388C582.969 493.388 584.201 493.685 585.279 494.279C586.379 494.873 587.237 495.72 587.853 496.82C588.491 495.808 589.36 494.983 590.46 494.345C591.56 493.707 592.759 493.388 594.057 493.388ZM638.921 493.586L633.938 512H627.701L624.797 500.054L621.794 512H615.59L610.574 493.586H616.217L618.824 506.753L621.926 493.586H627.899L631.034 506.687L633.608 493.586H638.921ZM643.911 491.672C642.921 491.672 642.107 491.386 641.469 490.814C640.853 490.22 640.545 489.494 640.545 488.636C640.545 487.756 640.853 487.03 641.469 486.458C642.107 485.864 642.921 485.567 643.911 485.567C644.879 485.567 645.671 485.864 646.287 486.458C646.925 487.03 647.244 487.756 647.244 488.636C647.244 489.494 646.925 490.22 646.287 490.814C645.671 491.386 644.879 491.672 643.911 491.672ZM646.716 493.586V512H641.073V493.586H646.716ZM656.448 487.58V512H650.805V487.58H656.448ZM666.181 487.58V512H660.538V487.58H666.181ZM676.141 502.76C676.141 500.868 676.493 499.207 677.197 497.777C677.923 496.347 678.902 495.247 680.134 494.477C681.366 493.707 682.741 493.322 684.259 493.322C685.557 493.322 686.69 493.586 687.658 494.114C688.648 494.642 689.407 495.335 689.935 496.193V493.586H695.578V512H689.935V509.393C689.385 510.251 688.615 510.944 687.625 511.472C686.657 512 685.524 512.264 684.226 512.264C682.73 512.264 681.366 511.879 680.134 511.109C678.902 510.317 677.923 509.206 677.197 507.776C676.493 506.324 676.141 504.652 676.141 502.76ZM689.935 502.793C689.935 501.385 689.539 500.274 688.747 499.46C687.977 498.646 687.031 498.239 685.909 498.239C684.787 498.239 683.83 498.646 683.038 499.46C682.268 500.252 681.883 501.352 681.883 502.76C681.883 504.168 682.268 505.29 683.038 506.126C683.83 506.94 684.787 507.347 685.909 507.347C687.031 507.347 687.977 506.94 688.747 506.126C689.539 505.312 689.935 504.201 689.935 502.793ZM705.304 496.193C705.854 495.335 706.613 494.642 707.581 494.114C708.549 493.586 709.682 493.322 710.98 493.322C712.498 493.322 713.873 493.707 715.105 494.477C716.337 495.247 717.305 496.347 718.009 497.777C718.735 499.207 719.098 500.868 719.098 502.76C719.098 504.652 718.735 506.324 718.009 507.776C717.305 509.206 716.337 510.317 715.105 511.109C713.873 511.879 712.498 512.264 710.98 512.264C709.704 512.264 708.571 512 707.581 511.472C706.613 510.944 705.854 510.262 705.304 509.426V520.778H699.661V493.586H705.304V496.193ZM713.356 502.76C713.356 501.352 712.96 500.252 712.168 499.46C711.398 498.646 710.441 498.239 709.297 498.239C708.175 498.239 707.218 498.646 706.426 499.46C705.656 500.274 705.271 501.385 705.271 502.793C705.271 504.201 705.656 505.312 706.426 506.126C707.218 506.94 708.175 507.347 709.297 507.347C710.419 507.347 711.376 506.94 712.168 506.126C712.96 505.29 713.356 504.168 713.356 502.76ZM727.701 496.193C728.251 495.335 729.01 494.642 729.978 494.114C730.946 493.586 732.079 493.322 733.377 493.322C734.895 493.322 736.27 493.707 737.502 494.477C738.734 495.247 739.702 496.347 740.406 497.777C741.132 499.207 741.495 500.868 741.495 502.76C741.495 504.652 741.132 506.324 740.406 507.776C739.702 509.206 738.734 510.317 737.502 511.109C736.27 511.879 734.895 512.264 733.377 512.264C732.101 512.264 730.968 512 729.978 511.472C729.01 510.944 728.251 510.262 727.701 509.426V520.778H722.058V493.586H727.701V496.193ZM735.753 502.76C735.753 501.352 735.357 500.252 734.565 499.46C733.795 498.646 732.838 498.239 731.694 498.239C730.572 498.239 729.615 498.646 728.823 499.46C728.053 500.274 727.668 501.385 727.668 502.793C727.668 504.201 728.053 505.312 728.823 506.126C729.615 506.94 730.572 507.347 731.694 507.347C732.816 507.347 733.773 506.94 734.565 506.126C735.357 505.29 735.753 504.168 735.753 502.76ZM761.814 502.496C761.814 503.024 761.781 503.574 761.715 504.146H748.944C749.032 505.29 749.395 506.17 750.033 506.786C750.693 507.38 751.496 507.677 752.442 507.677C753.85 507.677 754.829 507.083 755.379 505.895H761.385C761.077 507.105 760.516 508.194 759.702 509.162C758.91 510.13 757.909 510.889 756.699 511.439C755.489 511.989 754.136 512.264 752.64 512.264C750.836 512.264 749.23 511.879 747.822 511.109C746.414 510.339 745.314 509.239 744.522 507.809C743.73 506.379 743.334 504.707 743.334 502.793C743.334 500.879 743.719 499.207 744.489 497.777C745.281 496.347 746.381 495.247 747.789 494.477C749.197 493.707 750.814 493.322 752.64 493.322C754.422 493.322 756.006 493.696 757.392 494.444C758.778 495.192 759.856 496.259 760.626 497.645C761.418 499.031 761.814 500.648 761.814 502.496ZM756.039 501.011C756.039 500.043 755.709 499.273 755.049 498.701C754.389 498.129 753.564 497.843 752.574 497.843C751.628 497.843 750.825 498.118 750.165 498.668C749.527 499.218 749.131 499.999 748.977 501.011H756.039ZM763.669 502.76C763.669 500.868 764.021 499.207 764.725 497.777C765.451 496.347 766.43 495.247 767.662 494.477C768.894 493.707 770.269 493.322 771.787 493.322C773.085 493.322 774.218 493.586 775.186 494.114C776.176 494.642 776.935 495.335 777.463 496.193V493.586H783.106V512H777.463V509.393C776.913 510.251 776.143 510.944 775.153 511.472C774.185 512 773.052 512.264 771.754 512.264C770.258 512.264 768.894 511.879 767.662 511.109C766.43 510.317 765.451 509.206 764.725 507.776C764.021 506.324 763.669 504.652 763.669 502.76ZM777.463 502.793C777.463 501.385 777.067 500.274 776.275 499.46C775.505 498.646 774.559 498.239 773.437 498.239C772.315 498.239 771.358 498.646 770.566 499.46C769.796 500.252 769.411 501.352 769.411 502.76C769.411 504.168 769.796 505.29 770.566 506.126C771.358 506.94 772.315 507.347 773.437 507.347C774.559 507.347 775.505 506.94 776.275 506.126C777.067 505.312 777.463 504.201 777.463 502.793ZM792.831 496.655C793.491 495.643 794.316 494.851 795.306 494.279C796.296 493.685 797.396 493.388 798.606 493.388V499.361H797.055C795.647 499.361 794.591 499.669 793.887 500.285C793.183 500.879 792.831 501.935 792.831 503.453V512H787.188V493.586H792.831V496.655ZM819.615 493.388C821.727 493.388 823.421 494.092 824.697 495.5C825.973 496.886 826.611 498.8 826.611 501.242V512H821.001V502.001C821.001 500.769 820.682 499.812 820.044 499.13C819.406 498.448 818.548 498.107 817.47 498.107C816.392 498.107 815.534 498.448 814.896 499.13C814.258 499.812 813.939 500.769 813.939 502.001V512H808.296V487.58H813.939V496.061C814.511 495.247 815.292 494.598 816.282 494.114C817.272 493.63 818.383 493.388 819.615 493.388ZM847.891 502.496C847.891 503.024 847.858 503.574 847.792 504.146H835.021C835.109 505.29 835.472 506.17 836.11 506.786C836.77 507.38 837.573 507.677 838.519 507.677C839.927 507.677 840.906 507.083 841.456 505.895H847.462C847.154 507.105 846.593 508.194 845.779 509.162C844.987 510.13 843.986 510.889 842.776 511.439C841.566 511.989 840.213 512.264 838.717 512.264C836.913 512.264 835.307 511.879 833.899 511.109C832.491 510.339 831.391 509.239 830.599 507.809C829.807 506.379 829.411 504.707 829.411 502.793C829.411 500.879 829.796 499.207 830.566 497.777C831.358 496.347 832.458 495.247 833.866 494.477C835.274 493.707 836.891 493.322 838.717 493.322C840.499 493.322 842.083 493.696 843.469 494.444C844.855 495.192 845.933 496.259 846.703 497.645C847.495 499.031 847.891 500.648 847.891 502.496ZM842.116 501.011C842.116 500.043 841.786 499.273 841.126 498.701C840.466 498.129 839.641 497.843 838.651 497.843C837.705 497.843 836.902 498.118 836.242 498.668C835.604 499.218 835.208 499.999 835.054 501.011H842.116ZM856.511 496.655C857.171 495.643 857.996 494.851 858.986 494.279C859.976 493.685 861.076 493.388 862.286 493.388V499.361H860.735C859.327 499.361 858.271 499.669 857.567 500.285C856.863 500.879 856.511 501.935 856.511 503.453V512H850.868V493.586H856.511V496.655ZM882.341 502.496C882.341 503.024 882.308 503.574 882.242 504.146H869.471C869.559 505.29 869.922 506.17 870.56 506.786C871.22 507.38 872.023 507.677 872.969 507.677C874.377 507.677 875.356 507.083 875.906 505.895H881.912C881.604 507.105 881.043 508.194 880.229 509.162C879.437 510.13 878.436 510.889 877.226 511.439C876.016 511.989 874.663 512.264 873.167 512.264C871.363 512.264 869.757 511.879 868.349 511.109C866.941 510.339 865.841 509.239 865.049 507.809C864.257 506.379 863.861 504.707 863.861 502.793C863.861 500.879 864.246 499.207 865.016 497.777C865.808 496.347 866.908 495.247 868.316 494.477C869.724 493.707 871.341 493.322 873.167 493.322C874.949 493.322 876.533 493.696 877.919 494.444C879.305 495.192 880.383 496.259 881.153 497.645C881.945 499.031 882.341 500.648 882.341 502.496ZM876.566 501.011C876.566 500.043 876.236 499.273 875.576 498.701C874.916 498.129 874.091 497.843 873.101 497.843C872.155 497.843 871.352 498.118 870.692 498.668C870.054 499.218 869.658 499.999 869.504 501.011H876.566Z" fill="#A1A1AA"/>
<g opacity="0.32" clip-path="url(#clip1_13154_13712)">
<path d="M58.2349 51.1758H82.941C84.8115 51.1811 86.6039 51.9266 87.9266 53.2493C89.2493 54.572 89.9947 56.3644 90.0001 58.2349V74.1167C89.9943 75.9869 89.2486 77.7789 87.926 79.1012C86.6034 80.4235 84.8112 81.1687 82.941 81.1741V88.4094C82.941 89.9984 80.9996 90.7031 79.7646 89.4682L72.177 81.1673H58.2349C56.3644 81.1619 54.572 80.4165 53.2493 79.0938C51.9266 77.7711 51.1811 75.9787 51.1758 74.1082V58.2332C51.1816 56.363 51.9272 54.571 53.2499 53.2487C54.5725 51.9264 56.3646 51.1811 58.2349 51.1758Z" fill="url(#paint9_linear_13154_13712)"/>
<path d="M61.7652 30H37.0591C35.1886 30.0054 33.3962 30.7508 32.0735 32.0735C30.7508 33.3962 30.0054 35.1886 30 37.0591V52.9409C30.0058 54.8111 30.7515 56.6031 32.0741 57.9254C33.3967 59.2477 35.1889 59.9929 37.0591 59.9983V67.2336C37.0591 68.8226 39.0005 69.5274 40.2355 68.2924L47.8231 59.9915H61.7635C63.6341 59.9862 65.4265 59.2407 66.7491 57.918C68.0718 56.5954 68.8173 54.803 68.8226 52.9324V37.0574C68.8168 35.1875 68.0714 33.3958 66.7491 32.0735C65.4269 30.7512 63.6352 30.0058 61.7652 30Z" fill="url(#paint10_linear_13154_13712)"/>
</g>
<g opacity="0.32" clip-path="url(#clip2_13154_13712)">
<path d="M636.235 42.1758H660.941C662.812 42.1811 664.604 42.9266 665.927 44.2493C667.249 45.572 667.995 47.3644 668 49.2349V65.1167C667.994 66.9869 667.249 68.7789 665.926 70.1012C664.603 71.4235 662.811 72.1687 660.941 72.1741V79.4094C660.941 80.9984 659 81.7031 657.765 80.4682L650.177 72.1673H636.235C634.364 72.1619 632.572 71.4165 631.249 70.0938C629.927 68.7711 629.181 66.9787 629.176 65.1082V49.2332C629.182 47.363 629.927 45.571 631.25 44.2487C632.573 42.9264 634.365 42.1811 636.235 42.1758Z" fill="url(#paint11_linear_13154_13712)"/>
<path d="M639.765 21H615.059C613.189 21.0054 611.396 21.7508 610.073 23.0735C608.751 24.3962 608.005 26.1886 608 28.0591V43.9409C608.006 45.8111 608.751 47.6031 610.074 48.9254C611.397 50.2477 613.189 50.9929 615.059 50.9983V58.2336C615.059 59.8226 617.001 60.5274 618.235 59.2924L625.823 50.9915H639.764C641.634 50.9862 643.426 50.2407 644.749 48.918C646.072 47.5954 646.817 45.803 646.823 43.9324V28.0574C646.817 26.1875 646.071 24.3958 644.749 23.0735C643.427 21.7512 641.635 21.0058 639.765 21Z" fill="url(#paint12_linear_13154_13712)"/>
</g>
<g opacity="0.32" clip-path="url(#clip3_13154_13712)">
<path d="M103.024 590.988L126.473 598.768C128.247 599.362 129.714 600.634 130.553 602.306C131.391 603.978 131.535 605.914 130.951 607.691L125.95 622.765C125.355 624.538 124.083 626.004 122.412 626.843C120.74 627.681 118.804 627.824 117.027 627.24L114.749 634.108C114.249 635.616 112.184 635.673 111.401 634.112L106.813 623.844L93.5803 619.454C91.8066 618.86 90.3401 617.588 89.5012 615.916C88.6623 614.244 88.5192 612.309 89.1031 610.531L94.1019 595.464C94.6964 593.691 95.9683 592.225 97.6401 591.386C99.3118 590.548 101.247 590.405 103.024 590.988Z" fill="url(#paint13_linear_13154_13712)"/>
<path d="M113.043 572.002L89.5936 564.223C87.8165 563.639 85.8805 563.782 84.2087 564.621C82.5368 565.46 81.2648 566.926 80.6707 568.7L75.6698 583.774C75.0864 585.551 75.2298 587.486 76.0688 589.158C76.9078 590.829 78.3741 592.101 80.1475 592.695L77.8692 599.562C77.3688 601.071 78.9895 602.351 80.5506 601.567L90.3661 596.078L103.597 600.468C105.374 601.052 107.31 600.909 108.982 600.07C110.654 599.231 111.926 597.764 112.52 595.991L117.519 580.923C118.102 579.146 117.959 577.211 117.12 575.54C116.282 573.868 114.816 572.597 113.043 572.002Z" fill="url(#paint14_linear_13154_13712)"/>
</g>
<g opacity="0.32" clip-path="url(#clip4_13154_13712)">
<path d="M331.103 51.0685L354.553 58.8482C356.326 59.4423 357.793 60.7142 358.632 62.3861C359.471 64.058 359.614 65.9939 359.03 67.771L354.029 82.8448C353.434 84.6181 352.162 86.0841 350.491 86.9227C348.819 87.7613 346.883 87.9042 345.107 87.3204L342.828 94.1877C342.328 95.6958 340.263 95.7534 339.48 94.1924L334.892 83.9245L321.659 79.5344C319.886 78.9403 318.419 77.6683 317.58 75.9964C316.741 74.3245 316.598 72.3886 317.182 70.6115L322.181 55.5441C322.775 53.7708 324.047 52.3048 325.719 51.4663C327.391 50.6277 329.327 50.4847 331.103 51.0685Z" fill="url(#paint15_linear_13154_13712)"/>
<path d="M341.122 32.0825L317.673 24.3029C315.896 23.719 313.96 23.8621 312.288 24.701C310.616 25.5399 309.344 27.0064 308.75 28.7801L303.749 43.8539C303.165 45.6309 303.309 47.5665 304.148 49.238C304.987 50.9095 306.453 52.1812 308.227 52.7752L305.948 59.6424C305.448 61.1506 307.069 62.4308 308.63 61.6475L318.445 56.1582L331.676 60.5478C333.453 61.1318 335.389 60.9886 337.061 60.1497C338.733 59.3108 340.005 57.8443 340.599 56.0706L345.598 41.0032C346.181 39.2266 346.038 37.2913 345.199 35.6199C344.361 33.9485 342.895 32.6769 341.122 32.0825Z" fill="url(#paint16_linear_13154_13712)"/>
</g>
<g opacity="0.32" clip-path="url(#clip5_13154_13712)">
<path d="M712.023 162.988L735.473 170.768C737.246 171.362 738.713 172.634 739.552 174.306C740.391 175.978 740.534 177.914 739.95 179.691L734.949 194.765C734.354 196.538 733.082 198.004 731.411 198.843C729.739 199.681 727.803 199.824 726.026 199.24L723.748 206.108C723.248 207.616 721.183 207.673 720.4 206.112L715.812 195.844L702.579 191.454C700.806 190.86 699.339 189.588 698.5 187.916C697.661 186.244 697.518 184.309 698.102 182.531L703.101 167.464C703.695 165.691 704.967 164.225 706.639 163.386C708.311 162.548 710.246 162.405 712.023 162.988Z" fill="url(#paint17_linear_13154_13712)"/>
<path d="M722.042 144.002L698.593 136.223C696.816 135.639 694.88 135.782 693.208 136.621C691.536 137.46 690.264 138.926 689.67 140.7L684.669 155.774C684.085 157.551 684.229 159.486 685.068 161.158C685.907 162.829 687.373 164.101 689.147 164.695L686.868 171.562C686.368 173.071 687.989 174.351 689.55 173.567L699.365 168.078L712.596 172.468C714.373 173.052 716.309 172.909 717.981 172.07C719.653 171.231 720.925 169.764 721.519 167.991L726.518 152.923C727.101 151.146 726.958 149.211 726.119 147.54C725.281 145.868 723.815 144.597 722.042 144.002Z" fill="url(#paint18_linear_13154_13712)"/>
</g>
<g opacity="0.32" clip-path="url(#clip6_13154_13712)">
<path d="M322.023 592.988L345.473 600.768C347.246 601.362 348.713 602.634 349.552 604.306C350.391 605.978 350.534 607.914 349.95 609.691L344.949 624.765C344.354 626.538 343.082 628.004 341.411 628.843C339.739 629.681 337.803 629.824 336.026 629.24L333.748 636.108C333.248 637.616 331.183 637.673 330.4 636.112L325.812 625.844L312.579 621.454C310.806 620.86 309.339 619.588 308.5 617.916C307.661 616.244 307.518 614.309 308.102 612.531L313.101 597.464C313.695 595.691 314.967 594.225 316.639 593.386C318.311 592.548 320.246 592.405 322.023 592.988Z" fill="url(#paint19_linear_13154_13712)"/>
<path d="M332.042 574.002L308.593 566.223C306.816 565.639 304.88 565.782 303.208 566.621C301.536 567.46 300.264 568.926 299.67 570.7L294.669 585.774C294.085 587.551 294.229 589.486 295.068 591.158C295.907 592.829 297.373 594.101 299.147 594.695L296.868 601.562C296.368 603.071 297.989 604.351 299.55 603.567L309.365 598.078L322.596 602.468C324.373 603.052 326.309 602.909 327.981 602.07C329.653 601.231 330.925 599.764 331.519 597.991L336.518 582.923C337.101 581.146 336.958 579.211 336.119 577.54C335.281 575.868 333.815 574.597 332.042 574.002Z" fill="url(#paint20_linear_13154_13712)"/>
</g>
<g opacity="0.32" clip-path="url(#clip7_13154_13712)">
<path d="M53.0242 276.988L76.4735 284.768C78.2472 285.362 79.7137 286.634 80.5526 288.306C81.3915 289.978 81.5346 291.914 80.9507 293.691L75.9497 308.765C75.3553 310.538 74.0833 312.004 72.4116 312.843C70.7399 313.681 68.8042 313.824 67.0274 313.24L64.7491 320.108C64.2488 321.616 62.1842 321.673 61.401 320.112L56.8131 309.844L43.5803 305.454C41.8066 304.86 40.3401 303.588 39.5012 301.916C38.6623 300.244 38.5192 298.309 39.1031 296.531L44.1019 281.464C44.6964 279.691 45.9683 278.225 47.6401 277.386C49.3118 276.548 51.2474 276.405 53.0242 276.988Z" fill="url(#paint21_linear_13154_13712)"/>
<path d="M63.0428 258.002L39.5936 250.223C37.8165 249.639 35.8805 249.782 34.2087 250.621C32.5368 251.46 31.2648 252.926 30.6707 254.7L25.6698 269.774C25.0864 271.551 25.2298 273.486 26.0688 275.158C26.9078 276.829 28.3741 278.101 30.1475 278.695L27.8692 285.562C27.3688 287.071 28.9895 288.351 30.5506 287.567L40.3661 282.078L53.5973 286.468C55.3744 287.052 57.3103 286.909 58.9822 286.07C60.6541 285.231 61.926 283.764 62.5201 281.991L67.519 266.923C68.1023 265.146 67.959 263.211 67.1203 261.54C66.2817 259.868 64.8158 258.597 63.0428 258.002Z" fill="url(#paint22_linear_13154_13712)"/>
</g>
<g opacity="0.32" clip-path="url(#clip8_13154_13712)">
<path d="M161.023 359.988L184.473 367.768C186.246 368.362 187.713 369.634 188.552 371.306C189.391 372.978 189.534 374.914 188.95 376.691L183.949 391.765C183.354 393.538 182.082 395.004 180.411 395.843C178.739 396.681 176.803 396.824 175.026 396.24L172.748 403.108C172.248 404.616 170.183 404.673 169.4 403.112L164.812 392.844L151.579 388.454C149.806 387.86 148.339 386.588 147.5 384.916C146.661 383.244 146.518 381.309 147.102 379.531L152.101 364.464C152.695 362.691 153.967 361.225 155.639 360.386C157.311 359.548 159.246 359.405 161.023 359.988Z" fill="url(#paint23_linear_13154_13712)"/>
<path d="M171.042 341.002L147.593 333.223C145.816 332.639 143.88 332.782 142.208 333.621C140.536 334.46 139.264 335.926 138.67 337.7L133.669 352.774C133.085 354.551 133.229 356.486 134.068 358.158C134.907 359.829 136.373 361.101 138.147 361.695L135.868 368.562C135.368 370.071 136.989 371.351 138.55 370.567L148.365 365.078L161.596 369.468C163.373 370.052 165.309 369.909 166.981 369.07C168.653 368.231 169.925 366.764 170.519 364.991L175.518 349.923C176.101 348.146 175.958 346.211 175.119 344.54C174.281 342.868 172.815 341.597 171.042 341.002Z" fill="url(#paint24_linear_13154_13712)"/>
</g>
<g opacity="0.32" clip-path="url(#clip9_13154_13712)">
<path d="M888.897 50.9885L865.447 58.7681C863.674 59.3622 862.207 60.6341 861.368 62.306C860.529 63.9779 860.386 65.9138 860.97 67.6909L865.971 82.7648C866.566 84.538 867.838 86.0041 869.509 86.8426C871.181 87.6812 873.117 87.8242 874.893 87.2403L877.172 94.1076C877.672 95.6158 879.737 95.6733 880.52 94.1123L885.108 83.8445L898.341 79.4543C900.114 78.8602 901.581 77.5883 902.42 75.9164C903.259 74.2445 903.402 72.3085 902.818 70.5314L897.819 55.464C897.225 53.6908 895.953 52.2247 894.281 51.3862C892.609 50.5476 890.673 50.4046 888.897 50.9885Z" fill="url(#paint25_linear_13154_13712)"/>
<path d="M878.878 32.0025L902.327 24.2228C904.104 23.6389 906.04 23.782 907.712 24.6209C909.384 25.4598 910.656 26.9263 911.25 28.7L916.251 43.7739C916.835 45.5508 916.691 47.4864 915.852 49.1579C915.013 50.8295 913.547 52.1011 911.773 52.6951L914.052 59.5623C914.552 61.0705 912.931 62.3507 911.37 61.5674L901.555 56.0781L888.324 60.4678C886.547 61.0517 884.611 60.9085 882.939 60.0696C881.267 59.2307 879.995 57.7643 879.401 55.9906L874.402 40.9232C873.819 39.1465 873.962 37.2112 874.801 35.5398C875.639 33.8685 877.105 32.5968 878.878 32.0025Z" fill="url(#paint26_linear_13154_13712)"/>
</g>
<g opacity="0.32" clip-path="url(#clip10_13154_13712)">
<path d="M888.897 221.069L865.447 228.848C863.674 229.442 862.207 230.714 861.368 232.386C860.529 234.058 860.386 235.994 860.97 237.771L865.971 252.845C866.566 254.618 867.838 256.084 869.509 256.923C871.181 257.761 873.117 257.904 874.893 257.32L877.172 264.188C877.672 265.696 879.737 265.753 880.52 264.192L885.108 253.925L898.341 249.534C900.114 248.94 901.581 247.668 902.42 245.996C903.259 244.325 903.402 242.389 902.818 240.612L897.819 225.544C897.225 223.771 895.953 222.305 894.281 221.466C892.609 220.628 890.673 220.485 888.897 221.069Z" fill="url(#paint27_linear_13154_13712)"/>
<path d="M878.878 202.083L902.327 194.303C904.104 193.719 906.04 193.862 907.712 194.701C909.384 195.54 910.656 197.006 911.25 198.78L916.251 213.854C916.835 215.631 916.691 217.566 915.852 219.238C915.013 220.91 913.547 222.181 911.773 222.775L914.052 229.642C914.552 231.151 912.931 232.431 911.37 231.648L901.555 226.158L888.324 230.548C886.547 231.132 884.611 230.989 882.939 230.15C881.267 229.311 879.995 227.844 879.401 226.071L874.402 211.003C873.819 209.227 873.962 207.291 874.801 205.62C875.639 203.949 877.105 202.677 878.878 202.083Z" fill="url(#paint28_linear_13154_13712)"/>
</g>
<g opacity="0.32" clip-path="url(#clip11_13154_13712)">
<path d="M918.897 401.069L895.447 408.848C893.674 409.442 892.207 410.714 891.368 412.386C890.529 414.058 890.386 415.994 890.97 417.771L895.971 432.845C896.566 434.618 897.838 436.084 899.509 436.923C901.181 437.761 903.117 437.904 904.893 437.32L907.172 444.188C907.672 445.696 909.737 445.753 910.52 444.192L915.108 433.925L928.341 429.534C930.114 428.94 931.581 427.668 932.42 425.996C933.259 424.325 933.402 422.389 932.818 420.612L927.819 405.544C927.225 403.771 925.953 402.305 924.281 401.466C922.609 400.628 920.673 400.485 918.897 401.069Z" fill="url(#paint29_linear_13154_13712)"/>
<path d="M908.878 382.083L932.327 374.303C934.104 373.719 936.04 373.862 937.712 374.701C939.384 375.54 940.656 377.006 941.25 378.78L946.251 393.854C946.835 395.631 946.691 397.566 945.852 399.238C945.013 400.91 943.547 402.181 941.773 402.775L944.052 409.642C944.552 411.151 942.931 412.431 941.37 411.648L931.555 406.158L918.324 410.548C916.547 411.132 914.611 410.989 912.939 410.15C911.267 409.311 909.995 407.844 909.401 406.071L904.402 391.003C903.819 389.227 903.962 387.291 904.801 385.62C905.639 383.949 907.105 382.677 908.878 382.083Z" fill="url(#paint30_linear_13154_13712)"/>
</g>
<g opacity="0.32" clip-path="url(#clip12_13154_13712)">
<path d="M891.103 561.069L914.553 568.848C916.326 569.442 917.793 570.714 918.632 572.386C919.471 574.058 919.614 575.994 919.03 577.771L914.029 592.845C913.434 594.618 912.162 596.084 910.491 596.923C908.819 597.761 906.883 597.904 905.107 597.32L902.828 604.188C902.328 605.696 900.263 605.753 899.48 604.192L894.892 593.925L881.659 589.534C879.886 588.94 878.419 587.668 877.58 585.996C876.741 584.325 876.598 582.389 877.182 580.612L882.181 565.544C882.775 563.771 884.047 562.305 885.719 561.466C887.391 560.628 889.327 560.485 891.103 561.069Z" fill="url(#paint31_linear_13154_13712)"/>
<path d="M901.122 542.083L877.673 534.303C875.896 533.719 873.96 533.862 872.288 534.701C870.616 535.54 869.344 537.006 868.75 538.78L863.749 553.854C863.165 555.631 863.309 557.566 864.148 559.238C864.987 560.91 866.453 562.181 868.227 562.775L865.948 569.642C865.448 571.151 867.069 572.431 868.63 571.648L878.445 566.158L891.676 570.548C893.453 571.132 895.389 570.989 897.061 570.15C898.733 569.311 900.005 567.844 900.599 566.071L905.598 551.003C906.181 549.227 906.038 547.291 905.199 545.62C904.361 543.949 902.895 542.677 901.122 542.083Z" fill="url(#paint32_linear_13154_13712)"/>
</g>
<g opacity="0.32" clip-path="url(#clip13_13154_13712)">
<path d="M641.103 581.069L664.553 588.848C666.326 589.442 667.793 590.714 668.632 592.386C669.471 594.058 669.614 595.994 669.03 597.771L664.029 612.845C663.434 614.618 662.162 616.084 660.491 616.923C658.819 617.761 656.883 617.904 655.107 617.32L652.828 624.188C652.328 625.696 650.263 625.753 649.48 624.192L644.892 613.925L631.659 609.534C629.886 608.94 628.419 607.668 627.58 605.996C626.741 604.325 626.598 602.389 627.182 600.612L632.181 585.544C632.775 583.771 634.047 582.305 635.719 581.466C637.391 580.628 639.327 580.485 641.103 581.069Z" fill="url(#paint33_linear_13154_13712)"/>
<path d="M651.122 562.083L627.673 554.303C625.896 553.719 623.96 553.862 622.288 554.701C620.616 555.54 619.344 557.006 618.75 558.78L613.749 573.854C613.165 575.631 613.309 577.566 614.148 579.238C614.987 580.91 616.453 582.181 618.227 582.775L615.948 589.642C615.448 591.151 617.069 592.431 618.63 591.648L628.445 586.158L641.676 590.548C643.453 591.132 645.389 590.989 647.061 590.15C648.733 589.311 650.005 587.844 650.599 586.071L655.598 571.003C656.181 569.227 656.038 567.291 655.199 565.62C654.361 563.949 652.895 562.677 651.122 562.083Z" fill="url(#paint34_linear_13154_13712)"/>
</g>
<defs>
<linearGradient id="paint0_linear_13154_13712" x1="386.132" y1="314.705" x2="399.785" y2="344.882" gradientUnits="userSpaceOnUse">
<stop stop-color="#A6EFFF"/>
<stop offset="0.501" stop-color="#12ADE6"/>
<stop offset="1" stop-color="#4C63FC"/>
</linearGradient>
<linearGradient id="paint1_linear_13154_13712" x1="413.375" y1="186.275" x2="416.197" y2="192.514" gradientUnits="userSpaceOnUse">
<stop stop-color="#A6EFFF"/>
<stop offset="0.501" stop-color="#12ADE6"/>
<stop offset="1" stop-color="#4C63FC"/>
</linearGradient>
<linearGradient id="paint2_linear_13154_13712" x1="413.136" y1="186.9" x2="415.749" y2="192.426" gradientUnits="userSpaceOnUse">
<stop stop-color="#A6EFFF"/>
<stop offset="0.501" stop-color="#12ADE6"/>
<stop offset="1" stop-color="#4C63FC"/>
</linearGradient>
<linearGradient id="paint3_linear_13154_13712" x1="436.966" y1="227.128" x2="453.709" y2="221.982" gradientUnits="userSpaceOnUse">
<stop stop-color="#A6EFFF"/>
<stop offset="0.501" stop-color="#12ADE6"/>
<stop offset="1" stop-color="#4C63FC"/>
</linearGradient>
<linearGradient id="paint4_linear_13154_13712" x1="376.653" y1="227.128" x2="393.397" y2="221.982" gradientUnits="userSpaceOnUse">
<stop stop-color="#A6EFFF"/>
<stop offset="0.501" stop-color="#12ADE6"/>
<stop offset="1" stop-color="#4C63FC"/>
</linearGradient>
<linearGradient id="paint5_linear_13154_13712" x1="412.676" y1="215.627" x2="415.103" y2="221.327" gradientUnits="userSpaceOnUse">
<stop stop-color="#A6EFFF"/>
<stop offset="0.501" stop-color="#12ADE6"/>
<stop offset="1" stop-color="#4C63FC"/>
</linearGradient>
<linearGradient id="paint6_linear_13154_13712" x1="431.299" y1="216.027" x2="433.832" y2="221.746" gradientUnits="userSpaceOnUse">
<stop stop-color="#A6EFFF"/>
<stop offset="0.501" stop-color="#12ADE6"/>
<stop offset="1" stop-color="#4C63FC"/>
</linearGradient>
<linearGradient id="paint7_linear_13154_13712" x1="415.263" y1="259.377" x2="421.008" y2="272.345" gradientUnits="userSpaceOnUse">
<stop stop-color="#A6EFFF"/>
<stop offset="0.501" stop-color="#12ADE6"/>
<stop offset="1" stop-color="#4C63FC"/>
</linearGradient>
<linearGradient id="paint8_linear_13154_13712" x1="414.856" y1="260.92" x2="419.885" y2="272.364" gradientUnits="userSpaceOnUse">
<stop stop-color="#A6EFFF"/>
<stop offset="0.501" stop-color="#12ADE6"/>
<stop offset="1" stop-color="#4C63FC"/>
</linearGradient>
<linearGradient id="paint9_linear_13154_13712" x1="61.805" y1="51.1758" x2="79.4439" y2="90.0642" gradientUnits="userSpaceOnUse">
<stop stop-color="#A6EFFF"/>
<stop offset="0.501" stop-color="#12ADE6"/>
<stop offset="1" stop-color="#4C63FC"/>
</linearGradient>
<linearGradient id="paint10_linear_13154_13712" x1="38.8321" y1="30" x2="60.0737" y2="68.8761" gradientUnits="userSpaceOnUse">
<stop stop-color="white"/>
<stop offset="0.501" stop-color="#12B4E6"/>
<stop offset="1" stop-color="#DC4CFC"/>
</linearGradient>
<linearGradient id="paint11_linear_13154_13712" x1="639.805" y1="42.1758" x2="657.444" y2="81.0642" gradientUnits="userSpaceOnUse">
<stop stop-color="#A6EFFF"/>
<stop offset="0.501" stop-color="#12ADE6"/>
<stop offset="1" stop-color="#4C63FC"/>
</linearGradient>
<linearGradient id="paint12_linear_13154_13712" x1="616.832" y1="21" x2="638.074" y2="59.8761" gradientUnits="userSpaceOnUse">
<stop stop-color="white"/>
<stop offset="0.501" stop-color="#12B4E6"/>
<stop offset="1" stop-color="#DC4CFC"/>
</linearGradient>
<linearGradient id="paint13_linear_13154_13712" x1="106.413" y1="592.113" x2="110.909" y2="634.577" gradientUnits="userSpaceOnUse">
<stop stop-color="#A6EFFF"/>
<stop offset="0.501" stop-color="#12ADE6"/>
<stop offset="1" stop-color="#4C63FC"/>
</linearGradient>
<linearGradient id="paint14_linear_13154_13712" x1="91.2763" y1="564.781" x2="99.1958" y2="608.368" gradientUnits="userSpaceOnUse">
<stop stop-color="white"/>
<stop offset="0.501" stop-color="#12B4E6"/>
<stop offset="1" stop-color="#DC4CFC"/>
</linearGradient>
<linearGradient id="paint15_linear_13154_13712" x1="334.492" y1="52.1927" x2="338.988" y2="94.6571" gradientUnits="userSpaceOnUse">
<stop stop-color="#A6EFFF"/>
<stop offset="0.501" stop-color="#12ADE6"/>
<stop offset="1" stop-color="#4C63FC"/>
</linearGradient>
<linearGradient id="paint16_linear_13154_13712" x1="319.355" y1="24.8612" x2="327.275" y2="68.4483" gradientUnits="userSpaceOnUse">
<stop stop-color="white"/>
<stop offset="0.501" stop-color="#12B4E6"/>
<stop offset="1" stop-color="#DC4CFC"/>
</linearGradient>
<linearGradient id="paint17_linear_13154_13712" x1="715.412" y1="164.113" x2="719.908" y2="206.577" gradientUnits="userSpaceOnUse">
<stop stop-color="#A6EFFF"/>
<stop offset="0.501" stop-color="#12ADE6"/>
<stop offset="1" stop-color="#4C63FC"/>
</linearGradient>
<linearGradient id="paint18_linear_13154_13712" x1="700.275" y1="136.781" x2="708.195" y2="180.368" gradientUnits="userSpaceOnUse">
<stop stop-color="white"/>
<stop offset="0.501" stop-color="#12B4E6"/>
<stop offset="1" stop-color="#DC4CFC"/>
</linearGradient>
<linearGradient id="paint19_linear_13154_13712" x1="325.412" y1="594.113" x2="329.908" y2="636.577" gradientUnits="userSpaceOnUse">
<stop stop-color="#A6EFFF"/>
<stop offset="0.501" stop-color="#12ADE6"/>
<stop offset="1" stop-color="#4C63FC"/>
</linearGradient>
<linearGradient id="paint20_linear_13154_13712" x1="310.275" y1="566.781" x2="318.195" y2="610.368" gradientUnits="userSpaceOnUse">
<stop stop-color="white"/>
<stop offset="0.501" stop-color="#12B4E6"/>
<stop offset="1" stop-color="#DC4CFC"/>
</linearGradient>
<linearGradient id="paint21_linear_13154_13712" x1="56.4128" y1="278.113" x2="60.9089" y2="320.577" gradientUnits="userSpaceOnUse">
<stop stop-color="#A6EFFF"/>
<stop offset="0.501" stop-color="#12ADE6"/>
<stop offset="1" stop-color="#4C63FC"/>
</linearGradient>
<linearGradient id="paint22_linear_13154_13712" x1="41.2763" y1="250.781" x2="49.1958" y2="294.368" gradientUnits="userSpaceOnUse">
<stop stop-color="white"/>
<stop offset="0.501" stop-color="#12B4E6"/>
<stop offset="1" stop-color="#DC4CFC"/>
</linearGradient>
<linearGradient id="paint23_linear_13154_13712" x1="164.412" y1="361.113" x2="168.908" y2="403.577" gradientUnits="userSpaceOnUse">
<stop stop-color="#A6EFFF"/>
<stop offset="0.501" stop-color="#12ADE6"/>
<stop offset="1" stop-color="#4C63FC"/>
</linearGradient>
<linearGradient id="paint24_linear_13154_13712" x1="149.275" y1="333.781" x2="157.195" y2="377.368" gradientUnits="userSpaceOnUse">
<stop stop-color="white"/>
<stop offset="0.501" stop-color="#12B4E6"/>
<stop offset="1" stop-color="#DC4CFC"/>
</linearGradient>
<linearGradient id="paint25_linear_13154_13712" x1="885.508" y1="52.1126" x2="881.012" y2="94.577" gradientUnits="userSpaceOnUse">
<stop stop-color="#A6EFFF"/>
<stop offset="0.501" stop-color="#12ADE6"/>
<stop offset="1" stop-color="#4C63FC"/>
</linearGradient>
<linearGradient id="paint26_linear_13154_13712" x1="900.645" y1="24.7811" x2="892.725" y2="68.3683" gradientUnits="userSpaceOnUse">
<stop stop-color="white"/>
<stop offset="0.501" stop-color="#12B4E6"/>
<stop offset="1" stop-color="#DC4CFC"/>
</linearGradient>
<linearGradient id="paint27_linear_13154_13712" x1="885.508" y1="222.193" x2="881.012" y2="264.657" gradientUnits="userSpaceOnUse">
<stop stop-color="#A6EFFF"/>
<stop offset="0.501" stop-color="#12ADE6"/>
<stop offset="1" stop-color="#4C63FC"/>
</linearGradient>
<linearGradient id="paint28_linear_13154_13712" x1="900.645" y1="194.861" x2="892.725" y2="238.448" gradientUnits="userSpaceOnUse">
<stop stop-color="white"/>
<stop offset="0.501" stop-color="#12B4E6"/>
<stop offset="1" stop-color="#DC4CFC"/>
</linearGradient>
<linearGradient id="paint29_linear_13154_13712" x1="915.508" y1="402.193" x2="911.012" y2="444.657" gradientUnits="userSpaceOnUse">
<stop stop-color="#A6EFFF"/>
<stop offset="0.501" stop-color="#12ADE6"/>
<stop offset="1" stop-color="#4C63FC"/>
</linearGradient>
<linearGradient id="paint30_linear_13154_13712" x1="930.645" y1="374.861" x2="922.725" y2="418.448" gradientUnits="userSpaceOnUse">
<stop stop-color="white"/>
<stop offset="0.501" stop-color="#12B4E6"/>
<stop offset="1" stop-color="#DC4CFC"/>
</linearGradient>
<linearGradient id="paint31_linear_13154_13712" x1="894.492" y1="562.193" x2="898.988" y2="604.657" gradientUnits="userSpaceOnUse">
<stop stop-color="#A6EFFF"/>
<stop offset="0.501" stop-color="#12ADE6"/>
<stop offset="1" stop-color="#4C63FC"/>
</linearGradient>
<linearGradient id="paint32_linear_13154_13712" x1="879.355" y1="534.861" x2="887.275" y2="578.448" gradientUnits="userSpaceOnUse">
<stop stop-color="white"/>
<stop offset="0.501" stop-color="#12B4E6"/>
<stop offset="1" stop-color="#DC4CFC"/>
</linearGradient>
<linearGradient id="paint33_linear_13154_13712" x1="644.492" y1="582.193" x2="648.988" y2="624.657" gradientUnits="userSpaceOnUse">
<stop stop-color="#A6EFFF"/>
<stop offset="0.501" stop-color="#12ADE6"/>
<stop offset="1" stop-color="#4C63FC"/>
</linearGradient>
<linearGradient id="paint34_linear_13154_13712" x1="629.355" y1="554.861" x2="637.275" y2="598.448" gradientUnits="userSpaceOnUse">
<stop stop-color="white"/>
<stop offset="0.501" stop-color="#12B4E6"/>
<stop offset="1" stop-color="#DC4CFC"/>
</linearGradient>
<clipPath id="clip0_13154_13712">
<rect width="360" height="360" fill="white" transform="translate(321.5 115)"/>
</clipPath>
<clipPath id="clip1_13154_13712">
<rect width="60" height="60" fill="white" transform="translate(30 30)"/>
</clipPath>
<clipPath id="clip2_13154_13712">
<rect width="60" height="60" fill="white" transform="translate(608 21)"/>
</clipPath>
<clipPath id="clip3_13154_13712">
<rect width="60" height="60" fill="white" transform="translate(82.8936 562) rotate(18.354)"/>
</clipPath>
<clipPath id="clip4_13154_13712">
<rect width="60" height="60" fill="white" transform="translate(310.973 22.0801) rotate(18.354)"/>
</clipPath>
<clipPath id="clip5_13154_13712">
<rect width="60" height="60" fill="white" transform="translate(691.893 134) rotate(18.354)"/>
</clipPath>
<clipPath id="clip6_13154_13712">
<rect width="60" height="60" fill="white" transform="translate(301.893 564) rotate(18.354)"/>
</clipPath>
<clipPath id="clip7_13154_13712">
<rect width="60" height="60" fill="white" transform="translate(32.8936 248) rotate(18.354)"/>
</clipPath>
<clipPath id="clip8_13154_13712">
<rect width="60" height="60" fill="white" transform="translate(140.893 331) rotate(18.354)"/>
</clipPath>
<clipPath id="clip9_13154_13712">
<rect width="60" height="60" fill="white" transform="matrix(-0.949129 0.314887 0.314887 0.949129 909.027 22)"/>
</clipPath>
<clipPath id="clip10_13154_13712">
<rect width="60" height="60" fill="white" transform="matrix(-0.949129 0.314887 0.314887 0.949129 909.027 192.08)"/>
</clipPath>
<clipPath id="clip11_13154_13712">
<rect width="60" height="60" fill="white" transform="matrix(-0.949129 0.314887 0.314887 0.949129 939.027 372.08)"/>
</clipPath>
<clipPath id="clip12_13154_13712">
<rect width="60" height="60" fill="white" transform="translate(870.973 532.08) rotate(18.354)"/>
</clipPath>
<clipPath id="clip13_13154_13712">
<rect width="60" height="60" fill="white" transform="translate(620.973 552.08) rotate(18.354)"/>
</clipPath>
</defs>
</svg>
