<svg width="81" height="80" viewBox="0 0 81 80" fill="none" xmlns="http://www.w3.org/2000/svg">
<g clip-path="url(#clip0_12402_1990)">
<path d="M40.5 38.2852H12.5V34.2852H40.5V38.2852ZM12.5 30.2852H40.5V26.2852H12.5V30.2852ZM40.5 46.2852H12.5V42.2852H40.5V46.2852ZM12.5 54.2852H40.5V50.2852H12.5V54.2852ZM48.5 47.1652C48.4998 46.5733 48.6309 45.9887 48.8839 45.4536C49.137 44.9185 49.5056 44.4462 49.9632 44.0709C50.4209 43.6955 50.9561 43.4263 51.5304 43.2829C52.1046 43.1394 52.7036 43.1251 53.284 43.2412L57.716 44.1292C58.2335 44.2326 58.7664 44.2326 59.284 44.1292L63.716 43.2412C64.2964 43.1251 64.8953 43.1394 65.4696 43.2829C66.0438 43.4263 66.5791 43.6955 67.0367 44.0709C67.4944 44.4462 67.863 44.9185 68.1161 45.4536C68.3691 45.9887 68.5002 46.5733 68.5 47.1652V56.2852H48.5V47.1652ZM58.5 40.2852C60.6217 40.2852 62.6566 39.4423 64.1568 37.942C65.6571 36.4417 66.5 34.4069 66.5 32.2852C66.5 30.1634 65.6571 28.1286 64.1568 26.6283C62.6566 25.128 60.6217 24.2852 58.5 24.2852C56.3783 24.2852 54.3434 25.128 52.8431 26.6283C51.3429 28.1286 50.5 30.1634 50.5 32.2852C50.5 34.4069 51.3429 36.4417 52.8431 37.942C54.3434 39.4423 56.3783 40.2852 58.5 40.2852Z" fill="black"/>
<path fill-rule="evenodd" clip-rule="evenodd" d="M6.5 12.2852C4.9087 12.2852 3.38258 12.9173 2.25736 14.0425C1.13214 15.1677 0.5 16.6939 0.5 18.2852V62.2852C0.5 63.8765 1.13214 65.4026 2.25736 66.5278C3.38258 67.653 4.9087 68.2852 6.5 68.2852H74.5C76.0913 68.2852 77.6174 67.653 78.7426 66.5278C79.8679 65.4026 80.5 63.8765 80.5 62.2852V18.2852C80.5 16.6939 79.8679 15.1677 78.7426 14.0425C77.6174 12.9173 76.0913 12.2852 74.5 12.2852H6.5ZM74.5 16.2852H6.5C5.96957 16.2852 5.46086 16.4959 5.08579 16.8709C4.71071 17.246 4.5 17.7547 4.5 18.2852V62.2852C4.5 62.8156 4.71071 63.3243 5.08579 63.6994C5.46086 64.0744 5.96957 64.2852 6.5 64.2852H74.5C75.0304 64.2852 75.5391 64.0744 75.9142 63.6994C76.2893 63.3243 76.5 62.8156 76.5 62.2852V18.2852C76.5 17.7547 76.2893 17.246 75.9142 16.8709C75.5391 16.4959 75.0304 16.2852 74.5 16.2852Z" fill="black"/>
</g>
<defs>
<clipPath id="clip0_12402_1990">
<rect width="80" height="80" fill="white" transform="translate(0.5)"/>
</clipPath>
</defs>
</svg>
