<svg width="61" height="48" viewBox="0 0 61 48" fill="none" xmlns="http://www.w3.org/2000/svg">
<path d="M5.579 47.3327C4.02425 47.3327 2.72713 46.8194 1.68763 45.7927C0.648125 44.766 0.12725 43.4838 0.125 41.946V6.05268C0.125 4.51713 0.645875 3.23602 1.68763 2.20935C2.72938 1.18268 4.02537 0.668238 5.57562 0.666016H55.4244C56.9769 0.666016 58.2729 1.18046 59.3124 2.20935C60.3519 3.23824 60.8727 4.51935 60.875 6.05268V41.9494C60.875 43.4827 60.3541 44.7638 59.3124 45.7927C58.2706 46.8216 56.9746 47.3349 55.4244 47.3327H5.579ZM30.5 24.386L3.5 6.94935V41.9494C3.5 42.5471 3.69462 43.0382 4.08387 43.4227C4.47312 43.8071 4.9715 43.9994 5.579 43.9994H55.4244C56.0296 43.9994 56.5269 43.8071 56.9161 43.4227C57.3054 43.0382 57.5 42.546 57.5 41.946V6.94602L30.5 24.386ZM30.5 20.666L56.4605 3.99935H4.5395L30.5 20.666ZM3.5 6.94935V3.99935V41.9494C3.5 42.5471 3.69462 43.0382 4.08387 43.4227C4.47312 43.8071 4.9715 43.9994 5.579 43.9994H3.5V6.94935Z" fill="black"/>
</svg>
