<svg width="110" height="121" viewBox="0 0 110 121" fill="none" xmlns="http://www.w3.org/2000/svg">
<path d="M78.8422 112.102L87.5688 103.259L73.4113 89.101L64.5738 97.8277C62.5399 99.8655 61.523 102.245 61.523 104.968C61.523 107.69 62.5399 110.068 64.5738 112.102C66.6077 114.136 68.9858 115.153 71.708 115.153C74.4302 115.153 76.8083 114.136 78.8422 112.102ZM91.588 99.2452L100.425 90.5185C102.459 88.4846 103.459 86.1066 103.424 83.3843C103.389 80.6621 102.352 78.2821 100.315 76.2443C98.2808 74.2882 95.9222 73.2907 93.2388 73.2518C90.5555 73.213 88.195 74.2105 86.1572 76.2443L77.4305 85.0877L91.588 99.2452ZM82.8963 116.261C79.7463 119.411 75.9994 120.967 71.6555 120.928C67.3077 120.889 63.5608 119.333 60.4147 116.261C57.3386 113.111 55.783 109.364 55.748 105.02C55.713 100.676 57.2686 96.9293 60.4147 93.7793L82.1088 72.0793C85.1811 69.0071 88.928 67.471 93.3497 67.471C97.7674 67.471 101.514 69.0071 104.591 72.0793C107.741 75.2293 109.316 78.9782 109.316 83.326C109.316 87.6738 107.741 91.4207 104.591 94.5668L82.8963 116.261ZM10.2597 105.166C7.64634 105.166 5.4219 104.248 3.58634 102.413C1.75079 100.577 0.833008 98.3546 0.833008 95.7452V21.2535C0.833008 18.648 1.75079 16.4255 3.58634 14.586C5.4219 12.7505 7.64634 11.8327 10.2597 11.8327H37.6763C37.1436 8.85379 37.8552 6.16463 39.8113 3.76518C41.7636 1.36574 44.3263 0.166016 47.4997 0.166016C50.7469 0.166016 53.3486 1.36574 55.3047 3.76518C57.2608 6.16463 57.9355 8.85379 57.3288 11.8327H84.7455C87.3511 11.8327 89.5736 12.7505 91.413 14.586C93.2486 16.4216 94.1663 18.646 94.1663 21.2593V51.4877C93.1941 51.3749 92.2219 51.3555 91.2497 51.4293C90.2775 51.5032 89.3052 51.6121 88.333 51.756V21.2593C88.333 20.2093 87.9966 19.348 87.3238 18.6752C86.6511 18.0024 85.7916 17.666 84.7455 17.666H10.2538C9.20773 17.666 8.34828 18.0024 7.67551 18.6752C7.00273 19.348 6.66634 20.2093 6.66634 21.2593V95.7452C6.66634 96.7913 7.00273 97.6507 7.67551 98.3235C8.34828 98.9963 9.20967 99.3327 10.2597 99.3327H40.1963C39.9786 100.305 39.8327 101.277 39.7588 102.249C39.685 103.222 39.7044 104.194 39.8172 105.166H10.2597ZM47.4997 14.411C48.7636 14.411 49.8097 13.9988 50.638 13.1743C51.4663 12.3499 51.8786 11.3038 51.8747 10.036C51.8708 8.76824 51.4566 7.72407 50.6322 6.90351C49.8077 6.08296 48.7636 5.66879 47.4997 5.66102C46.2358 5.65324 45.1916 6.0674 44.3672 6.90351C43.5427 7.73963 43.1286 8.78379 43.1247 10.036C43.1208 11.2882 43.535 12.3343 44.3672 13.1743C45.1994 14.0143 46.2436 14.4266 47.4997 14.411ZM21.2497 39.4302V33.5968H73.7497V39.4302H21.2497ZM21.2497 61.416V55.5827H73.7497V57.9627C73.1974 58.3749 72.688 58.7832 72.2213 59.1877C71.7547 59.5921 71.2433 60.0724 70.6872 60.6285L69.9055 61.416H21.2497ZM21.2497 83.4077V77.5743H53.7472L52.0963 79.2193C51.3963 79.9193 50.71 80.6174 50.0372 81.3135C49.3683 82.0018 48.7169 82.698 48.083 83.4018L21.2497 83.4077Z" fill="black"/>
</svg>
