<svg width="93" height="92" viewBox="0 0 93 92" fill="none" xmlns="http://www.w3.org/2000/svg">
<path d="M80.3462 2H16.0385C12.4478 2 9.00428 3.42637 6.46532 5.96532C3.92637 8.50428 2.5 11.9478 2.5 15.5385V90L19.4231 79.8462L36.3462 90L53.2692 79.8462L70.1923 90V12.1538C70.1923 9.46088 71.2621 6.87821 73.1663 4.97399C75.0705 3.06978 77.6532 2 80.3462 2ZM80.3462 2C83.0391 2 85.6218 3.06978 87.526 4.97399C89.4302 6.87821 90.5 9.46088 90.5 12.1538V35.8462H70.1923" stroke="black" stroke-width="4" stroke-linecap="round" stroke-linejoin="round"/>
<path d="M46.3299 30.5943H56.8087V35.9555H45.9238C45.4364 39.6921 44.3533 42.6164 42.6745 44.7284C41.0499 46.8404 38.6671 48.3568 35.5262 49.2774C32.4395 50.198 28.3238 50.6583 23.1791 50.6583V57.0755C23.1791 64.3863 26.3742 68.0417 32.7644 68.0417C39.0462 68.0417 42.1871 64.5217 42.1871 57.4817H49.0105C48.9564 62.8971 47.5213 66.9857 44.7053 69.7475C41.8893 72.5094 37.8819 73.8903 32.6831 73.8903C27.3219 73.8903 23.2333 72.4011 20.4173 69.4226C17.6554 66.4441 16.2745 62.2743 16.2745 56.9131V45.4595C22.4481 45.4595 26.997 45.27 29.9213 44.8909C32.8998 44.4577 35.0659 43.5912 36.4198 42.2915C37.7736 40.9377 38.6401 38.8257 39.0191 35.9555H12.6191V30.5943H39.3441V21.8214H12.6191V16.3789H56.8087V21.8214H46.3299V30.5943Z" fill="black"/>
</svg>
