<svg width="106" height="137" viewBox="0 0 106 137" fill="none" xmlns="http://www.w3.org/2000/svg">
<path d="M78 13.5H93C95.6522 13.5 98.1957 14.5536 100.071 16.4289C101.946 18.3043 103 20.8478 103 23.5V123.5C103 126.152 101.946 128.696 100.071 130.571C98.1957 132.446 95.6522 133.5 93 133.5H13C10.3478 133.5 7.80429 132.446 5.92893 130.571C4.05357 128.696 3 126.152 3 123.5V23.5C3 20.8478 4.05357 18.3043 5.92893 16.4289C7.80429 14.5536 10.3478 13.5 13 13.5H28" stroke="black" stroke-width="6" stroke-linecap="round" stroke-linejoin="round"/>
<path d="M68.0004 3.5H38.0004C35.3482 3.5 32.8046 4.55357 30.9293 6.42893C29.0539 8.3043 28.0004 10.8478 28.0004 13.5V18.5C28.0004 21.1522 29.0539 23.6957 30.9293 25.5711C32.8046 27.4464 35.3482 28.5 38.0004 28.5H68.0004C70.6525 28.5 73.1961 27.4464 75.0714 25.5711C76.9468 23.6957 78.0004 21.1522 78.0004 18.5V13.5C78.0004 10.8478 76.9468 8.3043 75.0714 6.42893C73.1961 4.55357 70.6525 3.5 68.0004 3.5ZM46.0304 50.6C44.8899 50.6 43.7962 51.053 42.9898 51.8594C42.1834 52.6658 41.7304 53.7596 41.7304 54.9V66.97H29.6603C28.5199 66.97 27.4262 67.423 26.6198 68.2294C25.8134 69.0358 25.3604 70.1296 25.3604 71.27V85.22C25.3604 87.59 27.2903 89.52 29.6603 89.52H41.7304V101.59C41.7304 103.96 43.6604 105.89 46.0304 105.89H59.9804C61.1208 105.89 62.2145 105.437 63.0209 104.631C63.8273 103.824 64.2804 102.73 64.2804 101.59V89.5H76.3504C77.4908 89.5 78.5845 89.047 79.3909 88.2406C80.1973 87.4342 80.6504 86.3404 80.6504 85.2V71.27C80.6477 70.1313 80.1935 69.0401 79.3874 68.2359C78.5813 67.4317 77.4891 66.98 76.3504 66.98H64.2804V54.89C64.2777 53.7513 63.8235 52.6601 63.0174 51.8559C62.2113 51.0517 61.1191 50.6 59.9804 50.6H46.0304Z" stroke="black" stroke-width="6" stroke-linecap="round" stroke-linejoin="round"/>
</svg>
