<svg width="125" height="104" viewBox="0 0 125 104" fill="none" xmlns="http://www.w3.org/2000/svg">
<path d="M121.625 96.8438H116.156V52C116.156 49.9694 115.35 48.022 113.914 46.5862C112.478 45.1504 110.531 44.3438 108.5 44.3438H76.7812V8.25C76.7812 6.21944 75.9746 4.27204 74.5388 2.83621C73.103 1.40039 71.1556 0.59375 69.125 0.59375H16.625C14.5944 0.59375 12.647 1.40039 11.2112 2.83621C9.77539 4.27204 8.96875 6.21944 8.96875 8.25V96.8438H3.5C2.62976 96.8438 1.79516 97.1895 1.17981 97.8048C0.564452 98.4202 0.21875 99.2548 0.21875 100.125C0.21875 100.995 0.564452 101.83 1.17981 102.445C1.79516 103.061 2.62976 103.406 3.5 103.406H121.625C122.495 103.406 123.33 103.061 123.945 102.445C124.561 101.83 124.906 100.995 124.906 100.125C124.906 99.2548 124.561 98.4202 123.945 97.8048C123.33 97.1895 122.495 96.8438 121.625 96.8438ZM108.5 50.9062C108.79 50.9062 109.068 51.0215 109.273 51.2266C109.479 51.4317 109.594 51.7099 109.594 52V96.8438H76.7812V50.9062H108.5ZM15.5312 8.25C15.5312 7.95992 15.6465 7.68172 15.8516 7.4766C16.0567 7.27148 16.3349 7.15625 16.625 7.15625H69.125C69.4151 7.15625 69.6933 7.27148 69.8984 7.4766C70.1035 7.68172 70.2188 7.95992 70.2188 8.25V96.8438H59.2812V69.5C59.2812 68.6298 58.9356 67.7952 58.3202 67.1798C57.7048 66.5645 56.8702 66.2188 56 66.2188H29.75C28.8798 66.2188 28.0452 66.5645 27.4298 67.1798C26.8145 67.7952 26.4688 68.6298 26.4688 69.5V96.8438H15.5312V8.25ZM52.7188 96.8438H33.0312V72.7812H52.7188V96.8438ZM26.4688 34.5C26.4688 33.6298 26.8145 32.7952 27.4298 32.1798C28.0452 31.5645 28.8798 31.2188 29.75 31.2188H39.5938V21.375C39.5938 20.5048 39.9395 19.6702 40.5548 19.0548C41.1702 18.4395 42.0048 18.0938 42.875 18.0938C43.7452 18.0938 44.5798 18.4395 45.1952 19.0548C45.8105 19.6702 46.1562 20.5048 46.1562 21.375V31.2188H56C56.8702 31.2188 57.7048 31.5645 58.3202 32.1798C58.9356 32.7952 59.2812 33.6298 59.2812 34.5C59.2812 35.3702 58.9356 36.2048 58.3202 36.8202C57.7048 37.4355 56.8702 37.7812 56 37.7812H46.1562V47.625C46.1562 48.4952 45.8105 49.3298 45.1952 49.9452C44.5798 50.5605 43.7452 50.9062 42.875 50.9062C42.0048 50.9062 41.1702 50.5605 40.5548 49.9452C39.9395 49.3298 39.5938 48.4952 39.5938 47.625V37.7812H29.75C28.8798 37.7812 28.0452 37.4355 27.4298 36.8202C26.8145 36.2048 26.4688 35.3702 26.4688 34.5Z" fill="black"/>
</svg>
