<svg width="83" height="105" viewBox="0 0 83 105" fill="none" xmlns="http://www.w3.org/2000/svg">
<path d="M38.5837 86.1583H44.417V58.7708L56.667 71.0208L60.797 66.8617L41.5003 47.565L22.2037 66.8617L26.3687 70.9858L38.5837 58.7708V86.1583ZM10.0937 105C7.40644 105 5.16449 104.102 3.36782 102.305C1.57116 100.508 0.670881 98.2664 0.666992 95.5792V9.42083C0.666992 6.7375 1.56727 4.4975 3.36782 2.70083C5.16838 0.904167 7.41033 0.00388889 10.0937 0H56.0837L82.3337 26.25V95.5792C82.3337 98.2625 81.4353 100.504 79.6387 102.305C77.842 104.106 75.5981 105.004 72.907 105H10.0937ZM53.167 29.1667V5.83333H10.0937C9.19533 5.83333 8.37088 6.20667 7.62032 6.95333C6.86977 7.7 6.49644 8.5225 6.50033 9.42083V95.5792C6.50033 96.4736 6.87366 97.2961 7.62032 98.0467C8.36699 98.7972 9.18949 99.1706 10.0878 99.1667H72.9128C73.8073 99.1667 74.6298 98.7933 75.3803 98.0467C76.1309 97.3 76.5042 96.4756 76.5003 95.5733V29.1667H53.167Z" fill="black"/>
</svg>
