<svg width="110" height="110" viewBox="0 0 110 110" fill="none" xmlns="http://www.w3.org/2000/svg">
<path d="M40.916 59.8757C40.916 63.3566 39.5332 66.695 37.0718 69.1564C34.6104 71.6178 31.272 73.0007 27.791 73.0007C24.3101 73.0007 20.9717 71.6178 18.5102 69.1564C16.0488 66.695 14.666 63.3566 14.666 59.8757C14.666 56.3947 16.0488 53.0563 18.5102 50.5949C20.9717 48.1335 24.3101 46.7507 27.791 46.7507C31.272 46.7507 34.6104 48.1335 37.0718 50.5949C39.5332 53.0563 40.916 56.3947 40.916 59.8757ZM33.6243 59.8757C33.6243 58.3286 33.0098 56.8448 31.9158 55.7509C30.8218 54.6569 29.3381 54.0423 27.791 54.0423C26.2439 54.0423 24.7602 54.6569 23.6662 55.7509C22.5723 56.8448 21.9577 58.3286 21.9577 59.8757C21.9577 61.4227 22.5723 62.9065 23.6662 64.0004C24.7602 65.0944 26.2439 65.709 27.791 65.709C29.3381 65.709 30.8218 65.0944 31.9158 64.0004C33.0098 62.9065 33.6243 61.4227 33.6243 59.8757ZM14.666 29.9798C14.666 27.9673 16.2993 26.334 18.3118 26.334H78.1035C79.0704 26.334 79.9978 26.7181 80.6815 27.4018C81.3652 28.0856 81.7494 29.0129 81.7494 29.9798C81.7494 30.9468 81.3652 31.8741 80.6815 32.5578C79.9978 33.2415 79.0704 33.6257 78.1035 33.6257H18.3118C16.2993 33.6257 14.666 31.9923 14.666 29.9798ZM50.3952 56.959C49.4282 56.959 48.5009 57.3431 47.8172 58.0268C47.1335 58.7105 46.7494 59.6379 46.7494 60.6048C46.7494 61.5718 47.1335 62.4991 47.8172 63.1828C48.5009 63.8665 49.4282 64.2507 50.3952 64.2507H78.1035C79.0704 64.2507 79.9978 63.8665 80.6815 63.1828C81.3652 62.4991 81.7494 61.5718 81.7494 60.6048C81.7494 59.6379 81.3652 58.7105 80.6815 58.0268C79.9978 57.3431 79.0704 56.959 78.1035 56.959H50.3952Z" fill="black"/>
<path d="M16.8538 0.0839844C12.4059 0.0839844 8.14021 1.85091 4.99507 4.99605C1.84993 8.14119 0.0830078 12.4069 0.0830078 16.8548V79.5632C0.0830078 84.0111 1.84993 88.2768 4.99507 91.4219C8.14021 94.5671 12.4059 96.334 16.8538 96.334H79.5622C84.0101 96.334 88.2758 94.5671 91.421 91.4219C94.5661 88.2768 96.333 84.0111 96.333 79.5632V16.8548C96.333 12.4069 94.5661 8.14119 91.421 4.99605C88.2758 1.85091 84.0101 0.0839844 79.5622 0.0839844H16.8538ZM7.37467 16.8548C7.37467 14.3408 8.37337 11.9297 10.1511 10.152C11.9287 8.37435 14.3398 7.37565 16.8538 7.37565H79.5622C82.0762 7.37565 84.4873 8.37435 86.265 10.152C88.0426 11.9297 89.0413 14.3408 89.0413 16.8548V79.5632C89.0413 80.8932 88.7672 82.159 88.2713 83.3111C87.5418 85.0153 86.3272 86.4673 84.7786 87.4864C83.2301 88.5055 81.416 89.0466 79.5622 89.0423H16.8538C14.9837 89.0468 13.1543 88.4963 11.5972 87.4605C10.0401 86.4247 8.82537 84.9501 8.10676 83.2236C7.61873 82.0652 7.36972 80.8201 7.37467 79.5632V16.8548Z" fill="black"/>
<path d="M29.9792 109.459C27.251 109.462 24.5634 108.798 22.1504 107.526C19.7373 106.253 17.6718 104.409 16.1338 102.156C16.373 102.164 16.6131 102.168 16.8542 102.168H79.5625C85.5575 102.168 91.307 99.7862 95.5461 95.5471C99.7852 91.308 102.167 85.5585 102.167 79.5635V16.8552C102.167 16.616 102.163 16.3759 102.155 16.1348C104.408 17.6728 106.252 19.7383 107.525 22.1513C108.797 24.5644 109.461 27.252 109.458 29.9802V79.5635C109.458 96.0719 96.0709 109.459 79.5625 109.459H29.9792Z" fill="black"/>
</svg>
