<svg width="72" height="72" viewBox="0 0 72 72" fill="none" xmlns="http://www.w3.org/2000/svg">
<g filter="url(#filter0_d_12402_1768)">
<rect x="8" y="8" width="56" height="56" rx="12" fill="#FDFCFB"/>
<path d="M24.5458 34.6016H47.4549C47.7587 34.6016 48.0501 34.7491 48.2649 35.0116C48.4797 35.2742 48.6004 35.6303 48.6004 36.0016C48.6004 36.3729 48.4797 36.729 48.2649 36.9915C48.0501 37.2541 47.7587 37.4016 47.4549 37.4016H24.5458C24.2421 37.4016 23.9507 37.2541 23.7359 36.9915C23.5211 36.729 23.4004 36.3729 23.4004 36.0016C23.4004 35.6303 23.5211 35.2742 23.7359 35.0116C23.9507 34.7491 24.2421 34.6016 24.5458 34.6016Z" fill="#252525"/>
<path d="M24.7664 36.7008L34.2642 46.567C34.4792 46.7904 34.6 47.0935 34.6 47.4094C34.6 47.7254 34.4792 48.0284 34.2642 48.2518C34.0491 48.4753 33.7575 48.6008 33.4534 48.6008C33.1493 48.6008 32.8577 48.4753 32.6427 48.2518L22.3364 37.5432C22.2298 37.4327 22.1452 37.3014 22.0874 37.1568C22.0297 37.0123 22 36.8573 22 36.7008C22 36.5443 22.0297 36.3893 22.0874 36.2448C22.1452 36.1002 22.2298 35.9689 22.3364 35.8584L32.6427 25.1497C32.8577 24.9263 33.1493 24.8008 33.4534 24.8008C33.7575 24.8008 34.0491 24.9263 34.2642 25.1497C34.4792 25.3731 34.6 25.6762 34.6 25.9921C34.6 26.3081 34.4792 26.6111 34.2642 26.8345L24.7664 36.7008Z" fill="#252525"/>
</g>
<defs>
<filter id="filter0_d_12402_1768" x="0" y="0" width="72" height="72" filterUnits="userSpaceOnUse" color-interpolation-filters="sRGB">
<feFlood flood-opacity="0" result="BackgroundImageFix"/>
<feColorMatrix in="SourceAlpha" type="matrix" values="0 0 0 0 0 0 0 0 0 0 0 0 0 0 0 0 0 0 127 0" result="hardAlpha"/>
<feOffset/>
<feGaussianBlur stdDeviation="4"/>
<feComposite in2="hardAlpha" operator="out"/>
<feColorMatrix type="matrix" values="0 0 0 0 0 0 0 0 0 0 0 0 0 0 0 0 0 0 0.25 0"/>
<feBlend mode="normal" in2="BackgroundImageFix" result="effect1_dropShadow_12402_1768"/>
<feBlend mode="normal" in="SourceGraphic" in2="effect1_dropShadow_12402_1768" result="shape"/>
</filter>
</defs>
</svg>
