<svg width="548" height="604" viewBox="0 0 548 604" fill="none" xmlns="http://www.w3.org/2000/svg">
<path opacity="0.3" fill-rule="evenodd" clip-rule="evenodd" d="M329.453 532.188C354.372 526.271 378.134 599.297 490.302 520.977C534.35 490.209 559.778 443.778 540.424 388.627C513.979 313.265 497.535 300.497 514.826 227.316C524.885 184.808 575.233 17.0508 412.632 17.0508C337.985 17.0508 328.209 103.966 192.421 35.0815C-33.3273 -79.4868 -61.5247 547.447 113.565 547.447C185.81 547.447 232.316 509.205 314.619 532.281C319.451 533.62 324.423 533.651 329.227 532.25L329.453 532.188Z" fill="url(#paint0_linear_13004_5508)"/>
<path d="M504.09 437.111L505.785 443.121L511.238 444.959L505.785 446.796L504.09 452.806L502.423 446.796L496.97 444.959L502.423 443.121L504.09 437.111ZM43.4666 405.378L46.179 415.063L54.9942 418.053L46.179 421.042L43.4666 430.727L40.7825 421.042L31.9673 418.053L40.7825 415.063L43.4666 405.378ZM178.548 314.01L176.373 320.456L169.281 322.418L176.373 324.411L178.548 330.826L180.724 324.411L187.816 322.418L180.724 320.456L178.548 314.01ZM472.417 77.7734L470.241 84.1885L463.15 86.1815L470.241 88.1434L472.417 94.5897L474.593 88.1434L481.684 86.1815L474.593 84.1885L472.417 77.7734ZM80.2814 243.257L78.897 247.368L74.3481 248.645L78.897 249.922L80.2814 254.032L81.6659 249.922L86.2147 248.645L81.6659 247.368L80.2814 243.257ZM376.156 171.633L373.98 178.079L366.889 180.041L373.98 182.034L376.156 188.449L378.332 182.034L385.423 180.041L378.332 178.079L376.156 171.633ZM84.4347 106.859L86.9211 115.766L95.0017 118.506L86.9211 121.246L84.4347 130.153L81.9484 121.246L73.8678 118.506L81.9484 115.766L84.4347 106.859Z" fill="white"/>
<path d="M61.153 593.594L60.3901 592.94C73.9803 572.979 86.525 542.18 83.9256 518.451L84.8863 518.326C86.1012 529.506 84.0669 543.177 78.9529 557.907C74.6018 570.425 68.273 583.1 61.153 593.594Z" fill="#09A98E"/>
<path d="M60.2775 593.377C57.5369 568.62 47.2242 536.825 30.4414 521.69L31.063 520.85C38.9741 527.981 46.0941 539.41 51.6601 553.922C56.4067 566.285 59.8254 580.236 61.2664 593.253L60.2775 593.377Z" fill="#09A98E"/>
<path d="M61.2095 593.409L60.2771 593.129C65.9844 568.964 67.0015 535.269 56.4346 514.373L57.2822 513.844C62.2549 523.684 65.0803 537.2 65.4193 552.957C65.7018 566.379 64.2044 580.735 61.2095 593.409Z" fill="#09A98E"/>
<path fill-rule="evenodd" clip-rule="evenodd" d="M84.6333 521.533C83.0793 519.727 81.5254 518.855 80.6495 516.333C79.7736 513.81 80.48 510.011 81.9492 509.7C83.2206 509.233 85.6504 512.16 85.933 514.869C86.2155 517.641 85.3114 519.011 84.6333 521.533ZM84.3507 531.623C82.3447 532.028 80.9603 532.9 78.813 532.371C76.6657 531.841 74.3771 529.381 74.8857 527.98C75.1965 526.703 78.4174 526.111 80.4235 527.232C82.4295 528.353 82.9381 529.786 84.3507 531.623ZM84.4355 531.623C86.1872 532.775 87.1761 534.146 89.3799 534.488C91.5555 534.862 94.4939 533.429 94.4656 531.935C94.5787 530.596 91.7815 528.789 89.5212 529.07C87.2609 529.319 86.3568 530.471 84.4355 531.623ZM82.7968 542.242C80.7908 542.647 79.4346 543.519 77.259 542.99C75.1117 542.46 72.8232 540 73.3317 538.599C73.6425 537.291 76.8635 536.73 78.8695 537.851C80.9038 538.972 81.3841 540.405 82.7968 542.242ZM82.8815 542.242C84.6333 543.395 85.6222 544.765 87.826 545.107C90.0015 545.481 92.9399 544.049 92.9117 542.554C93.0247 541.215 90.2276 539.408 87.9672 539.689C85.7352 539.938 84.8028 541.09 82.8815 542.242ZM80.1974 552.55C78.1631 552.83 76.7505 553.609 74.6314 552.955C72.5124 552.301 70.3651 549.685 70.9584 548.315C71.354 547.038 74.5749 546.664 76.5244 547.941C78.4739 549.156 78.8695 550.619 80.1974 552.55ZM80.2822 552.55C81.9492 553.827 82.8815 555.228 85.0571 555.726C87.2326 556.225 90.2276 555.01 90.2558 553.515C90.4536 552.207 87.7412 550.214 85.4809 550.339C83.2206 550.432 82.26 551.522 80.2822 552.55ZM76.4962 562.982C74.4619 563.107 72.9927 563.761 70.9301 562.92C68.8394 562.079 66.8898 559.339 67.5679 558.031C68.02 556.785 71.2974 556.692 73.1339 558.093C74.9987 559.463 75.3095 560.958 76.4962 562.982ZM76.6092 562.982C78.1914 564.384 79.039 565.878 81.1581 566.532C83.2771 567.218 86.3568 566.221 86.498 564.726C86.7806 563.418 84.2095 561.238 81.9492 561.176C79.6889 561.114 78.6152 562.11 76.6092 562.982ZM72.6254 572.2C70.5911 571.982 69.0654 572.418 67.1159 571.297C65.1664 570.145 63.5559 567.124 64.4035 565.91C65.0251 564.757 68.246 565.162 69.913 566.813C71.58 568.494 71.693 570.02 72.6254 572.2ZM72.7101 572.2C74.1228 573.851 74.7444 575.439 76.7787 576.435C78.7847 577.432 81.9492 576.934 82.2882 575.47C82.7403 574.224 80.4517 571.671 78.2479 571.235C76.0159 570.83 74.8292 571.671 72.7101 572.2ZM32.9287 523.34C30.6684 523.215 29.0014 523.776 26.7976 522.623C24.5938 521.471 22.7008 518.201 23.5766 516.831C24.1982 515.523 27.7865 515.772 29.7077 517.547C31.6007 519.322 31.7985 521.004 32.9287 523.34ZM39.0315 530.845C37.8448 532.651 37.3928 534.332 35.4998 535.609C33.6068 536.886 30.4141 536.855 29.9338 535.454C29.3404 534.27 31.2899 531.405 33.4655 530.689C35.6128 529.942 36.8842 530.596 39.0315 530.845ZM39.088 530.782C41.0658 530.284 42.648 530.502 44.4563 529.101C46.2645 527.699 47.4794 524.43 46.5188 523.371C45.7842 522.312 42.6197 523.153 41.1505 525.052C39.7096 526.952 39.7379 528.478 39.088 530.782ZM44.5975 539.689C43.4109 541.526 42.9588 543.177 41.0658 544.453C39.1728 545.73 35.9801 545.699 35.4998 544.298C34.9064 543.114 36.856 540.249 39.0315 539.533C41.1788 538.786 42.422 539.44 44.5975 539.689ZM44.654 539.595C46.6601 539.097 48.214 539.315 50.0223 537.914C51.8305 536.512 53.0454 533.243 52.0848 532.184C51.3502 531.125 48.1858 531.966 46.7166 533.865C45.2474 535.796 45.3039 537.322 44.654 539.595ZM49.2029 549.093C47.9032 550.837 47.3664 552.488 45.4169 553.609C43.4674 554.761 40.2747 554.512 39.8509 553.079C39.3423 551.865 41.4331 549.125 43.6369 548.564C45.8124 548.003 47.0556 548.72 49.2029 549.093ZM49.2594 549.031C51.2654 548.657 52.8194 548.969 54.7124 547.692C56.5772 546.415 57.9899 543.239 57.0575 542.118C56.3794 541.028 53.1584 541.651 51.6045 543.457C50.0505 545.263 50.0223 546.789 49.2594 549.031ZM53.1019 559.432C51.6892 561.083 51.0677 562.671 49.0616 563.667C47.0274 564.664 43.8912 564.166 43.5521 562.702C43.1001 561.456 45.3886 558.903 47.6207 558.467C49.7962 558.062 50.9829 558.903 53.1019 559.432ZM53.1584 559.37C55.1927 559.152 56.7184 559.588 58.668 558.467C60.6175 557.315 62.228 554.294 61.3803 553.079C60.7588 551.927 57.5378 552.332 55.8708 553.983C54.2038 555.664 54.0908 557.19 53.1584 559.37ZM56.0969 569.055C54.5146 570.456 53.667 571.951 51.548 572.605C49.4289 573.259 46.3493 572.294 46.208 570.799C45.9255 569.491 48.4966 567.311 50.7569 567.249C53.0172 567.186 54.0626 568.183 56.0969 569.055Z" fill="#16B79E"/>
<path fill-rule="evenodd" clip-rule="evenodd" d="M56.1523 568.995C58.1866 569.12 59.6558 569.774 61.7184 568.933C63.8091 568.092 65.7587 565.351 65.0806 564.044C64.6003 562.798 61.3511 562.704 59.5146 564.106C57.6781 565.507 57.339 567.002 56.1523 568.995Z" fill="#16B79E"/>
<path fill-rule="evenodd" clip-rule="evenodd" d="M58.1862 516.926C56.1236 515.898 54.4002 515.743 52.7332 513.781C51.0662 511.819 50.3881 508.02 51.6595 507.085C52.6767 506.12 55.9259 507.802 57.1125 510.231C58.2992 512.66 57.9319 514.279 58.1862 516.926ZM61.3789 526.362C59.6554 527.576 58.6947 528.947 56.5192 529.383C54.3436 529.819 51.377 528.479 51.377 526.954C51.2357 525.614 54.0046 523.746 56.2367 523.933C58.497 524.151 59.4293 525.272 61.3789 526.362ZM61.4636 526.331C63.4697 526.673 64.8541 527.514 67.0014 526.922C69.1487 526.331 71.3525 523.808 70.8157 522.438C70.4766 521.161 67.2557 520.663 65.2779 521.846C63.2719 523.03 62.8198 524.462 61.4636 526.331ZM63.6109 536.856C61.8874 538.071 60.9268 539.441 58.7513 539.877C56.5757 540.313 53.609 538.974 53.609 537.448C53.4678 536.109 56.2367 534.241 58.4687 534.427C60.7008 534.614 61.6614 535.735 63.6109 536.856ZM63.6674 536.794C65.6735 537.137 67.0861 537.977 69.2052 537.386C71.3525 536.794 73.5845 534.272 73.0195 532.901C72.6804 531.625 69.4595 531.126 67.4817 532.31C65.5039 533.493 65.0519 534.926 63.6674 536.794ZM64.7411 547.476C62.9611 548.565 61.9157 549.873 59.7119 550.154C57.5081 550.434 54.6262 548.908 54.7109 547.413C54.6262 546.074 57.5081 544.393 59.7401 544.735C61.9722 545.078 62.8481 546.261 64.7411 547.476ZM64.7976 547.444C66.8036 547.912 68.1315 548.846 70.3071 548.41C72.4826 547.974 74.8277 545.607 74.3474 544.175C74.0649 542.867 70.8722 542.182 68.8379 543.209C66.8036 544.237 66.2668 545.669 64.7976 547.444ZM64.9106 558.655C63.0741 559.621 61.9439 560.835 59.7401 560.929C57.5363 561.022 54.7675 559.278 54.937 557.783C54.937 556.444 57.9036 554.981 60.1074 555.51C62.3112 556.039 63.1306 557.285 64.9106 558.655ZM64.9954 558.624C66.9449 559.247 68.2446 560.275 70.4201 559.994C72.6239 559.714 75.1103 557.534 74.743 556.102C74.5452 554.794 71.409 553.828 69.3182 554.7C67.1992 555.603 66.5776 556.974 64.9954 558.624ZM64.4868 568.807C62.5373 569.461 61.2658 570.52 59.062 570.271C56.8582 570.022 54.3436 567.873 54.7109 566.44C54.8805 565.133 58.0166 564.136 60.1357 564.977C62.2547 565.818 62.8763 567.188 64.4868 568.807ZM64.5716 568.807C66.4363 569.741 67.5665 570.956 69.7703 571.018C71.9741 571.08 74.7429 569.305 74.5452 567.811C74.5169 566.472 71.5503 565.039 69.3465 565.6C67.1427 566.129 66.3515 567.406 64.5716 568.807Z" fill="#4FBD9D"/>
<path fill-rule="evenodd" clip-rule="evenodd" d="M490.442 568.185C485.159 564.511 478.067 552.521 477.7 542.089C477.559 538.881 477.135 527.826 482.955 527.733C485.696 530.1 485.696 538.695 491.177 534.895C493.324 532.155 484.537 529.601 484.848 526.082C485.837 521.442 491.488 514.872 496.404 515.744C498.014 517.363 497.025 530.972 499.879 531.158C502.591 530.567 499.06 522.595 498.664 518.297C498.664 513.937 505.05 512.754 508.864 511.602C506.688 516.647 505.812 521.224 507.536 521.754C511.802 522.439 507.084 513.937 508.864 511.602C514.402 509.92 515.249 507.055 518.357 508.332C520.589 512.007 521.55 513.782 521.691 517.986C521.832 527.141 508.807 528.387 510.248 531.034C512.367 532.591 519.148 524.93 520.476 525.802C523.499 527.048 523.923 534.335 521.719 536.328C518.47 539.224 507.366 539.753 507.508 542.307C507.649 545.483 520.194 538.726 523.612 542.681C526.155 546.231 525.166 552.646 523.838 556.788C523.047 562.798 506.151 551.93 505.163 553.86C505.36 559.59 524.516 559.403 520.194 567.158C517.538 571.113 513.215 572.296 508.92 573.168C502.337 574.445 494.144 570.926 490.442 568.185ZM515.306 545.265C514.741 544.829 513.921 545.016 513.497 545.733C513.045 546.418 513.158 547.352 513.723 547.788C514.289 548.224 515.108 548.006 515.56 547.321C515.984 546.604 515.871 545.67 515.306 545.265ZM499.597 539.816C499.851 542.12 497.308 540.189 496.941 538.975C496.206 537.605 495.471 535.425 496.517 534.086C498.325 534.241 499.173 536.92 499.597 539.816ZM493.833 547.258C495.584 544.456 490.527 540.252 488.945 540.968C487.73 542.058 492.138 548.816 493.833 547.258ZM503.298 559.684C504.258 560.369 502.62 560.867 502.026 560.618C501.235 560.462 500.162 560.026 500.02 559.061C500.727 558.251 502.083 558.812 503.298 559.684ZM512.961 532.529C511.746 532.03 510.192 532.965 509.288 533.868C509.457 534.927 510.87 534.553 511.746 534.366C512.706 534.241 513.639 533.183 512.961 532.529Z" fill="#17B59C"/>
<path d="M484.34 589.606C484.029 589.482 483.859 589.108 483.944 588.735C486.911 576.247 490.753 564.133 495.415 552.735C500.642 539.874 507.084 527.418 514.515 515.709C514.713 515.366 515.136 515.304 515.447 515.522C515.758 515.74 515.814 516.207 515.617 516.549C501.518 538.691 491.601 562.42 485.272 589.108C485.187 589.513 484.82 589.731 484.453 589.638C484.396 589.638 484.368 589.638 484.34 589.606Z" fill="#1E5025"/>
<path d="M504.994 533.803C504.881 533.741 504.768 533.648 504.711 533.554C503.185 531.063 502.253 528.416 501.999 525.675C501.773 523.122 502.084 520.506 502.959 517.828C503.072 517.454 503.468 517.267 503.807 517.392C504.146 517.517 504.316 517.952 504.203 518.326C502.507 523.433 503.044 528.291 505.785 532.713C505.983 533.056 505.926 533.492 505.615 533.741C505.418 533.866 505.192 533.897 504.994 533.803ZM494.512 556.879C494.512 556.879 494.483 556.879 494.483 556.848C486.261 552.457 481.713 544.516 481.345 533.897C481.345 533.492 481.628 533.149 481.995 533.149C482.362 533.149 482.673 533.461 482.673 533.866C483.012 543.893 487.307 551.398 495.048 555.54C495.387 555.727 495.529 556.163 495.359 556.505C495.19 556.879 494.822 557.035 494.512 556.879ZM504.683 549.654C502.846 548.813 500.925 547.661 498.863 546.166C498.552 545.948 498.467 545.481 498.665 545.17C498.863 544.827 499.286 544.734 499.569 544.952C506.774 550.121 512.538 551.242 519.46 548.845C519.799 548.72 520.194 548.938 520.279 549.312C520.392 549.685 520.194 550.121 519.855 550.215C515.928 551.585 512.283 551.865 508.723 551.056C507.424 550.775 506.067 550.308 504.683 549.654Z" fill="#1E5125"/>
<path d="M497.196 566.72C495.105 565.754 493.382 564.477 491.941 563.232C491.658 562.983 491.602 562.515 491.828 562.204C492.054 561.893 492.478 561.83 492.76 562.08C496.801 565.63 502.96 569.149 514.911 565.1C515.25 564.976 515.618 565.194 515.731 565.598C515.844 565.972 515.646 566.377 515.279 566.502C507 569.304 501.321 568.619 497.196 566.72Z" fill="#1E5025"/>
<path fill-rule="evenodd" clip-rule="evenodd" d="M476.344 569.393C470.213 570.514 457.668 566.715 451.085 559.179C449.05 556.874 442.072 548.933 446.366 544.574C449.841 544.356 455.012 550.802 456.82 543.92C456.764 540.307 448.655 544.792 446.79 541.958C444.728 537.754 445.01 528.723 449.22 525.764C451.424 525.795 458.854 536.695 461.087 534.733C462.782 532.304 455.323 528.91 452.441 526.013C449.813 522.744 453.882 517.2 456.057 513.526C457.47 518.882 459.561 522.962 461.171 522.09C464.788 519.505 456.142 516.578 456.057 513.526C459.193 508.232 458.092 505.46 461.171 504.152C465.07 505.273 466.822 505.896 469.478 508.948C475.072 515.675 466.087 526.138 468.743 527.072C471.258 526.699 471.738 516.017 473.264 515.675C476.259 514.398 480.977 519.567 480.525 522.65C479.847 527.197 471.851 535.698 473.462 537.505C475.468 539.778 480.808 525.546 485.752 526.013C489.792 526.792 492.9 532.335 494.426 536.415C497.449 541.491 478.293 545.726 478.689 547.875C482.277 552.016 496.489 537.878 497.93 546.847C498.325 551.736 495.811 555.784 493.126 559.584C489.001 565.407 480.751 568.739 476.344 569.393ZM481.147 534.048C480.469 534.141 479.988 534.889 480.073 535.729C480.158 536.57 480.779 537.193 481.486 537.1C482.164 537.006 482.672 536.259 482.588 535.418C482.475 534.577 481.825 533.986 481.147 534.048ZM466.116 541.491C467.698 543.017 464.618 543.421 463.629 542.799C462.273 542.3 460.408 541.21 460.38 539.435C461.821 538.221 464.081 539.622 466.116 541.491ZM466.257 551.269C465.89 547.875 459.561 548.466 458.826 550.148C458.572 551.829 465.946 553.667 466.257 551.269ZM480.836 553.636C481.994 553.449 481.034 555.006 480.44 555.255C479.762 555.722 478.689 556.189 477.982 555.566C478.067 554.445 479.395 553.885 480.836 553.636ZM471.738 526.263C470.523 526.761 469.93 528.629 469.789 529.968C470.552 530.622 471.371 529.314 471.936 528.536C472.586 527.726 472.642 526.263 471.738 526.263Z" fill="#17B59C"/>
<path d="M484.115 590.043C483.946 589.95 483.776 589.825 483.691 589.607C478.408 578.085 474 566.189 470.582 554.262C466.767 540.809 464.055 526.764 462.586 512.564C462.529 512.066 462.868 511.598 463.32 511.567C463.772 511.505 464.196 511.879 464.224 512.377C467.022 539.252 473.859 564.258 485.132 588.797C485.33 589.233 485.189 589.794 484.765 590.012C484.596 590.168 484.341 590.168 484.115 590.043Z" fill="#1E5125"/>
<path d="M463.687 532.343C462.02 531.596 460.551 530.537 459.28 529.26C457.556 527.516 456.2 525.274 455.239 522.627C455.07 522.16 455.268 521.631 455.692 521.444C456.115 521.257 456.596 521.475 456.765 521.942C458.573 526.956 461.851 530.132 466.484 531.44C466.937 531.565 467.191 532.063 467.078 532.561C466.965 533.059 466.513 533.34 466.061 533.215C465.27 532.997 464.45 532.717 463.687 532.343ZM457.613 557.381C454.477 555.948 451.51 553.644 448.798 550.53C448.487 550.156 448.487 549.595 448.826 549.253C449.165 548.91 449.673 548.91 449.984 549.284C456.257 556.509 463.913 558.969 472.135 556.415C472.587 556.291 473.039 556.571 473.152 557.038C473.265 557.536 473.011 558.035 472.587 558.159C467.304 559.778 462.246 559.529 457.613 557.381ZM468.971 546.917C468.717 546.793 468.519 546.543 468.462 546.201C468.406 545.703 468.717 545.235 469.169 545.173C477.617 543.772 482.561 540.44 486.29 533.62C486.516 533.184 487.025 533.059 487.421 533.308C487.816 533.558 487.929 534.118 487.703 534.554C485.556 538.478 482.985 541.374 479.82 543.367C477.051 545.111 473.746 546.263 469.423 546.979C469.253 547.011 469.112 546.979 468.971 546.917ZM474.113 564.699C473.83 564.574 473.633 564.263 473.604 563.889C473.576 563.391 473.944 562.955 474.396 562.924C479.51 562.612 486.206 560.775 492.676 549.097C492.902 548.661 493.41 548.536 493.806 548.786C494.202 549.035 494.315 549.595 494.089 550.031C490.952 555.668 487.562 559.592 483.691 561.958C480.131 564.138 476.91 564.574 474.48 564.73C474.339 564.792 474.226 564.761 474.113 564.699Z" fill="#1E5125"/>
<path fill-rule="evenodd" clip-rule="evenodd" d="M258.366 312.984L255.399 299.344C257.49 298.254 259.58 297.164 261.699 296.105C262.208 290.749 261.417 282.123 263.282 280.067C266.926 275.832 266.22 286.576 268.396 289.597C273.792 295.762 285.8 279.849 288.851 281.157C295.152 282.901 284.133 299.562 278.228 301.96C268.876 303.672 263.536 309.496 258.366 312.984ZM156.595 273.061L155.126 282.528L129.132 283.275L131.28 266.801C122.267 257.646 126.787 240.705 132.664 228.996C143.74 230.086 156.397 227.034 167.473 228.124C165.975 241.577 170.722 271.036 161.37 272.562C159.731 272.78 158.121 272.936 156.595 273.061Z" fill="#EEAC8C"/>
<path fill-rule="evenodd" clip-rule="evenodd" d="M130.489 563.549L138.118 572.3C148.459 578.247 167.106 571.677 169.169 590.143L121.053 590.829C119.216 583.853 118.821 577.158 122.917 569.497L130.489 563.549Z" fill="#071C3E"/>
<path fill-rule="evenodd" clip-rule="evenodd" d="M172.672 564.107L180.301 572.858C190.641 578.806 209.289 572.235 211.352 590.702L163.235 591.387C161.399 584.411 161.003 577.716 165.1 570.055L172.672 564.107Z" fill="#1A3763"/>
<path fill-rule="evenodd" clip-rule="evenodd" d="M136.534 402.607L181.316 431.008L192.166 491.951L186.854 574.382L162.076 574.071L159.73 493.54L149.898 459.627L141.252 572.7L116.078 572.015L113.422 428.517L136.534 402.607Z" fill="#1F1515"/>
<path fill-rule="evenodd" clip-rule="evenodd" d="M154.843 278.264L136.733 277.33C124.809 278.233 118.226 280.6 109.665 291.562L94.5213 312.644C86.2711 323.948 88.0229 329.149 94.5213 334.785L110.146 346.868C109.015 375.456 107.857 404.075 106.727 432.662C118.113 439.669 131.025 443.188 143.881 443.811L147.497 429.641L151.114 443.842C165.128 443.312 178.718 439.357 189.737 432.693L182.645 337.744L210.871 341.605C223.642 342.944 226.354 340.578 233.22 336.062L262.886 312.613L255.794 297.011L220.788 312.613C205.418 303.426 190.076 294.271 174.706 285.084C167.699 280.693 163.856 279.167 154.843 278.264Z" fill="white"/>
<path fill-rule="evenodd" clip-rule="evenodd" d="M167.162 234.851C173.18 231.364 175.751 216.852 166.342 210.374C154.843 202.683 121.334 204.863 117.831 229.869C117.915 242.668 121.871 257.865 129.443 266.273C135.941 271.691 145.067 266.366 145.067 259.328C145.661 239.927 159.279 241.858 167.162 234.851Z" fill="#1E194E"/>
<path fill-rule="evenodd" clip-rule="evenodd" d="M176.26 339.545C155.606 348.856 147.046 351.472 125.912 349.946C140.745 355.365 160.014 352.001 176.26 339.545Z" fill="#8DAFDB"/>
<path fill-rule="evenodd" clip-rule="evenodd" d="M320.722 271.284L320.637 266.208C320.213 262.347 321.626 255.06 319.309 254.593C317.783 254.437 318.32 259.42 316.455 260.727C312.048 261.35 309.194 247.897 305.634 248.707C300.322 249.766 296.904 256.617 299.644 261.475C300.916 264.153 308.573 268.077 314.704 272.935L320.722 271.284ZM423.735 546.479L414.948 553.485C411.756 564.416 405.653 571.267 400.567 579.893L425.261 568.371L423.735 546.479Z" fill="#F69668"/>
<path fill-rule="evenodd" clip-rule="evenodd" d="M413.959 530.698L427.634 529.92L425.204 553.992C424.215 556.701 415.089 558.29 414.948 553.525L413.959 530.698Z" fill="#F69668"/>
<path fill-rule="evenodd" clip-rule="evenodd" d="M377.484 586.096C369.036 578.311 402.122 586.657 423.284 555.391C424.188 553.834 425.177 553.99 425.233 555.329C427.607 567.1 426.053 577.875 426.476 589.179L424.47 589.428C423.849 583.792 423.284 578.186 422.719 572.581C420.063 578.965 408.818 586.594 404.156 586.812C400.031 587.497 387.938 586.345 377.484 586.096Z" fill="#15489D"/>
<path fill-rule="evenodd" clip-rule="evenodd" d="M382.908 548.477L374.121 555.483C370.929 566.414 364.826 573.203 359.74 581.891L384.434 570.369L382.908 548.477Z" fill="#F69668"/>
<path fill-rule="evenodd" clip-rule="evenodd" d="M373.132 532.626L386.807 531.879L384.377 555.951C383.388 558.66 374.262 560.249 374.121 555.484L373.132 532.626Z" fill="#F69668"/>
<path fill-rule="evenodd" clip-rule="evenodd" d="M336.685 588.089C328.181 580.242 361.322 588.619 382.484 557.384C383.389 555.765 384.377 555.983 384.434 557.291C386.807 569.124 385.253 579.899 385.677 591.203L383.671 591.421C383.05 585.816 382.484 580.242 381.919 574.636C379.264 581.02 368.018 588.65 363.357 588.868C359.232 589.49 347.111 588.338 336.685 588.089ZM414.185 343.164L372.709 385.236C368.103 407.471 362.566 429.799 363.018 443.781L371.465 538.886C378.077 538.637 384.66 538.419 391.271 538.139L392.825 447.362L402.658 414.882L413.988 539.073H434.5L431.929 390.249L414.185 343.164Z" fill="#1F1515"/>
<path fill-rule="evenodd" clip-rule="evenodd" d="M406.021 298.379C409.863 288.663 413.706 278.915 417.548 269.23C430.969 284.303 453.063 300.372 457.838 314.479C460.211 323.727 428.172 360.63 416.022 375.733C414.412 370.813 412.943 367.356 411.332 362.436C421.927 347.986 432.127 334.44 439.812 318.496C430.319 312.33 415.514 304.545 406.021 298.379Z" fill="white"/>
<path fill-rule="evenodd" clip-rule="evenodd" d="M427.86 282.75C419.61 277.207 411.388 271.664 403.138 266.121C395.397 269.111 382.908 270.886 379.885 275.027C348.806 307.663 371.635 323.327 321.936 264.969C318.15 267.958 316.823 268.643 312.98 273.19C326.853 295.331 352.846 355.776 380.281 313.954C377.992 343.289 370.872 366.489 368.612 395.886C384.038 413.263 422.775 406.599 434.02 399.81C433.822 359.42 428.002 323.078 427.86 282.75Z" fill="white"/>
<path fill-rule="evenodd" clip-rule="evenodd" d="M415.23 229.908L385.846 227.074C384.66 246.631 386.27 267.091 398.278 267.402C411.529 267.838 415.174 247.316 415.23 229.908Z" fill="#F69668"/>
<path fill-rule="evenodd" clip-rule="evenodd" d="M391.837 238.062C386.525 236.692 383.813 235.602 381.976 230.526C378.557 220.841 386.44 215.142 394.351 215.36C396.781 215.422 400.059 214.737 404.325 214.986C416.192 215.765 421.588 229.778 419.384 240.211C416.954 251.515 414.779 250.674 418.96 262.134C423.086 273.438 437.382 281.846 420.769 295.922C406.585 308.005 384.039 296.078 392.345 270.293C395.34 261.075 406.303 247.903 397.431 240.647C396.583 239.962 391.978 238.124 391.837 238.062Z" fill="#23366E"/>
<path fill-rule="evenodd" clip-rule="evenodd" d="M398.985 251.36L397.12 244.727C397.487 242.36 399.296 239.744 401.782 242.018C404.41 245.132 400.369 249.928 398.985 251.36Z" fill="#F69668"/>
<path d="M303.911 16.2362C352.423 18.7275 391.837 56.8131 398.053 105.642C391.074 101.127 383.502 98.6668 375.563 98.6668C362.905 98.6668 351.123 104.957 341.235 115.826C338.042 81.0721 330.329 52.0486 320.157 34.9209C326.288 54.9447 330.865 83.4388 333.013 116.417C323.011 105.206 311.031 98.6668 298.176 98.6668C285.942 98.6668 274.527 104.553 264.836 114.767C267.04 82.5046 271.589 54.6333 277.607 34.9209C267.322 52.2354 259.553 81.6949 256.416 116.916C246.415 105.393 234.407 98.6668 221.466 98.6668C213.81 98.6668 206.464 101.034 199.683 105.331C206.04 56.6263 245.397 18.7275 293.825 16.2674C293.768 15.8937 293.74 15.52 293.74 15.1152C293.74 11.4094 296.028 8.38867 298.854 8.38867C301.679 8.38867 303.968 11.4094 303.968 15.1152C303.996 15.4889 303.968 15.8625 303.911 16.2362Z" fill="url(#paint1_linear_13004_5508)"/>
<path d="M278.879 228.65C293.486 228.65 305.437 215.478 305.437 199.378V114.611H292.243V197.665C292.243 205.294 286.592 211.523 279.67 211.523C272.747 211.523 267.068 205.294 267.068 197.665V187.731C267.097 179.509 252.179 178.638 252.348 187.731V199.346C252.32 215.478 264.271 228.65 278.879 228.65Z" fill="url(#paint2_linear_13004_5508)"/>
<path fill-rule="evenodd" clip-rule="evenodd" d="M304.929 591.26C305.127 590.17 305.409 589.143 305.777 588.084C306.172 590.388 306.427 592.724 306.511 595.06C306.059 593.752 305.522 592.506 304.929 591.26ZM49.9943 591.26C50.2486 590.17 50.5311 589.143 50.8419 588.084C51.2374 590.388 51.4917 592.724 51.6047 595.06C51.1527 593.752 50.6441 592.506 49.9943 591.26ZM181.234 591.26C181.488 590.17 181.77 589.143 182.081 588.084C182.477 590.388 182.731 592.724 182.844 595.06C182.42 593.752 181.883 592.506 181.234 591.26ZM244.24 591.26C244.042 590.17 243.759 589.143 243.392 588.084C242.997 590.388 242.742 592.724 242.658 595.06C243.053 593.752 243.59 592.506 244.24 591.26ZM240.425 581.638C239.521 580.174 238.476 578.679 237.233 577.216C236.385 579.8 235.764 582.385 235.34 585.032C236.074 586.34 236.724 587.679 237.233 589.049C238.109 586.527 239.182 584.067 240.425 581.638ZM237.346 576.873C238.73 577.963 239.973 579.115 241.104 580.33C242.318 578.15 243.646 576.063 245.229 574.07C244.579 573.292 243.929 572.482 243.194 571.735C244.042 572.327 244.861 572.949 245.596 573.572C247.913 570.676 250.625 567.936 253.818 565.475C254.552 564.168 255.315 562.891 256.163 561.583C255.767 562.579 255.4 563.545 255.061 564.51C255.174 564.417 255.259 564.386 255.343 564.292C255.23 564.417 255.146 564.541 255.033 564.666C253.055 570.52 252.236 575.877 252.32 580.89C253.535 582.603 254.552 584.347 255.428 586.122C256.191 582.198 257.406 578.212 259.186 574.351C258.508 573.51 257.773 572.638 256.954 571.766C257.858 572.389 258.706 573.074 259.497 573.728C260.514 571.61 261.672 569.493 263.113 567.469C262.266 566.41 261.418 565.382 260.429 564.323C261.531 565.102 262.576 565.943 263.594 566.783C264.724 565.195 265.939 563.638 267.351 562.112C266.249 563.981 265.289 565.787 264.526 567.593C265.995 568.932 267.351 570.302 268.623 571.704C269.951 569.648 271.505 567.655 273.143 565.693C271.448 562.984 269.414 560.213 266.984 557.41C269.809 559.528 272.296 561.801 274.528 564.168C276.76 561.801 279.275 559.528 282.1 557.41C279.67 560.213 277.636 562.953 275.912 565.693C277.608 567.655 279.162 569.648 280.489 571.704C281.733 570.334 283.117 568.932 284.586 567.593C283.767 565.787 282.835 564.012 281.761 562.112C283.145 563.669 284.388 565.195 285.519 566.783C286.536 565.943 287.581 565.102 288.683 564.323C287.722 565.382 286.818 566.41 285.999 567.469C287.412 569.524 288.598 571.61 289.615 573.728C290.435 573.074 291.282 572.389 292.158 571.766C291.339 572.638 290.633 573.51 289.926 574.351C291.706 578.243 292.921 582.198 293.684 586.122C294.588 584.378 295.577 582.603 296.792 580.89C296.877 575.877 296.057 570.52 294.08 564.666C293.967 564.541 293.825 564.417 293.769 564.292C293.854 564.386 293.938 564.417 294.051 564.51C293.684 563.545 293.317 562.579 292.949 561.583C293.797 562.891 294.56 564.168 295.294 565.475C298.487 567.936 301.2 570.707 303.46 573.572C304.223 572.949 305.042 572.327 305.89 571.735C305.155 572.482 304.477 573.292 303.855 574.07C305.438 576.063 306.766 578.181 307.952 580.33C309.082 579.115 310.354 577.963 311.766 576.873C309.591 570.396 306.031 563.918 300.295 557.348C308.517 563.545 314.055 571.019 317.813 578.866C318.717 577.776 319.621 576.749 320.638 575.69C319.593 571.33 317.813 566.846 315.016 562.081C318.378 565.787 320.921 569.68 322.87 573.697C323.69 573.043 324.481 572.358 325.385 571.735C324.622 572.607 323.859 573.479 323.153 574.32C324.961 578.212 326.148 582.167 326.911 586.091C327.815 584.347 328.86 582.572 330.018 580.859V580.579C329.001 579.022 327.786 577.496 326.402 575.908C327.702 576.873 328.917 577.87 330.018 578.928C329.849 573.572 328.719 567.842 326.176 561.583C329.566 566.69 331.798 571.891 333.098 577.091C333.946 576.157 334.85 575.285 335.782 574.413C335.104 573.541 334.313 572.607 333.522 571.735C334.539 572.451 335.471 573.167 336.347 573.946C337.195 573.167 338.156 572.451 339.145 571.735C338.325 572.607 337.562 573.541 336.884 574.413C337.845 575.285 338.749 576.157 339.568 577.091C340.896 571.922 343.1 566.69 346.491 561.583C343.976 567.842 342.818 573.572 342.648 578.928C343.778 577.87 344.965 576.873 346.293 575.908C344.88 577.496 343.665 579.053 342.648 580.579V580.859C343.863 582.572 344.88 584.316 345.756 586.091C346.519 582.167 347.705 578.181 349.514 574.32C348.836 573.479 348.101 572.607 347.282 571.735C348.186 572.358 349.033 573.043 349.796 573.697C351.746 569.68 354.289 565.787 357.679 562.081C354.854 566.846 353.074 571.361 352 575.69C353.017 576.749 353.978 577.776 354.825 578.866C358.583 571.019 364.149 563.545 372.399 557.348C366.692 563.918 363.076 570.396 360.928 576.873C362.313 577.963 363.556 579.115 364.686 580.33C365.873 578.15 367.229 576.063 368.783 574.07C368.19 573.292 367.483 572.482 366.805 571.735C367.624 572.327 368.416 572.949 369.207 573.572C371.467 570.676 374.179 567.936 377.429 565.475C378.107 564.168 378.926 562.891 379.774 561.583C379.378 562.579 379.011 563.545 378.672 564.51C378.756 564.417 378.841 564.386 378.954 564.292C378.841 564.417 378.7 564.541 378.587 564.666C376.609 570.52 375.846 575.877 375.903 580.89C377.089 582.603 378.135 584.347 379.011 586.122C379.745 582.198 380.96 578.212 382.74 574.351C382.062 573.51 381.328 572.638 380.565 571.766C381.412 572.389 382.26 573.074 383.079 573.728C384.972 569.711 387.572 565.818 390.934 562.112C388.137 566.877 386.328 571.392 385.311 575.721C386.328 576.78 387.261 577.807 388.137 578.897C389.917 575.192 392.064 571.548 394.776 568.06C393.816 566.815 392.742 565.538 391.612 564.292C392.94 565.257 394.211 566.254 395.37 567.313C397.121 565.133 399.043 563.046 401.19 561.085C400.258 559.839 399.241 558.624 398.167 557.379C399.495 558.375 400.71 559.372 401.925 560.431C403.111 559.372 404.354 558.375 405.654 557.379C404.552 558.624 403.592 559.839 402.659 561.085C404.807 563.046 406.7 565.133 408.451 567.313C409.638 566.254 410.881 565.257 412.209 564.292C411.079 565.538 410.034 566.815 409.045 568.06C411.757 571.517 413.933 575.16 415.713 578.897C416.56 577.807 417.493 576.78 418.538 575.721C417.493 571.361 415.656 566.877 412.859 562.112C416.249 565.818 418.82 569.711 420.713 573.728C421.533 573.074 422.38 572.389 423.256 571.766C422.437 572.638 421.731 573.51 421.024 574.351C422.804 578.243 424.019 582.198 424.782 586.122C425.686 584.378 426.675 582.603 427.89 580.89C427.975 575.877 427.155 570.52 425.178 564.666C425.065 564.541 424.923 564.417 424.867 564.292C424.952 564.386 425.036 564.417 425.149 564.51C424.782 563.545 424.415 562.579 424.047 561.583C424.895 562.891 425.658 564.168 426.392 565.475C429.585 567.936 432.298 570.707 434.558 573.572C435.321 572.949 436.14 572.327 436.988 571.735C436.253 572.482 435.603 573.292 434.953 574.07C436.536 576.063 437.864 578.181 439.078 580.33C440.18 579.115 441.424 577.963 442.836 576.873C440.661 570.396 437.101 563.918 431.365 557.348C439.587 563.545 445.125 571.019 448.883 578.866C449.787 577.776 450.691 576.749 451.708 575.69C450.663 571.33 448.883 566.846 446.085 562.081C449.448 565.787 451.991 569.68 453.94 573.697C454.759 573.043 455.551 572.358 456.455 571.735C455.692 572.607 454.929 573.479 454.223 574.32C456.031 578.212 457.217 582.167 457.98 586.091C458.884 584.347 459.93 582.572 461.088 580.859V580.579C460.071 579.022 458.856 577.496 457.472 575.908C458.771 576.873 459.986 577.87 461.088 578.928C460.919 573.572 459.789 567.842 457.246 561.583C460.636 566.69 462.868 571.891 464.168 577.091C465.016 576.157 465.92 575.285 466.852 574.413C466.174 573.541 465.383 572.607 464.592 571.735C465.609 572.451 466.541 573.167 467.417 573.946C468.321 573.167 469.225 572.451 470.214 571.735C469.395 572.607 468.632 573.541 467.954 574.413C468.915 575.285 469.819 576.157 470.638 577.091C471.966 571.922 474.17 566.69 477.56 561.583C475.046 567.842 473.887 573.572 473.718 578.928C474.848 577.87 476.035 576.873 477.362 575.908C475.95 577.496 474.735 579.053 473.718 580.579V580.859C474.933 582.572 475.95 584.316 476.826 586.091C477.589 582.167 478.803 578.181 480.583 574.32C479.905 573.479 479.171 572.607 478.351 571.735C479.255 572.358 480.103 573.043 480.866 573.697C482.815 569.68 485.358 565.787 488.749 562.081C485.923 566.846 484.143 571.361 483.07 575.69C484.087 576.749 485.048 577.776 485.895 578.866C489.653 571.019 495.219 563.545 503.469 557.348C497.762 563.918 494.145 570.396 491.998 576.873C493.382 577.963 494.626 579.115 495.756 580.33C496.942 578.15 498.299 576.063 499.853 574.07C499.259 573.292 498.553 572.482 497.875 571.735C498.694 572.327 499.485 572.949 500.276 573.572C502.537 570.676 505.249 567.936 508.498 565.475C509.176 564.168 509.996 562.891 510.843 561.583C510.448 562.579 510.08 563.545 509.741 564.51C509.826 564.417 509.911 564.386 510.024 564.292C509.911 564.417 509.77 564.541 509.657 564.666C507.679 570.52 506.916 575.877 506.973 580.89C508.159 582.603 509.205 584.347 510.081 586.122C510.815 582.198 512.03 578.212 513.81 574.351C513.132 573.51 512.397 572.638 511.634 571.766C512.482 572.389 513.33 573.074 514.149 573.728C516.042 569.711 518.641 565.818 522.004 562.112C519.206 566.877 517.398 571.392 516.381 575.721C517.398 576.78 518.331 577.807 519.206 578.897C522.936 571.05 528.53 563.576 536.724 557.379C528.615 566.69 524.773 575.814 523.247 585.032C523.981 586.34 524.575 587.679 525.14 589.049C528.304 580.018 533.757 571.174 543.279 564.323C533.955 574.569 531.017 584.69 530.536 595.091C532.203 590.326 535.029 585.593 540.086 581.98C536.074 586.371 534.351 590.762 533.701 595.215H15.1855C14.5356 590.731 12.7839 586.371 8.80011 581.98C13.8293 585.624 16.6829 590.326 18.3217 595.091C17.8414 584.69 14.8747 574.569 5.60742 564.323C15.129 571.174 20.5537 580.05 23.7464 589.049C24.2832 587.679 24.9331 586.34 25.6394 585.032C24.1137 575.783 20.2429 566.69 12.1623 557.379C20.3842 563.576 25.9785 571.05 29.6797 578.897C30.5839 577.807 31.488 576.78 32.5051 575.721C31.4597 571.361 29.6797 566.877 26.8826 562.112C30.2448 565.818 32.7877 569.711 34.7372 573.728C35.5565 573.074 36.3476 572.389 37.2518 571.766C36.4889 572.638 35.7261 573.51 35.0197 574.351C36.828 578.243 38.0146 582.198 38.7775 586.122C39.6816 584.378 40.727 582.603 41.8854 580.89C41.9702 575.877 41.2073 570.52 39.2013 564.666C39.0883 564.541 38.947 564.417 38.834 564.292C38.947 564.386 39.0318 564.417 39.1165 564.51C38.8057 563.545 38.4384 562.579 38.0146 561.583C38.8622 562.891 39.6816 564.168 40.3597 565.475C43.5524 567.936 46.2648 570.707 48.5816 573.572C49.3444 572.949 50.1638 572.327 50.9832 571.735C50.3051 572.482 49.5987 573.292 49.0054 574.07C50.5311 576.063 51.9155 578.181 53.1022 580.33C54.2324 579.115 55.5038 577.963 56.86 576.873C54.7127 570.396 51.1244 563.918 45.3889 557.348C53.639 563.545 59.205 571.019 62.9628 578.866C63.8104 577.776 64.7428 576.749 65.7882 575.69C64.7428 571.33 62.9628 566.846 60.1092 562.081C63.4996 565.787 66.0707 569.68 67.9637 573.697C68.7831 573.043 69.6307 572.358 70.5066 571.735C69.6872 572.607 68.9809 573.479 68.2745 574.32C70.0545 578.212 71.2694 582.167 72.0323 586.091C72.9364 584.347 73.9253 582.572 75.1402 580.859V580.579C74.1231 579.022 72.9082 577.496 71.4955 575.908C72.8234 576.873 74.0101 577.87 75.112 578.928C74.9425 573.572 73.8123 567.842 71.2977 561.583C74.6882 566.69 76.892 571.891 78.2199 577.091C79.0393 576.157 79.9151 575.285 80.904 574.413C80.2259 573.541 79.4348 572.607 78.6437 571.735C79.6043 572.451 80.5367 573.167 81.4408 573.946C82.345 573.167 83.2491 572.451 84.2662 571.735C83.4469 572.607 82.684 573.541 82.0059 574.413C82.9383 575.285 83.8142 576.157 84.69 577.091C85.9897 571.922 88.2218 566.69 91.6122 561.583C89.0694 567.842 87.9392 573.572 87.7697 578.928C88.8716 577.87 90.0865 576.873 91.3862 575.908C89.9735 577.496 88.7869 579.053 87.7697 580.579V580.859C88.9564 582.572 90.0018 584.316 90.8776 586.091C91.6122 582.167 92.8272 578.181 94.6072 574.32C93.9573 573.479 93.1945 572.607 92.4316 571.735C93.3357 572.358 94.1268 573.043 94.9462 573.697C96.8957 569.68 99.4386 565.787 102.801 562.081C100.004 566.846 98.1954 571.361 97.1783 575.69C98.1954 576.749 99.1278 577.776 100.004 578.866C103.733 571.019 109.327 563.545 117.521 557.348C111.814 563.918 108.197 570.396 106.05 576.873C107.434 577.963 108.678 579.115 109.808 580.33C111.023 578.15 112.351 576.063 113.933 574.07C113.283 573.292 112.633 572.482 111.899 571.735C112.746 572.327 113.566 572.949 114.3 573.572C116.617 570.676 119.329 567.936 122.522 565.475C123.257 564.168 124.019 562.891 124.867 561.583C124.472 562.579 124.104 563.545 123.765 564.51C123.878 564.417 123.963 564.386 124.048 564.292C123.935 564.417 123.85 564.541 123.737 564.666C121.759 570.52 120.94 575.877 121.025 580.89C122.239 582.603 123.257 584.347 124.132 586.122C124.895 582.198 126.11 578.212 127.89 574.351C127.212 573.51 126.478 572.638 125.658 571.766C126.562 572.389 127.41 573.074 128.201 573.728C130.094 569.711 132.665 565.818 136.056 562.112C133.23 566.877 131.45 571.392 130.377 575.721C131.394 576.78 132.354 577.807 133.202 578.897C134.982 575.192 137.158 571.548 139.842 568.06C138.909 566.815 137.864 565.538 136.734 564.292C138.062 565.257 139.333 566.254 140.491 567.313C142.187 565.133 144.136 563.046 146.284 561.085C145.351 559.839 144.334 558.624 143.289 557.379C144.588 558.375 145.831 559.372 147.018 560.431C148.205 559.372 149.448 558.375 150.776 557.379C149.674 558.624 148.657 559.839 147.753 561.085C149.9 563.046 151.85 565.133 153.573 567.313C154.76 566.254 156.003 565.257 157.331 564.292C156.201 565.538 155.155 566.815 154.166 568.06C156.85 571.517 159.026 575.16 160.806 578.897C161.71 577.807 162.614 576.78 163.631 575.721C162.614 571.361 160.806 566.877 158.009 562.112C161.371 565.818 163.914 569.711 165.863 573.728C166.683 573.074 167.474 572.389 168.378 571.766C167.615 572.638 166.852 573.51 166.146 574.351C167.954 578.243 169.141 582.198 169.904 586.122C170.808 584.378 171.853 582.603 173.012 580.89C173.096 575.877 172.334 570.52 170.328 564.666C170.215 564.541 170.073 564.417 169.96 564.292C170.073 564.386 170.158 564.417 170.243 564.51C169.932 563.545 169.565 562.579 169.141 561.583C169.989 562.891 170.808 564.168 171.486 565.475C174.679 567.936 177.391 570.707 179.708 573.572C180.471 572.949 181.29 572.327 182.109 571.735C181.431 572.482 180.725 573.292 180.132 574.07C181.657 576.063 183.042 578.181 184.228 580.33C185.359 579.115 186.63 577.963 187.986 576.873C185.839 570.396 182.251 563.918 176.515 557.348C184.765 563.545 190.331 571.019 194.089 578.866C194.937 577.776 195.897 576.749 196.914 575.69C195.869 571.33 194.089 566.846 191.235 562.081C194.626 565.787 197.197 569.68 199.09 573.697C199.909 573.043 200.757 572.358 201.633 571.735C200.813 572.607 200.107 573.479 199.401 574.32C201.181 578.212 202.396 582.167 203.159 586.091C204.063 584.347 205.052 582.572 206.266 580.859V580.579C205.249 579.022 204.034 577.496 202.622 575.908C203.95 576.873 205.136 577.87 206.238 578.928C206.069 573.572 204.939 567.842 202.424 561.583C205.814 566.69 208.018 571.891 209.346 577.091C210.166 576.157 211.041 575.285 212.03 574.413C211.352 573.541 210.561 572.607 209.77 571.735C210.731 572.451 211.663 573.167 212.567 573.946C213.471 573.167 214.375 572.451 215.393 571.735C214.573 572.607 213.81 573.541 213.132 574.413C214.065 575.285 214.94 576.157 215.816 577.091C217.116 571.922 219.348 566.69 222.739 561.583C220.196 567.842 219.066 573.572 218.896 578.928C219.998 577.87 221.213 576.873 222.512 575.908C221.1 577.496 219.913 579.053 218.896 580.579V580.859C220.083 582.572 221.128 584.316 222.004 586.091C222.767 582.167 223.953 578.181 225.762 574.32C225.084 573.479 224.292 572.607 223.53 571.735C224.434 572.358 225.225 573.043 226.044 573.697C227.994 569.68 230.537 565.787 233.899 562.081C231.102 566.846 229.293 571.361 228.276 575.69C229.293 576.749 230.226 577.776 231.102 578.866C234.831 571.019 240.425 563.545 248.619 557.348C243.11 563.918 239.493 570.396 237.346 576.873ZM264.074 568.652C263.057 571.081 262.294 573.416 261.729 575.721C262.746 576.78 263.707 577.807 264.554 578.897C265.402 577.153 266.334 575.441 267.351 573.728C266.391 572.015 265.317 570.365 264.074 568.652ZM274.556 567.967C273.256 570.302 272.211 572.638 271.307 574.974C272.522 576.655 273.567 578.306 274.556 580.018C275.517 578.306 276.619 576.624 277.834 574.974C276.958 572.669 275.884 570.302 274.556 567.967ZM269.951 579.146C269.414 581.108 268.99 583.07 268.651 585.032C269.386 586.34 269.979 587.679 270.544 589.049C270.94 587.835 271.448 586.62 271.929 585.468C271.448 583.35 270.798 581.233 269.951 579.146ZM285.095 568.652C283.852 570.365 282.75 572.046 281.817 573.697C282.835 575.41 283.767 577.122 284.615 578.866C285.462 577.776 286.395 576.749 287.44 575.69C286.875 573.416 286.084 571.081 285.095 568.652ZM279.161 579.146C278.342 581.233 277.692 583.382 277.212 585.468C277.692 586.651 278.173 587.835 278.596 589.049C279.161 587.679 279.783 586.34 280.489 585.032C280.179 583.07 279.727 581.108 279.161 579.146ZM145.803 592.226C145.605 591.509 145.408 590.793 145.125 590.108C144.927 591.727 144.758 593.409 144.673 595.091C145.012 594.094 145.379 593.16 145.803 592.226ZM141.48 583.662C141.028 583.07 140.548 582.479 140.011 581.949C140.576 582.354 141.141 582.79 141.678 583.257C142.724 581.077 143.91 578.96 145.295 576.873C144.362 574.818 143.232 572.825 141.904 570.801C139.587 575.534 138.231 580.299 137.412 585.063C138.146 586.371 138.74 587.71 139.305 589.08C139.898 587.243 140.633 585.437 141.48 583.662ZM145.577 587.368C146.142 588.115 146.679 588.925 147.103 589.703C147.583 588.925 148.12 588.115 148.685 587.368C148.29 585.375 147.781 583.351 147.103 581.357C146.453 583.351 145.944 585.375 145.577 587.368ZM148.459 592.226C148.855 593.191 149.222 594.094 149.561 595.06C149.476 593.378 149.363 591.727 149.165 590.077C148.855 590.793 148.6 591.509 148.459 592.226ZM142.667 569.244C144.334 570.863 145.775 572.545 147.131 574.288C148.459 572.545 149.956 570.863 151.595 569.244C150.38 566.877 148.883 564.479 147.131 562.05C145.379 564.479 143.91 566.846 142.667 569.244ZM148.939 576.842C150.324 578.928 151.539 581.077 152.584 583.226C153.121 582.759 153.63 582.354 154.251 581.918C153.714 582.447 153.234 583.039 152.782 583.631C153.601 585.437 154.308 587.212 154.957 589.018C155.494 587.648 156.144 586.309 156.85 585.001C156.031 580.236 154.618 575.472 152.358 570.738C151.002 572.794 149.872 574.787 148.939 576.842ZM210.787 583.973C211.522 584.97 212.172 586.029 212.737 587.056C213.33 585.997 213.98 584.97 214.714 583.973C214.884 582.416 215.11 580.828 215.449 579.302C214.686 577.87 213.782 576.499 212.737 575.129C211.719 576.499 210.844 577.901 210.024 579.302C210.335 580.859 210.589 582.447 210.787 583.973ZM244.24 584.191C245.059 585.312 245.737 586.496 246.387 587.71C246.839 587.087 247.319 586.496 247.8 585.904C247.997 583.724 248.28 581.513 248.76 579.302C248.224 578.368 247.658 577.434 247.009 576.499C245.822 579.053 244.918 581.607 244.24 584.191ZM247.263 589.548C247.376 589.797 247.517 590.046 247.63 590.264C247.63 589.766 247.63 589.205 247.658 588.676C247.517 588.956 247.404 589.236 247.263 589.548ZM247.602 575.378C248.195 575.908 248.732 576.499 249.269 577.091C250.117 573.79 251.331 570.458 252.998 567.157C250.738 569.898 249.015 572.607 247.602 575.378ZM228.078 577.371C227.259 581.326 227.118 585.219 227.4 589.018C228.163 586.371 229.096 583.755 230.226 581.171C229.576 579.925 228.898 578.617 228.078 577.371ZM261.362 577.371C260.599 581.326 260.429 585.219 260.683 589.018C261.446 586.371 262.379 583.755 263.509 581.171C262.887 579.925 262.181 578.617 261.362 577.371ZM185.076 581.638C185.98 580.174 187.026 578.679 188.241 577.216C189.088 579.8 189.71 582.385 190.134 585.032C189.399 586.34 188.806 587.679 188.241 589.049C187.393 586.527 186.348 584.067 185.076 581.638ZM181.234 584.191C180.471 585.312 179.736 586.496 179.115 587.71C178.662 587.087 178.182 586.496 177.645 585.904C177.476 583.724 177.165 581.513 176.713 579.302C177.25 578.368 177.815 577.434 178.408 576.499C179.651 579.053 180.584 581.607 181.234 584.191ZM178.21 589.548C178.097 589.797 177.956 590.046 177.9 590.264C177.9 589.766 177.871 589.205 177.871 588.676C177.956 588.956 178.069 589.236 178.21 589.548ZM177.871 575.378C177.306 575.908 176.741 576.499 176.204 577.091C175.357 573.79 174.17 570.458 172.531 567.157C174.707 569.898 176.515 572.607 177.871 575.378ZM197.423 577.371C198.186 581.326 198.355 585.219 198.101 589.018C197.338 586.371 196.406 583.755 195.276 581.171C195.897 579.925 196.632 578.617 197.423 577.371ZM164.112 577.371C164.931 581.326 165.072 585.219 164.79 589.018C164.027 586.371 163.095 583.755 161.964 581.171C162.614 579.925 163.292 578.617 164.112 577.371ZM112.972 591.26C112.774 590.17 112.492 589.143 112.125 588.084C111.729 590.388 111.475 592.724 111.39 595.06C111.814 593.752 112.322 592.506 112.972 591.26ZM109.186 581.638C108.282 580.174 107.237 578.679 105.993 577.216C105.146 579.8 104.524 582.385 104.1 585.032C104.835 586.34 105.485 587.679 105.993 589.049C106.869 586.527 107.915 584.067 109.186 581.638ZM79.5478 583.973C80.2824 584.97 80.9323 586.029 81.4974 587.056C82.0907 585.997 82.7405 584.97 83.4751 583.973C83.6446 582.416 83.8707 580.828 84.2097 579.302C83.4469 577.87 82.5427 576.499 81.4974 575.129C80.4802 576.499 79.6043 577.901 78.785 579.302C79.0958 580.859 79.3501 582.447 79.5478 583.973ZM112.972 584.191C113.792 585.312 114.47 586.496 115.119 587.71C115.572 587.087 116.052 586.496 116.532 585.904C116.73 583.724 117.012 581.513 117.493 579.302C116.956 578.368 116.391 577.434 115.741 576.499C114.554 579.053 113.679 581.607 112.972 584.191ZM116.024 589.548C116.137 589.797 116.278 590.046 116.391 590.264C116.391 589.766 116.391 589.205 116.419 588.676C116.25 588.956 116.137 589.236 116.024 589.548ZM116.334 575.378C116.928 575.908 117.465 576.499 118.001 577.091C118.849 573.79 120.064 570.458 121.731 567.157C119.499 569.898 117.747 572.607 116.334 575.378ZM96.8392 577.371C96.0198 581.326 95.8786 585.219 96.1611 589.018C96.924 586.371 97.8564 583.755 98.9865 581.171C98.3367 579.925 97.6303 578.617 96.8392 577.371ZM130.094 577.371C129.331 581.326 129.162 585.219 129.416 589.018C130.179 586.371 131.111 583.755 132.241 581.171C131.648 579.925 130.913 578.617 130.094 577.371ZM53.8368 581.638C54.7409 580.174 55.7863 578.679 57.0012 577.216C57.8489 579.8 58.4704 582.385 58.8942 585.032C58.1596 586.34 57.5663 587.679 57.0012 589.049C56.1536 586.527 55.08 584.067 53.8368 581.638ZM49.9943 584.191C49.2314 585.312 48.4968 586.496 47.847 587.71C47.4514 587.087 46.9429 586.496 46.4343 585.904C46.2648 583.724 45.954 581.513 45.5019 579.302C46.0387 578.368 46.6038 577.434 47.1971 576.499C48.4121 579.053 49.3444 581.607 49.9943 584.191ZM46.9428 589.548C46.8298 589.797 46.6886 590.046 46.6321 590.264C46.6321 589.766 46.6038 589.205 46.6038 588.676C46.7168 588.956 46.8298 589.236 46.9428 589.548ZM46.6321 575.378C46.067 575.908 45.5019 576.499 44.9651 577.091C44.1175 573.79 42.9308 570.458 41.2921 567.157C43.4676 569.898 45.2476 572.607 46.6321 575.378ZM66.1837 577.371C66.9466 581.326 67.1161 585.219 66.8618 589.018C66.099 586.371 65.1666 583.755 64.0365 581.171C64.6298 579.925 65.3644 578.617 66.1837 577.371ZM32.8724 577.371C33.6918 581.326 33.8331 585.219 33.5505 589.018C32.7877 586.371 31.8553 583.755 30.7251 581.171C31.3185 579.925 32.0531 578.617 32.8724 577.371ZM436.168 591.26C436.366 590.17 436.649 589.143 437.016 588.084C437.412 590.388 437.666 592.724 437.751 595.06C437.298 593.752 436.79 592.506 436.168 591.26ZM499.118 591.26C498.92 590.17 498.638 589.143 498.27 588.084C497.875 590.388 497.677 592.724 497.536 595.06C497.988 593.752 498.525 592.506 499.118 591.26ZM495.304 581.638C494.4 580.174 493.354 578.679 492.139 577.216C491.292 579.8 490.67 582.385 490.246 585.032C490.924 586.34 491.574 587.679 492.139 589.049C493.015 586.527 494.061 584.067 495.304 581.638ZM400.71 592.226C400.54 591.509 400.314 590.793 400.032 590.108C399.834 591.727 399.664 593.409 399.58 595.091C399.89 594.094 400.286 593.16 400.71 592.226ZM396.387 583.662C395.935 583.07 395.454 582.479 394.918 581.949C395.511 582.354 396.048 582.79 396.585 583.257C397.63 581.077 398.845 578.96 400.229 576.873C399.297 574.818 398.167 572.825 396.782 570.801C394.522 575.534 393.109 580.299 392.29 585.063C393.025 586.371 393.618 587.71 394.183 589.08C394.833 587.243 395.568 585.437 396.387 583.662ZM400.455 587.368C401.021 588.115 401.557 588.925 402.038 589.703C402.49 588.925 402.998 588.115 403.563 587.368C403.196 585.375 402.659 583.351 402.038 581.357C401.36 583.351 400.879 585.375 400.455 587.368ZM403.337 592.226C403.789 593.191 404.157 594.094 404.467 595.06C404.383 593.378 404.213 591.727 404.015 590.077C403.733 590.793 403.535 591.509 403.337 592.226ZM397.545 569.244C399.212 570.863 400.71 572.545 402.038 574.288C403.366 572.545 404.835 570.863 406.502 569.244C405.259 566.877 403.789 564.479 402.038 562.05C400.286 564.479 398.788 566.846 397.545 569.244ZM403.818 576.842C405.23 578.928 406.417 581.077 407.462 583.226C407.999 582.759 408.564 582.354 409.129 581.918C408.593 582.447 408.112 583.039 407.66 583.631C408.48 585.437 409.186 587.212 409.836 589.018C410.401 587.648 411.022 586.309 411.729 585.001C410.909 580.236 409.553 575.472 407.236 570.738C405.937 572.794 404.807 574.787 403.818 576.842ZM465.694 583.973C466.428 584.97 467.078 586.029 467.671 587.056C468.237 585.997 468.886 584.97 469.621 583.973C469.79 582.416 470.073 580.828 470.384 579.302C469.564 577.87 468.689 576.499 467.671 575.129C466.626 576.499 465.722 577.901 464.959 579.302C465.27 580.859 465.524 582.447 465.694 583.973ZM499.118 584.191C499.937 585.312 500.644 586.496 501.265 587.71C501.717 587.087 502.198 586.496 502.734 585.904C502.904 583.724 503.215 581.513 503.667 579.302C503.13 578.368 502.565 577.434 501.972 576.499C500.728 579.053 499.824 581.607 499.118 584.191ZM502.198 589.548C502.311 589.797 502.395 590.046 502.508 590.264C502.508 589.766 502.508 589.205 502.537 588.676C502.452 588.956 502.311 589.236 502.198 589.548ZM502.537 575.378C503.102 575.908 503.667 576.499 504.204 577.091C505.051 573.79 506.238 570.458 507.877 567.157C505.673 569.898 503.893 572.607 502.537 575.378ZM482.957 577.371C482.194 581.326 482.024 585.219 482.279 589.018C483.042 586.371 483.974 583.755 485.104 581.171C484.511 579.925 483.776 578.617 482.957 577.371ZM516.296 577.371C515.477 581.326 515.336 585.219 515.562 589.018C516.381 586.371 517.314 583.755 518.444 581.171C517.794 579.925 517.087 578.617 516.296 577.371ZM439.983 581.638C440.887 580.174 441.932 578.679 443.175 577.216C443.995 579.8 444.645 582.385 445.04 585.032C444.362 586.34 443.712 587.679 443.175 589.049C442.271 586.527 441.226 584.067 439.983 581.638ZM436.168 584.191C435.349 585.312 434.671 586.496 434.021 587.71C433.569 587.087 433.089 586.496 432.552 585.904C432.382 583.724 432.1 581.513 431.619 579.302C432.156 578.368 432.721 577.434 433.371 576.499C434.586 579.053 435.49 581.607 436.168 584.191ZM433.145 589.548C433.032 589.797 432.891 590.046 432.778 590.264C432.778 589.766 432.778 589.205 432.75 588.676C432.891 588.956 433.004 589.236 433.145 589.548ZM432.806 575.378C432.213 575.908 431.676 576.499 431.139 577.091C430.292 573.79 429.077 570.458 427.41 567.157C429.613 569.898 431.393 572.607 432.806 575.378ZM452.33 577.371C453.149 581.326 453.29 585.219 453.008 589.018C452.245 586.371 451.312 583.755 450.182 581.171C450.776 579.925 451.51 578.617 452.33 577.371ZM419.046 577.371C419.809 581.326 419.979 585.219 419.725 589.018C418.962 586.371 417.973 583.755 416.899 581.171C417.493 579.925 418.199 578.617 419.046 577.371ZM367.879 591.26C367.681 590.17 367.398 589.143 367.031 588.084C366.636 590.388 366.438 592.724 366.296 595.06C366.749 593.752 367.257 592.506 367.879 591.26ZM364.064 581.638C363.16 580.174 362.115 578.679 360.9 577.216C360.052 579.8 359.431 582.385 359.007 585.032C359.685 586.34 360.335 587.679 360.9 589.049C361.748 586.527 362.821 584.067 364.064 581.638ZM334.426 583.973C335.161 584.97 335.811 586.029 336.404 587.056C336.969 585.997 337.619 584.97 338.353 583.973C338.523 582.416 338.805 580.828 339.116 579.302C338.297 577.87 337.421 576.499 336.404 575.129C335.358 576.499 334.454 577.901 333.691 579.302C334.031 580.859 334.257 582.447 334.426 583.973ZM367.879 584.191C368.698 585.312 369.404 586.496 370.026 587.71C370.478 587.087 370.958 586.496 371.495 585.904C371.665 583.724 371.975 581.513 372.428 579.302C371.891 578.368 371.326 577.434 370.732 576.499C369.489 579.053 368.557 581.607 367.879 584.191ZM370.958 589.548C371.071 589.797 371.156 590.046 371.269 590.264C371.269 589.766 371.269 589.205 371.297 588.676C371.184 588.956 371.071 589.236 370.958 589.548ZM371.269 575.378C371.834 575.908 372.399 576.499 372.936 577.091C373.756 573.79 374.97 570.458 376.609 567.157C374.434 569.898 372.654 572.607 371.269 575.378ZM351.717 577.371C350.955 581.326 350.785 585.219 351.039 589.018C351.802 586.371 352.735 583.755 353.865 581.171C353.243 579.925 352.537 578.617 351.717 577.371ZM385.029 577.371C384.209 581.326 384.068 585.219 384.294 589.018C385.114 586.371 386.046 583.755 387.176 581.171C386.526 579.925 385.848 578.617 385.029 577.371ZM308.715 581.638C309.619 580.174 310.665 578.679 311.908 577.216C312.727 579.8 313.377 582.385 313.773 585.032C313.094 586.34 312.445 587.679 311.908 589.049C311.032 586.527 309.986 584.067 308.715 581.638ZM304.929 584.191C304.11 585.312 303.432 586.496 302.782 587.71C302.33 587.087 301.849 586.496 301.313 585.904C301.143 583.724 300.86 581.513 300.38 579.302C300.917 578.368 301.482 577.434 302.132 576.499C303.347 579.053 304.223 581.607 304.929 584.191ZM301.878 589.548C301.765 589.797 301.623 590.046 301.51 590.264C301.51 589.766 301.51 589.205 301.482 588.676C301.652 588.956 301.765 589.236 301.878 589.548ZM301.567 575.378C300.974 575.908 300.437 576.499 299.9 577.091C299.052 573.79 297.837 570.458 296.17 567.157C298.374 569.898 300.154 572.607 301.567 575.378ZM321.062 577.371C321.825 581.326 322.023 585.219 321.74 589.018C320.977 586.371 320.045 583.755 318.915 581.171C319.536 579.925 320.271 578.617 321.062 577.371ZM287.807 577.371C288.57 581.326 288.74 585.219 288.485 589.018C287.722 586.371 286.734 583.755 285.66 581.171C286.253 579.925 286.931 578.617 287.807 577.371Z" fill="#0EBAA0"/>
<path d="M285.66 451.282C293.26 435.337 300.889 427.396 316.118 427.396C332.929 427.396 346.575 441.659 346.575 459.254C346.575 491.111 316.118 522.938 285.632 554.795C255.174 522.938 224.688 491.111 224.688 459.254C224.688 441.659 238.335 427.396 255.146 427.396C270.403 427.396 278.031 435.337 285.66 451.282Z" fill="#E06384"/>
<path d="M296.565 516.737L278.793 473.793L270.204 499.921H251.754C250.963 499.921 250.342 499.205 250.342 498.364C250.342 497.523 250.992 496.807 251.754 496.807H268.198L278.483 465.541L296.198 508.36L299.645 497.43H319.536C320.327 497.43 320.948 498.146 320.948 498.987C320.948 499.859 320.298 500.544 319.536 500.544H301.679L296.565 516.737Z" fill="white"/>
<path d="M280.66 459.433C277.1 459.433 273.568 458.188 270.94 456.039C269.499 454.856 268.369 453.454 267.55 451.835C266.674 450.091 266.194 448.16 266.109 446.105V446.074L265.939 414.497H267.352L267.522 446.074C267.804 453.766 274.5 457.907 280.66 457.907H280.688C285.971 457.907 292.244 454.793 292.526 446.105C292.526 442.711 290.633 438.6 288.797 434.645C286.339 429.289 283.768 423.746 285.491 419.23C286.537 416.49 288.995 414.497 293.007 413.095C296.454 411.912 299.336 412.223 301.822 414.092C303.997 415.711 305.58 418.265 307.275 420.974C311.004 426.922 314.875 433.057 325.47 430.036L325.838 431.562C323.86 432.123 322.023 432.403 320.3 432.403C317.559 432.403 315.186 431.687 313.039 430.223C310.016 428.136 308.038 424.96 306.088 421.877C304.478 419.292 302.952 416.863 301.003 415.4C298.883 413.812 296.482 413.562 293.43 414.621C289.842 415.867 287.667 417.58 286.791 419.884C285.322 423.714 287.723 428.915 290.068 433.96C291.961 438.102 293.939 442.368 293.939 446.136V446.167C293.798 450.402 292.329 453.89 289.644 456.288C287.299 458.375 284.135 459.527 280.688 459.527C280.688 459.433 280.688 459.433 280.66 459.433Z" fill="#4B76BA"/>
<path d="M280.66 459.995C277.015 459.995 273.342 458.718 270.63 456.476C269.132 455.261 267.946 453.797 267.098 452.116C266.166 450.31 265.657 448.285 265.601 446.137V446.106L265.431 413.968L267.861 413.937L268.031 446.043C268.313 453.361 274.755 457.316 280.66 457.316H280.688C285.746 457.316 291.764 454.327 292.018 446.043C292.018 442.774 290.153 438.756 288.345 434.833C285.83 429.352 283.231 423.684 285.011 418.951C286.113 416.054 288.684 413.937 292.837 412.504C296.454 411.259 299.449 411.601 302.076 413.563C304.337 415.245 305.947 417.829 307.671 420.57C311.485 426.611 315.073 432.341 325.329 429.383L325.81 429.258L326.431 431.843L325.951 431.968C323.945 432.559 322.024 432.839 320.3 432.839C317.475 432.839 315.017 432.092 312.785 430.566C309.677 428.417 307.671 425.21 305.693 422.065C304.111 419.542 302.613 417.144 300.72 415.743C298.742 414.248 296.454 414.03 293.572 415.027C290.125 416.241 288.062 417.861 287.243 419.978C285.887 423.559 288.232 428.667 290.492 433.587C292.414 437.791 294.42 442.12 294.42 446.012V446.043C294.278 450.434 292.724 454.078 289.927 456.569C287.497 458.718 284.22 459.932 280.66 459.932V459.995ZM266.59 446.074C266.674 448.068 267.126 449.905 267.974 451.555C268.765 453.081 269.839 454.451 271.223 455.573C273.766 457.659 277.213 458.873 280.66 458.873H280.688C284.022 458.873 287.074 457.752 289.334 455.759C291.905 453.486 293.318 450.123 293.459 446.074V446.043C293.459 442.4 291.509 438.196 289.645 434.116C287.271 428.947 284.813 423.622 286.367 419.573C287.3 417.144 289.56 415.307 293.318 413.999C296.51 412.878 299.053 413.158 301.314 414.84C303.348 416.366 304.902 418.826 306.541 421.442C308.434 424.463 310.411 427.608 313.35 429.632C315.412 431.064 317.701 431.75 320.328 431.75C321.854 431.75 323.493 431.5 325.245 431.033L325.132 430.566C320.47 431.812 316.684 431.376 313.548 429.227C310.694 427.265 308.773 424.182 306.88 421.193C305.213 418.546 303.63 416.023 301.54 414.466C299.195 412.722 296.454 412.411 293.176 413.563C289.306 414.902 286.932 416.833 285.972 419.387C284.361 423.653 286.848 429.071 289.277 434.334C291.142 438.351 293.035 442.524 293.035 446.043V446.074C292.894 450.154 291.425 453.486 288.797 455.666C286.65 457.441 283.768 458.406 280.716 458.437H280.688C274.303 458.437 267.352 454.109 267.042 446.074V446.043L266.872 415.027H266.448L266.59 446.074Z" fill="#4B76BA"/>
<path fill-rule="evenodd" clip-rule="evenodd" d="M331.63 427.365C333.212 430.915 331.884 435.181 328.663 436.925C325.443 438.669 321.572 437.205 319.989 433.655C318.407 430.105 319.735 425.839 322.956 424.095C326.149 422.351 330.048 423.815 331.63 427.365Z" fill="#8DAFDB"/>
<path fill-rule="evenodd" clip-rule="evenodd" d="M328.579 429.015C329.737 431.63 328.748 434.776 326.403 436.053C324.03 437.329 321.148 436.239 320.018 433.655C318.859 431.039 319.848 427.862 322.193 426.617C324.538 425.34 327.392 426.399 328.579 429.015Z" fill="white"/>
<path fill-rule="evenodd" clip-rule="evenodd" d="M326.093 430.415C326.545 431.411 326.149 432.626 325.245 433.124C324.341 433.591 323.239 433.186 322.787 432.19C322.335 431.193 322.73 429.979 323.635 429.48C324.539 428.982 325.641 429.418 326.093 430.415Z" fill="#15489D"/>
<path d="M292.441 359.662C292.526 360.596 292.554 361.531 292.554 362.496V378.347C292.554 394.198 280.772 407.183 266.391 407.183C252.01 407.183 240.228 394.229 240.228 378.347V362.496C240.228 361.531 240.256 360.596 240.341 359.662H243.675V378.503C243.675 392.267 253.875 403.54 266.363 403.54C278.851 403.54 289.079 392.267 289.079 378.503V359.662H292.441Z" fill="white"/>
<path fill-rule="evenodd" clip-rule="evenodd" d="M241.867 357.418H243.675C245.229 357.418 246.529 358.819 246.529 360.563C246.529 362.307 245.257 363.708 243.675 363.708H241.867C240.313 363.708 239.013 362.307 239.013 360.563C239.013 358.85 240.285 357.418 241.867 357.418ZM289.107 357.418H290.916C292.498 357.418 293.769 358.819 293.769 360.563C293.769 362.307 292.498 363.708 290.916 363.708H289.107C287.525 363.708 286.254 362.307 286.254 360.563C286.254 358.85 287.553 357.418 289.107 357.418ZM290.887 390.583C287.243 397.403 282.326 402.728 276.647 405.687C276.45 406.341 276.167 406.963 275.743 407.524L269.471 415.527C267.945 417.458 265.431 417.458 263.905 415.527L257.18 406.964C256.983 406.714 256.813 406.403 256.644 406.092C250.626 403.227 245.37 397.746 241.556 390.583C240.087 386.255 245.794 389.089 246.868 390.583C251.784 397.964 258.65 402.573 266.25 402.573C273.822 402.573 280.688 397.964 285.632 390.583C286.649 388.902 293.854 384.23 290.887 390.583ZM271.703 407.617C269.923 408.085 268.086 408.334 266.222 408.334C264.724 408.334 263.255 408.178 261.842 407.898L263.877 410.514C265.402 412.444 267.917 412.444 269.443 410.514L271.703 407.617Z" fill="#4B76BA"/>
<defs>
<linearGradient id="paint0_linear_13004_5508" x1="149.754" y1="17.0508" x2="392.311" y2="559.672" gradientUnits="userSpaceOnUse">
<stop stop-color="#A6EFFF"/>
<stop offset="0.501" stop-color="#12ADE6"/>
<stop offset="1" stop-color="#4C63FC"/>
</linearGradient>
<linearGradient id="paint1_linear_13004_5508" x1="244.812" y1="8.38867" x2="283.356" y2="137.659" gradientUnits="userSpaceOnUse">
<stop stop-color="white"/>
<stop offset="0.501" stop-color="#12B4E6"/>
<stop offset="1" stop-color="#DC4CFC"/>
</linearGradient>
<linearGradient id="paint2_linear_13004_5508" x1="264.425" y1="114.611" x2="337.472" y2="177.009" gradientUnits="userSpaceOnUse">
<stop stop-color="white"/>
<stop offset="0.501" stop-color="#12B4E6"/>
<stop offset="1" stop-color="#DC4CFC"/>
</linearGradient>
</defs>
</svg>
