<svg width="230" height="123" viewBox="0 0 230 123" fill="none" xmlns="http://www.w3.org/2000/svg">
<path d="M170.131 61.5C170.131 92.4348 145.089 117.5 114.213 117.5C83.3365 117.5 58.2939 92.4348 58.2939 61.5C58.2939 30.5652 83.3365 5.5 114.213 5.5C145.089 5.5 170.131 30.5652 170.131 61.5Z" stroke="black" stroke-width="11"/>
<rect x="82.6426" y="14.3691" width="63.1408" height="8.04673" fill="black"/>
<rect x="82.6426" y="100.584" width="63.1408" height="8.04673" fill="black"/>
<rect x="68.292" y="31.6113" width="91.8412" height="8.04673" fill="black"/>
<rect x="68.292" y="83.3418" width="91.8412" height="8.04673" fill="black"/>
<path d="M165.539 61.7883C165.539 90.0249 142.681 112.903 114.5 112.903C86.3181 112.903 63.46 90.0249 63.46 61.7883C63.46 33.5517 86.3181 10.6738 114.5 10.6738C142.681 10.6738 165.539 33.5517 165.539 61.7883Z" stroke="#F4F7FB" stroke-width="11"/>
<rect width="229" height="28" transform="translate(0.5 48)" fill="#F4F7FB"/>
<path d="M29.52 61.976C30.6213 62.1813 31.5267 62.732 32.236 63.628C32.9453 64.524 33.3 65.5507 33.3 66.708C33.3 67.7533 33.0387 68.6773 32.516 69.48C32.012 70.264 31.2747 70.88 30.304 71.328C29.3333 71.776 28.1853 72 26.86 72H18.432V52.456H26.496C27.8213 52.456 28.96 52.6707 29.912 53.1C30.8827 53.5293 31.6107 54.1267 32.096 54.892C32.6 55.6573 32.852 56.5253 32.852 57.496C32.852 58.6347 32.544 59.5867 31.928 60.352C31.3307 61.1173 30.528 61.6587 29.52 61.976ZM22.352 60.52H25.936C26.8693 60.52 27.588 60.3147 28.092 59.904C28.596 59.4747 28.848 58.868 28.848 58.084C28.848 57.3 28.596 56.6933 28.092 56.264C27.588 55.8347 26.8693 55.62 25.936 55.62H22.352V60.52ZM26.3 68.808C27.252 68.808 27.9893 68.584 28.512 68.136C29.0533 67.688 29.324 67.0533 29.324 66.232C29.324 65.392 29.044 64.7387 28.484 64.272C27.924 63.7867 27.168 63.544 26.216 63.544H22.352V68.808H26.3ZM59.3282 68.276H51.5442L50.2562 72H46.1402L53.1682 52.428H57.7322L64.7602 72H60.6162L59.3282 68.276ZM58.2642 65.14L55.4362 56.964L52.6082 65.14H58.2642ZM95.0232 72H91.1032L82.2272 58.588V72H78.3072V52.428H82.2272L91.1032 65.868V52.428H95.0232V72ZM123.117 52.456V55.62H117.909V72H113.989V55.62H108.781V52.456H123.117ZM153.109 52.456V72H149.189V63.684H140.817V72H136.897V52.456H140.817V60.492H149.189V52.456H153.109ZM177.967 72L173.655 64.384H171.807V72H167.887V52.456H175.223C176.735 52.456 178.023 52.7267 179.087 53.268C180.151 53.7907 180.945 54.5093 181.467 55.424C182.009 56.32 182.279 57.328 182.279 58.448C182.279 59.736 181.906 60.9027 181.159 61.948C180.413 62.9747 179.302 63.684 177.827 64.076L182.503 72H177.967ZM171.807 61.444H175.083C176.147 61.444 176.941 61.192 177.463 60.688C177.986 60.1653 178.247 59.4467 178.247 58.532C178.247 57.636 177.986 56.9453 177.463 56.46C176.941 55.956 176.147 55.704 175.083 55.704H171.807V61.444ZM212.285 52.456L205.677 65.196V72H201.757V65.196L195.121 52.456H199.545L203.745 61.388L207.917 52.456H212.285Z" fill="#252525"/>
</svg>
