<svg width="25" height="24" viewBox="0 0 25 24" fill="none" xmlns="http://www.w3.org/2000/svg">
<path d="M9.125 9C9.125 8.90054 9.16451 8.80516 9.23483 8.73484C9.30516 8.66451 9.40054 8.625 9.5 8.625H15.5C15.5995 8.625 15.6948 8.66451 15.7652 8.73484C15.8355 8.80516 15.875 8.90054 15.875 9C15.875 9.09946 15.8355 9.19484 15.7652 9.26517C15.6948 9.33549 15.5995 9.375 15.5 9.375H9.5C9.40054 9.375 9.30516 9.33549 9.23483 9.26517C9.16451 9.19484 9.125 9.09946 9.125 9ZM9.5 12.375H15.5C15.5995 12.375 15.6948 12.3355 15.7652 12.2652C15.8355 12.1948 15.875 12.0995 15.875 12C15.875 11.9005 15.8355 11.8052 15.7652 11.7348C15.6948 11.6645 15.5995 11.625 15.5 11.625H9.5C9.40054 11.625 9.30516 11.6645 9.23483 11.7348C9.16451 11.8052 9.125 11.9005 9.125 12C9.125 12.0995 9.16451 12.1948 9.23483 12.2652C9.30516 12.3355 9.40054 12.375 9.5 12.375ZM12.5 14.625H9.5C9.40054 14.625 9.30516 14.6645 9.23483 14.7348C9.16451 14.8052 9.125 14.9005 9.125 15C9.125 15.0995 9.16451 15.1948 9.23483 15.2652C9.30516 15.3355 9.40054 15.375 9.5 15.375H12.5C12.5995 15.375 12.6948 15.3355 12.7652 15.2652C12.8355 15.1948 12.875 15.0995 12.875 15C12.875 14.9005 12.8355 14.8052 12.7652 14.7348C12.6948 14.6645 12.5995 14.625 12.5 14.625ZM21.125 4.5V14.6897C21.1254 14.8375 21.0964 14.9838 21.0398 15.1203C20.9831 15.2568 20.8999 15.3806 20.795 15.4847L15.9847 20.2959C15.8805 20.4006 15.7565 20.4835 15.6201 20.54C15.4836 20.5965 15.3374 20.6254 15.1897 20.625H5C4.70163 20.625 4.41548 20.5065 4.2045 20.2955C3.99353 20.0845 3.875 19.7984 3.875 19.5V4.5C3.875 4.20163 3.99353 3.91548 4.2045 3.7045C4.41548 3.49353 4.70163 3.375 5 3.375H20C20.2984 3.375 20.5845 3.49353 20.7955 3.7045C21.0065 3.91548 21.125 4.20163 21.125 4.5ZM5 19.875H15.125V15C15.125 14.9005 15.1645 14.8052 15.2348 14.7348C15.3052 14.6645 15.4005 14.625 15.5 14.625H20.375V4.5C20.375 4.40054 20.3355 4.30516 20.2652 4.23484C20.1948 4.16451 20.0995 4.125 20 4.125H5C4.90054 4.125 4.80516 4.16451 4.73484 4.23484C4.66451 4.30516 4.625 4.40054 4.625 4.5V19.5C4.625 19.5995 4.66451 19.6948 4.73484 19.7652C4.80516 19.8355 4.90054 19.875 5 19.875ZM19.8453 15.375H15.875V19.3453L19.8453 15.375Z" fill="#FDFCFB"/>
</svg>
