<svg width="140" height="98" viewBox="0 0 140 98" fill="none" xmlns="http://www.w3.org/2000/svg">
<path fill-rule="evenodd" clip-rule="evenodd" d="M10.5 0C7.71523 0 5.04451 1.10625 3.07538 3.07538C1.10625 5.04451 0 7.71523 0 10.5V87.5C0 90.2848 1.10625 92.9555 3.07538 94.9246C5.04451 96.8937 7.71523 98 10.5 98H129.5C132.285 98 134.955 96.8937 136.925 94.9246C138.894 92.9555 140 90.2848 140 87.5V10.5C140 7.71523 138.894 5.04451 136.925 3.07538C134.955 1.10625 132.285 0 129.5 0H10.5ZM129.5 7H10.5C9.57174 7 8.6815 7.36875 8.02513 8.02513C7.36875 8.6815 7 9.57174 7 10.5V87.5C7 88.4283 7.36875 89.3185 8.02513 89.9749C8.6815 90.6313 9.57174 91 10.5 91H129.5C130.428 91 131.318 90.6313 131.975 89.9749C132.631 89.3185 133 88.4283 133 87.5V10.5C133 9.57174 132.631 8.6815 131.975 8.02513C131.318 7.36875 130.428 7 129.5 7Z" fill="black"/>
</svg>
